<?xml version="1.0" encoding="utf-8" standalone="no"?>
<!DOCTYPE svg PUBLIC "-//W3C//DTD SVG 1.1//EN"
  "http://www.w3.org/Graphics/SVG/1.1/DTD/svg11.dtd">
<!-- Created with matplotlib (https://matplotlib.org/) -->
<svg height="146.435438pt" version="1.1" viewBox="0 0 258.98082 146.435438" width="258.98082pt" xmlns="http://www.w3.org/2000/svg" xmlns:xlink="http://www.w3.org/1999/xlink">
 <metadata>
  <rdf:RDF xmlns:cc="http://creativecommons.org/ns#" xmlns:dc="http://purl.org/dc/elements/1.1/" xmlns:rdf="http://www.w3.org/1999/02/22-rdf-syntax-ns#">
   <cc:Work>
    <dc:type rdf:resource="http://purl.org/dc/dcmitype/StillImage"/>
    <dc:date>2020-11-05T10:44:12.587938</dc:date>
    <dc:format>image/svg+xml</dc:format>
    <dc:creator>
     <cc:Agent>
      <dc:title>Matplotlib v3.3.0, https://matplotlib.org/</dc:title>
     </cc:Agent>
    </dc:creator>
   </cc:Work>
  </rdf:RDF>
 </metadata>
 <defs>
  <style type="text/css">*{stroke-linecap:butt;stroke-linejoin:round;}</style>
 </defs>
 <g id="figure_1">
  <g id="patch_1">
   <path d="M 0 146.435438 
L 258.98082 146.435438 
L 258.98082 0 
L 0 0 
z
" style="fill:#ffffff;"/>
  </g>
  <g id="axes_1">
   <g id="patch_2">
    <path d="M 44.382812 109.70575 
L 251.215062 109.70575 
L 251.215062 7.2 
L 44.382812 7.2 
z
" style="fill:#ffffff;"/>
   </g>
   <g id="line2d_1">
    <path clip-path="url(#pfa5de08aa7)" d="M 27.276386 102.083363 
L 32.496402 101.532546 
L 36.085162 103.919419 
L 44.241437 101.348941 
L 50.113955 102.817786 
L 50.440206 41.677118 
L 52.397712 54.345905 
L 53.702716 58.385228 
L 55.00772 63.526185 
L 58.59648 65.545847 
L 61.532739 67.565509 
L 64.795249 69.401565 
L 66.752755 71.788438 
L 69.362763 71.604832 
L 70.994018 72.890071 
L 72.299022 71.421226 
L 75.561532 73.257283 
L 77.192787 74.358916 
L 78.824042 71.054015 
L 80.455297 72.339255 
L 82.086551 73.440888 
L 83.391555 72.52286 
L 85.02281 73.808099 
L 86.327814 73.624494 
L 88.28532 74.726127 
L 89.264073 75.827761 
L 91.221579 76.011367 
L 92.526583 78.949056 
L 95.789093 79.683479 
L 97.420348 78.581845 
L 98.725352 81.519535 
L 100.356607 81.152324 
L 101.661611 82.437563 
L 103.619116 81.703141 
L 104.92412 82.253957 
L 106.555375 81.152324 
L 108.18663 80.234296 
L 109.817885 78.581845 
L 112.754144 82.070352 
L 114.059148 82.253957 
L 115.690403 82.621169 
L 117.97416 84.090013 
L 118.952913 84.273619 
L 120.584168 84.273619 
L 121.889172 83.171985 
L 123.520427 83.539197 
L 124.825431 83.171985 
L 126.456686 83.355591 
L 128.08794 83.355591 
L 131.35045 84.64083 
L 132.981705 84.824436 
L 134.61296 85.92607 
L 135.917964 87.027703 
L 137.222968 86.844098 
L 138.854223 86.293281 
L 140.485478 86.844098 
L 142.116733 87.211309 
L 143.747988 87.027703 
L 145.379243 87.762126 
L 147.010498 86.109675 
L 148.315502 87.027703 
L 149.946756 87.394914 
L 151.578011 87.762126 
L 153.209266 86.660492 
L 154.840521 88.312942 
L 156.145525 88.312942 
L 157.77678 89.047365 
L 159.408035 89.414576 
L 160.713039 90.332604 
L 162.344294 90.51621 
L 163.975549 90.699815 
L 165.606804 91.985055 
L 167.238059 93.270294 
L 168.869314 94.004716 
L 170.500569 92.903083 
L 171.805573 91.250632 
L 173.436827 94.004716 
L 174.741831 92.352266 
L 176.699337 94.188322 
L 178.004341 92.719477 
L 179.635596 93.270294 
L 182.898106 92.352266 
L 184.20311 93.270294 
L 185.834365 94.371928 
L 188.770624 96.7588 
L 190.401879 95.840772 
L 192.033134 96.575195 
L 193.338138 97.676829 
L 195.295644 98.778462 
L 196.600647 97.126012 
L 199.536906 97.676829 
L 201.494412 96.391589 
L 203.125667 97.860434 
L 206.061926 98.227645 
L 207.36693 96.024378 
L 208.998185 96.7588 
L 210.62944 97.309617 
L 212.260695 96.207984 
L 215.196954 97.676829 
L 216.828209 96.391589 
L 218.133213 97.309617 
L 220.090718 98.411251 
L 221.721973 97.126012 
L 223.026977 97.676829 
L 224.984483 97.860434 
L 226.289487 97.126012 
L 227.594491 97.676829 
L 229.551997 98.04404 
L 231.183252 99.69649 
" style="fill:none;stroke:#000000;stroke-linecap:round;stroke-width:1.5;"/>
    <defs>
     <path d="M -2.5 2.5 
L 2.5 2.5 
L 2.5 -2.5 
L -2.5 -2.5 
z
" id="m4cb1004cc2" style="stroke:#ffffff;stroke-linejoin:miter;stroke-width:0.75;"/>
    </defs>
    <g clip-path="url(#pfa5de08aa7)">
     <use style="stroke:#ffffff;stroke-linejoin:miter;stroke-width:0.75;" x="27.276386" xlink:href="#m4cb1004cc2" y="102.083363"/>
     <use style="stroke:#ffffff;stroke-linejoin:miter;stroke-width:0.75;" x="32.496402" xlink:href="#m4cb1004cc2" y="101.532546"/>
     <use style="stroke:#ffffff;stroke-linejoin:miter;stroke-width:0.75;" x="36.085162" xlink:href="#m4cb1004cc2" y="103.919419"/>
     <use style="stroke:#ffffff;stroke-linejoin:miter;stroke-width:0.75;" x="44.241437" xlink:href="#m4cb1004cc2" y="101.348941"/>
     <use style="stroke:#ffffff;stroke-linejoin:miter;stroke-width:0.75;" x="50.113955" xlink:href="#m4cb1004cc2" y="102.817786"/>
     <use style="stroke:#ffffff;stroke-linejoin:miter;stroke-width:0.75;" x="50.440206" xlink:href="#m4cb1004cc2" y="41.677118"/>
     <use style="stroke:#ffffff;stroke-linejoin:miter;stroke-width:0.75;" x="52.397712" xlink:href="#m4cb1004cc2" y="54.345905"/>
     <use style="stroke:#ffffff;stroke-linejoin:miter;stroke-width:0.75;" x="53.702716" xlink:href="#m4cb1004cc2" y="58.385228"/>
     <use style="stroke:#ffffff;stroke-linejoin:miter;stroke-width:0.75;" x="55.00772" xlink:href="#m4cb1004cc2" y="63.526185"/>
     <use style="stroke:#ffffff;stroke-linejoin:miter;stroke-width:0.75;" x="58.59648" xlink:href="#m4cb1004cc2" y="65.545847"/>
     <use style="stroke:#ffffff;stroke-linejoin:miter;stroke-width:0.75;" x="61.532739" xlink:href="#m4cb1004cc2" y="67.565509"/>
     <use style="stroke:#ffffff;stroke-linejoin:miter;stroke-width:0.75;" x="64.795249" xlink:href="#m4cb1004cc2" y="69.401565"/>
     <use style="stroke:#ffffff;stroke-linejoin:miter;stroke-width:0.75;" x="66.752755" xlink:href="#m4cb1004cc2" y="71.788438"/>
     <use style="stroke:#ffffff;stroke-linejoin:miter;stroke-width:0.75;" x="69.362763" xlink:href="#m4cb1004cc2" y="71.604832"/>
     <use style="stroke:#ffffff;stroke-linejoin:miter;stroke-width:0.75;" x="70.994018" xlink:href="#m4cb1004cc2" y="72.890071"/>
     <use style="stroke:#ffffff;stroke-linejoin:miter;stroke-width:0.75;" x="72.299022" xlink:href="#m4cb1004cc2" y="71.421226"/>
     <use style="stroke:#ffffff;stroke-linejoin:miter;stroke-width:0.75;" x="75.561532" xlink:href="#m4cb1004cc2" y="73.257283"/>
     <use style="stroke:#ffffff;stroke-linejoin:miter;stroke-width:0.75;" x="77.192787" xlink:href="#m4cb1004cc2" y="74.358916"/>
     <use style="stroke:#ffffff;stroke-linejoin:miter;stroke-width:0.75;" x="78.824042" xlink:href="#m4cb1004cc2" y="71.054015"/>
     <use style="stroke:#ffffff;stroke-linejoin:miter;stroke-width:0.75;" x="80.455297" xlink:href="#m4cb1004cc2" y="72.339255"/>
     <use style="stroke:#ffffff;stroke-linejoin:miter;stroke-width:0.75;" x="82.086551" xlink:href="#m4cb1004cc2" y="73.440888"/>
     <use style="stroke:#ffffff;stroke-linejoin:miter;stroke-width:0.75;" x="83.391555" xlink:href="#m4cb1004cc2" y="72.52286"/>
     <use style="stroke:#ffffff;stroke-linejoin:miter;stroke-width:0.75;" x="85.02281" xlink:href="#m4cb1004cc2" y="73.808099"/>
     <use style="stroke:#ffffff;stroke-linejoin:miter;stroke-width:0.75;" x="86.327814" xlink:href="#m4cb1004cc2" y="73.624494"/>
     <use style="stroke:#ffffff;stroke-linejoin:miter;stroke-width:0.75;" x="88.28532" xlink:href="#m4cb1004cc2" y="74.726127"/>
     <use style="stroke:#ffffff;stroke-linejoin:miter;stroke-width:0.75;" x="89.264073" xlink:href="#m4cb1004cc2" y="75.827761"/>
     <use style="stroke:#ffffff;stroke-linejoin:miter;stroke-width:0.75;" x="91.221579" xlink:href="#m4cb1004cc2" y="76.011367"/>
     <use style="stroke:#ffffff;stroke-linejoin:miter;stroke-width:0.75;" x="92.526583" xlink:href="#m4cb1004cc2" y="78.949056"/>
     <use style="stroke:#ffffff;stroke-linejoin:miter;stroke-width:0.75;" x="95.789093" xlink:href="#m4cb1004cc2" y="79.683479"/>
     <use style="stroke:#ffffff;stroke-linejoin:miter;stroke-width:0.75;" x="97.420348" xlink:href="#m4cb1004cc2" y="78.581845"/>
     <use style="stroke:#ffffff;stroke-linejoin:miter;stroke-width:0.75;" x="98.725352" xlink:href="#m4cb1004cc2" y="81.519535"/>
     <use style="stroke:#ffffff;stroke-linejoin:miter;stroke-width:0.75;" x="100.356607" xlink:href="#m4cb1004cc2" y="81.152324"/>
     <use style="stroke:#ffffff;stroke-linejoin:miter;stroke-width:0.75;" x="101.661611" xlink:href="#m4cb1004cc2" y="82.437563"/>
     <use style="stroke:#ffffff;stroke-linejoin:miter;stroke-width:0.75;" x="103.619116" xlink:href="#m4cb1004cc2" y="81.703141"/>
     <use style="stroke:#ffffff;stroke-linejoin:miter;stroke-width:0.75;" x="104.92412" xlink:href="#m4cb1004cc2" y="82.253957"/>
     <use style="stroke:#ffffff;stroke-linejoin:miter;stroke-width:0.75;" x="106.555375" xlink:href="#m4cb1004cc2" y="81.152324"/>
     <use style="stroke:#ffffff;stroke-linejoin:miter;stroke-width:0.75;" x="108.18663" xlink:href="#m4cb1004cc2" y="80.234296"/>
     <use style="stroke:#ffffff;stroke-linejoin:miter;stroke-width:0.75;" x="109.817885" xlink:href="#m4cb1004cc2" y="78.581845"/>
     <use style="stroke:#ffffff;stroke-linejoin:miter;stroke-width:0.75;" x="112.754144" xlink:href="#m4cb1004cc2" y="82.070352"/>
     <use style="stroke:#ffffff;stroke-linejoin:miter;stroke-width:0.75;" x="114.059148" xlink:href="#m4cb1004cc2" y="82.253957"/>
     <use style="stroke:#ffffff;stroke-linejoin:miter;stroke-width:0.75;" x="115.690403" xlink:href="#m4cb1004cc2" y="82.621169"/>
     <use style="stroke:#ffffff;stroke-linejoin:miter;stroke-width:0.75;" x="117.97416" xlink:href="#m4cb1004cc2" y="84.090013"/>
     <use style="stroke:#ffffff;stroke-linejoin:miter;stroke-width:0.75;" x="118.952913" xlink:href="#m4cb1004cc2" y="84.273619"/>
     <use style="stroke:#ffffff;stroke-linejoin:miter;stroke-width:0.75;" x="120.584168" xlink:href="#m4cb1004cc2" y="84.273619"/>
     <use style="stroke:#ffffff;stroke-linejoin:miter;stroke-width:0.75;" x="121.889172" xlink:href="#m4cb1004cc2" y="83.171985"/>
     <use style="stroke:#ffffff;stroke-linejoin:miter;stroke-width:0.75;" x="123.520427" xlink:href="#m4cb1004cc2" y="83.539197"/>
     <use style="stroke:#ffffff;stroke-linejoin:miter;stroke-width:0.75;" x="124.825431" xlink:href="#m4cb1004cc2" y="83.171985"/>
     <use style="stroke:#ffffff;stroke-linejoin:miter;stroke-width:0.75;" x="126.456686" xlink:href="#m4cb1004cc2" y="83.355591"/>
     <use style="stroke:#ffffff;stroke-linejoin:miter;stroke-width:0.75;" x="128.08794" xlink:href="#m4cb1004cc2" y="83.355591"/>
     <use style="stroke:#ffffff;stroke-linejoin:miter;stroke-width:0.75;" x="131.35045" xlink:href="#m4cb1004cc2" y="84.64083"/>
     <use style="stroke:#ffffff;stroke-linejoin:miter;stroke-width:0.75;" x="132.981705" xlink:href="#m4cb1004cc2" y="84.824436"/>
     <use style="stroke:#ffffff;stroke-linejoin:miter;stroke-width:0.75;" x="134.61296" xlink:href="#m4cb1004cc2" y="85.92607"/>
     <use style="stroke:#ffffff;stroke-linejoin:miter;stroke-width:0.75;" x="135.917964" xlink:href="#m4cb1004cc2" y="87.027703"/>
     <use style="stroke:#ffffff;stroke-linejoin:miter;stroke-width:0.75;" x="137.222968" xlink:href="#m4cb1004cc2" y="86.844098"/>
     <use style="stroke:#ffffff;stroke-linejoin:miter;stroke-width:0.75;" x="138.854223" xlink:href="#m4cb1004cc2" y="86.293281"/>
     <use style="stroke:#ffffff;stroke-linejoin:miter;stroke-width:0.75;" x="140.485478" xlink:href="#m4cb1004cc2" y="86.844098"/>
     <use style="stroke:#ffffff;stroke-linejoin:miter;stroke-width:0.75;" x="142.116733" xlink:href="#m4cb1004cc2" y="87.211309"/>
     <use style="stroke:#ffffff;stroke-linejoin:miter;stroke-width:0.75;" x="143.747988" xlink:href="#m4cb1004cc2" y="87.027703"/>
     <use style="stroke:#ffffff;stroke-linejoin:miter;stroke-width:0.75;" x="145.379243" xlink:href="#m4cb1004cc2" y="87.762126"/>
     <use style="stroke:#ffffff;stroke-linejoin:miter;stroke-width:0.75;" x="147.010498" xlink:href="#m4cb1004cc2" y="86.109675"/>
     <use style="stroke:#ffffff;stroke-linejoin:miter;stroke-width:0.75;" x="148.315502" xlink:href="#m4cb1004cc2" y="87.027703"/>
     <use style="stroke:#ffffff;stroke-linejoin:miter;stroke-width:0.75;" x="149.946756" xlink:href="#m4cb1004cc2" y="87.394914"/>
     <use style="stroke:#ffffff;stroke-linejoin:miter;stroke-width:0.75;" x="151.578011" xlink:href="#m4cb1004cc2" y="87.762126"/>
     <use style="stroke:#ffffff;stroke-linejoin:miter;stroke-width:0.75;" x="153.209266" xlink:href="#m4cb1004cc2" y="86.660492"/>
     <use style="stroke:#ffffff;stroke-linejoin:miter;stroke-width:0.75;" x="154.840521" xlink:href="#m4cb1004cc2" y="88.312942"/>
     <use style="stroke:#ffffff;stroke-linejoin:miter;stroke-width:0.75;" x="156.145525" xlink:href="#m4cb1004cc2" y="88.312942"/>
     <use style="stroke:#ffffff;stroke-linejoin:miter;stroke-width:0.75;" x="157.77678" xlink:href="#m4cb1004cc2" y="89.047365"/>
     <use style="stroke:#ffffff;stroke-linejoin:miter;stroke-width:0.75;" x="159.408035" xlink:href="#m4cb1004cc2" y="89.414576"/>
     <use style="stroke:#ffffff;stroke-linejoin:miter;stroke-width:0.75;" x="160.713039" xlink:href="#m4cb1004cc2" y="90.332604"/>
     <use style="stroke:#ffffff;stroke-linejoin:miter;stroke-width:0.75;" x="162.344294" xlink:href="#m4cb1004cc2" y="90.51621"/>
     <use style="stroke:#ffffff;stroke-linejoin:miter;stroke-width:0.75;" x="163.975549" xlink:href="#m4cb1004cc2" y="90.699815"/>
     <use style="stroke:#ffffff;stroke-linejoin:miter;stroke-width:0.75;" x="165.606804" xlink:href="#m4cb1004cc2" y="91.985055"/>
     <use style="stroke:#ffffff;stroke-linejoin:miter;stroke-width:0.75;" x="167.238059" xlink:href="#m4cb1004cc2" y="93.270294"/>
     <use style="stroke:#ffffff;stroke-linejoin:miter;stroke-width:0.75;" x="168.869314" xlink:href="#m4cb1004cc2" y="94.004716"/>
     <use style="stroke:#ffffff;stroke-linejoin:miter;stroke-width:0.75;" x="170.500569" xlink:href="#m4cb1004cc2" y="92.903083"/>
     <use style="stroke:#ffffff;stroke-linejoin:miter;stroke-width:0.75;" x="171.805573" xlink:href="#m4cb1004cc2" y="91.250632"/>
     <use style="stroke:#ffffff;stroke-linejoin:miter;stroke-width:0.75;" x="173.436827" xlink:href="#m4cb1004cc2" y="94.004716"/>
     <use style="stroke:#ffffff;stroke-linejoin:miter;stroke-width:0.75;" x="174.741831" xlink:href="#m4cb1004cc2" y="92.352266"/>
     <use style="stroke:#ffffff;stroke-linejoin:miter;stroke-width:0.75;" x="176.699337" xlink:href="#m4cb1004cc2" y="94.188322"/>
     <use style="stroke:#ffffff;stroke-linejoin:miter;stroke-width:0.75;" x="178.004341" xlink:href="#m4cb1004cc2" y="92.719477"/>
     <use style="stroke:#ffffff;stroke-linejoin:miter;stroke-width:0.75;" x="179.635596" xlink:href="#m4cb1004cc2" y="93.270294"/>
     <use style="stroke:#ffffff;stroke-linejoin:miter;stroke-width:0.75;" x="182.898106" xlink:href="#m4cb1004cc2" y="92.352266"/>
     <use style="stroke:#ffffff;stroke-linejoin:miter;stroke-width:0.75;" x="184.20311" xlink:href="#m4cb1004cc2" y="93.270294"/>
     <use style="stroke:#ffffff;stroke-linejoin:miter;stroke-width:0.75;" x="185.834365" xlink:href="#m4cb1004cc2" y="94.371928"/>
     <use style="stroke:#ffffff;stroke-linejoin:miter;stroke-width:0.75;" x="188.770624" xlink:href="#m4cb1004cc2" y="96.7588"/>
     <use style="stroke:#ffffff;stroke-linejoin:miter;stroke-width:0.75;" x="190.401879" xlink:href="#m4cb1004cc2" y="95.840772"/>
     <use style="stroke:#ffffff;stroke-linejoin:miter;stroke-width:0.75;" x="192.033134" xlink:href="#m4cb1004cc2" y="96.575195"/>
     <use style="stroke:#ffffff;stroke-linejoin:miter;stroke-width:0.75;" x="193.338138" xlink:href="#m4cb1004cc2" y="97.676829"/>
     <use style="stroke:#ffffff;stroke-linejoin:miter;stroke-width:0.75;" x="195.295644" xlink:href="#m4cb1004cc2" y="98.778462"/>
     <use style="stroke:#ffffff;stroke-linejoin:miter;stroke-width:0.75;" x="196.600647" xlink:href="#m4cb1004cc2" y="97.126012"/>
     <use style="stroke:#ffffff;stroke-linejoin:miter;stroke-width:0.75;" x="199.536906" xlink:href="#m4cb1004cc2" y="97.676829"/>
     <use style="stroke:#ffffff;stroke-linejoin:miter;stroke-width:0.75;" x="201.494412" xlink:href="#m4cb1004cc2" y="96.391589"/>
     <use style="stroke:#ffffff;stroke-linejoin:miter;stroke-width:0.75;" x="203.125667" xlink:href="#m4cb1004cc2" y="97.860434"/>
     <use style="stroke:#ffffff;stroke-linejoin:miter;stroke-width:0.75;" x="206.061926" xlink:href="#m4cb1004cc2" y="98.227645"/>
     <use style="stroke:#ffffff;stroke-linejoin:miter;stroke-width:0.75;" x="207.36693" xlink:href="#m4cb1004cc2" y="96.024378"/>
     <use style="stroke:#ffffff;stroke-linejoin:miter;stroke-width:0.75;" x="208.998185" xlink:href="#m4cb1004cc2" y="96.7588"/>
     <use style="stroke:#ffffff;stroke-linejoin:miter;stroke-width:0.75;" x="210.62944" xlink:href="#m4cb1004cc2" y="97.309617"/>
     <use style="stroke:#ffffff;stroke-linejoin:miter;stroke-width:0.75;" x="212.260695" xlink:href="#m4cb1004cc2" y="96.207984"/>
     <use style="stroke:#ffffff;stroke-linejoin:miter;stroke-width:0.75;" x="215.196954" xlink:href="#m4cb1004cc2" y="97.676829"/>
     <use style="stroke:#ffffff;stroke-linejoin:miter;stroke-width:0.75;" x="216.828209" xlink:href="#m4cb1004cc2" y="96.391589"/>
     <use style="stroke:#ffffff;stroke-linejoin:miter;stroke-width:0.75;" x="218.133213" xlink:href="#m4cb1004cc2" y="97.309617"/>
     <use style="stroke:#ffffff;stroke-linejoin:miter;stroke-width:0.75;" x="220.090718" xlink:href="#m4cb1004cc2" y="98.411251"/>
     <use style="stroke:#ffffff;stroke-linejoin:miter;stroke-width:0.75;" x="221.721973" xlink:href="#m4cb1004cc2" y="97.126012"/>
     <use style="stroke:#ffffff;stroke-linejoin:miter;stroke-width:0.75;" x="223.026977" xlink:href="#m4cb1004cc2" y="97.676829"/>
     <use style="stroke:#ffffff;stroke-linejoin:miter;stroke-width:0.75;" x="224.984483" xlink:href="#m4cb1004cc2" y="97.860434"/>
     <use style="stroke:#ffffff;stroke-linejoin:miter;stroke-width:0.75;" x="226.289487" xlink:href="#m4cb1004cc2" y="97.126012"/>
     <use style="stroke:#ffffff;stroke-linejoin:miter;stroke-width:0.75;" x="227.594491" xlink:href="#m4cb1004cc2" y="97.676829"/>
     <use style="stroke:#ffffff;stroke-linejoin:miter;stroke-width:0.75;" x="229.551997" xlink:href="#m4cb1004cc2" y="98.04404"/>
     <use style="stroke:#ffffff;stroke-linejoin:miter;stroke-width:0.75;" x="231.183252" xlink:href="#m4cb1004cc2" y="99.69649"/>
    </g>
   </g>
   <g id="matplotlib.axis_1">
    <g id="xtick_1">
     <g id="line2d_2">
      <defs>
       <path d="M 0 0 
L 0 3.5 
" id="m0531f1a883" style="stroke:#262626;stroke-width:0.8;"/>
      </defs>
      <g>
       <use style="fill:#262626;stroke:#262626;stroke-width:0.8;" x="49.048202" xlink:href="#m0531f1a883" y="109.70575"/>
      </g>
     </g>
     <g id="text_1">
      <text style="fill:#262626;font-family:Arial;font-size:10px;font-stretch:normal;font-style:normal;font-weight:normal;text-anchor:middle;" transform="rotate(-0, 49.048202, 123.863563)" x="49.048202" y="123.863563">0</text>
     </g>
    </g>
    <g id="xtick_2">
     <g id="line2d_3">
      <g>
       <use style="fill:#262626;stroke:#262626;stroke-width:0.8;" x="87.926444" xlink:href="#m0531f1a883" y="109.70575"/>
      </g>
     </g>
     <g id="text_2">
      <text style="fill:#262626;font-family:Arial;font-size:10px;font-stretch:normal;font-style:normal;font-weight:normal;text-anchor:middle;" transform="rotate(-0, 87.926444, 123.863563)" x="87.926444" y="123.863563">25</text>
     </g>
    </g>
    <g id="xtick_3">
     <g id="line2d_4">
      <g>
       <use style="fill:#262626;stroke:#262626;stroke-width:0.8;" x="126.804687" xlink:href="#m0531f1a883" y="109.70575"/>
      </g>
     </g>
     <g id="text_3">
      <text style="fill:#262626;font-family:Arial;font-size:10px;font-stretch:normal;font-style:normal;font-weight:normal;text-anchor:middle;" transform="rotate(-0, 126.804687, 123.863563)" x="126.804687" y="123.863563">50</text>
     </g>
    </g>
    <g id="xtick_4">
     <g id="line2d_5">
      <g>
       <use style="fill:#262626;stroke:#262626;stroke-width:0.8;" x="165.682929" xlink:href="#m0531f1a883" y="109.70575"/>
      </g>
     </g>
     <g id="text_4">
      <text style="fill:#262626;font-family:Arial;font-size:10px;font-stretch:normal;font-style:normal;font-weight:normal;text-anchor:middle;" transform="rotate(-0, 165.682929, 123.863563)" x="165.682929" y="123.863563">75</text>
     </g>
    </g>
    <g id="xtick_5">
     <g id="line2d_6">
      <g>
       <use style="fill:#262626;stroke:#262626;stroke-width:0.8;" x="204.561172" xlink:href="#m0531f1a883" y="109.70575"/>
      </g>
     </g>
     <g id="text_5">
      <text style="fill:#262626;font-family:Arial;font-size:10px;font-stretch:normal;font-style:normal;font-weight:normal;text-anchor:middle;" transform="rotate(-0, 204.561172, 123.863563)" x="204.561172" y="123.863563">100</text>
     </g>
    </g>
    <g id="xtick_6">
     <g id="line2d_7">
      <g>
       <use style="fill:#262626;stroke:#262626;stroke-width:0.8;" x="243.439414" xlink:href="#m0531f1a883" y="109.70575"/>
      </g>
     </g>
     <g id="text_6">
      <text style="fill:#262626;font-family:Arial;font-size:10px;font-stretch:normal;font-style:normal;font-weight:normal;text-anchor:middle;" transform="rotate(-0, 243.439414, 123.863563)" x="243.439414" y="123.863563">125</text>
     </g>
    </g>
    <g id="text_7">
     <text style="fill:#262626;font-family:Arial;font-size:10px;font-stretch:normal;font-style:normal;font-weight:normal;text-anchor:middle;" transform="rotate(-0, 147.798937, 137.13075)" x="147.798937" y="137.13075">Time (min)</text>
    </g>
   </g>
   <g id="matplotlib.axis_2">
    <g id="ytick_1">
     <g id="line2d_8">
      <defs>
       <path d="M 0 0 
L -3.5 0 
" id="m792395bb21" style="stroke:#262626;stroke-width:0.8;"/>
      </defs>
      <g>
       <use style="fill:#262626;stroke:#262626;stroke-width:0.8;" x="44.382812" xlink:href="#m792395bb21" y="102.083363"/>
      </g>
     </g>
     <g id="text_8">
      <text style="fill:#262626;font-family:Arial;font-size:10px;font-stretch:normal;font-style:normal;font-weight:normal;text-anchor:end;" transform="rotate(-0, 37.382812, 105.662269)" x="37.382812" y="105.662269">100</text>
     </g>
    </g>
    <g id="ytick_2">
     <g id="line2d_9">
      <g>
       <use style="fill:#262626;stroke:#262626;stroke-width:0.8;" x="44.382812" xlink:href="#m792395bb21" y="63.971429"/>
      </g>
     </g>
     <g id="text_9">
      <text style="fill:#262626;font-family:Arial;font-size:10px;font-stretch:normal;font-style:normal;font-weight:normal;text-anchor:end;" transform="rotate(-0, 37.382812, 67.550335)" x="37.382812" y="67.550335">200</text>
     </g>
    </g>
    <g id="ytick_3">
     <g id="line2d_10">
      <g>
       <use style="fill:#262626;stroke:#262626;stroke-width:0.8;" x="44.382812" xlink:href="#m792395bb21" y="25.859495"/>
      </g>
     </g>
     <g id="text_10">
      <text style="fill:#262626;font-family:Arial;font-size:10px;font-stretch:normal;font-style:normal;font-weight:normal;text-anchor:end;" transform="rotate(-0, 37.382812, 29.438401)" x="37.382812" y="29.438401">300</text>
     </g>
    </g>
    <g id="text_11">
     <!-- Bound AMPARs $B$ (%) -->
     <g style="fill:#262626;" transform="translate(14.5 108.602875)rotate(-90)">
      <text>
       <tspan style="font-family:Arial;font-size:10px;font-style:regular;font-weight:regular;" x="0 6.669922 12.231445 17.792969 23.354492 28.916016 31.694336 38.364258 46.694336 53.364258 60.03418 67.255859 72.255859 81.894531 84.672852 88.00293 96.894531" y="-0.703125">Bound AMPARs  (%)</tspan>
       <tspan style="font-family:DejaVu Sans;font-size:10px;font-style:oblique;font-weight:oblique;" x="75.03418" y="-0.703125">B</tspan>
      </text>
     </g>
    </g>
   </g>
   <g id="line2d_11">
    <path clip-path="url(#pfa5de08aa7)" d="M 49.048202 102.083363 
L 49.125958 91.502985 
L 49.359228 63.396586 
L 49.825766 45.440574 
L 50.525575 25.180062 
L 51.018033 16.665885 
L 51.406815 13.144683 
L 51.717841 11.95958 
L 51.925192 11.811689 
L 52.080705 11.980175 
L 52.339893 12.70554 
L 52.728675 14.615078 
L 53.324808 18.847343 
L 54.38748 28.322883 
L 56.875688 50.750063 
L 58.249386 60.992913 
L 59.545327 69.054948 
L 60.81535 75.586653 
L 62.059453 80.838311 
L 63.277638 85.038501 
L 64.469904 88.384893 
L 65.662171 91.097054 
L 66.880355 93.324692 
L 68.09854 95.101701 
L 69.368563 96.565931 
L 70.690423 97.753787 
L 72.115959 98.734026 
L 73.671089 99.531322 
L 75.433569 100.181278 
L 77.507075 100.702476 
L 80.073039 101.107582 
L 83.442487 101.401065 
L 88.392983 101.589908 
L 97.594167 101.681352 
L 135.643007 101.697768 
L 235.637847 101.697775 
L 235.637847 101.697775 
" style="fill:none;stroke:#173d52;stroke-linecap:round;stroke-width:2;"/>
   </g>
   <g id="line2d_12">
    <path clip-path="url(#pfa5de08aa7)" d="M 44.382812 102.083363 
L 251.215062 102.083363 
" style="fill:none;stroke:#000000;stroke-dasharray:1.85,0.8;stroke-dashoffset:0;stroke-width:0.5;"/>
   </g>
   <g id="line2d_13">
    <path clip-path="url(#pfa5de08aa7)" d="M 49.048202 102.083363 
L 49.488822 87.45146 
L 50.758844 72.853689 
L 51.432734 67.596931 
L 52.028867 64.572908 
L 52.547243 62.993525 
L 52.987864 62.265351 
L 53.376646 61.991268 
L 53.765428 61.98615 
L 54.206048 62.226908 
L 54.802181 62.845661 
L 55.683422 64.127558 
L 57.471821 67.218252 
L 60.400648 72.17673 
L 62.655586 75.544839 
L 64.936443 78.552885 
L 67.295057 81.295284 
L 69.731427 83.790337 
L 72.271472 86.07681 
L 74.941111 88.180234 
L 77.714426 90.082917 
L 80.643253 91.820901 
L 83.727594 93.390014 
L 86.993366 94.799866 
L 90.492408 96.065278 
L 94.250638 97.186257 
L 98.371732 98.180436 
L 102.933446 99.048454 
L 108.091293 99.798211 
L 114.026704 100.43024 
L 121.076626 100.949746 
L 129.785352 101.358842 
L 141.215555 101.660293 
L 157.829524 101.857306 
L 187.79169 101.956003 
L 235.637847 101.97522 
L 235.637847 101.97522 
" style="fill:none;stroke:#0c5882;stroke-linecap:round;stroke-width:2;"/>
   </g>
   <g id="line2d_14">
    <path clip-path="url(#pfa5de08aa7)" d="M 44.382812 102.083363 
L 251.215062 102.083363 
" style="fill:none;stroke:#000000;stroke-dasharray:1.85,0.8;stroke-dashoffset:0;stroke-width:0.5;"/>
   </g>
   <g id="line2d_15">
    <path clip-path="url(#pfa5de08aa7)" d="M 49.048202 102.083363 
L 49.30739 95.496506 
L 50.551494 87.422531 
L 51.329058 83.627572 
L 52.002948 81.359056 
L 52.625 79.984103 
L 53.221133 79.172223 
L 53.817266 78.725681 
L 54.439318 78.533012 
L 55.190964 78.543777 
L 56.201798 78.802196 
L 57.808766 79.47502 
L 63.433151 82.230167 
L 68.487323 84.516041 
L 73.64517 86.603567 
L 79.062205 88.554708 
L 84.738428 90.36124 
L 90.699759 92.02374 
L 96.998034 93.547324 
L 103.685092 94.933416 
L 110.812769 96.181359 
L 118.510661 97.300219 
L 126.882443 98.289247 
L 136.135465 99.155024 
L 146.554834 99.901896 
L 158.529332 100.531623 
L 172.706932 101.047593 
L 190.228059 101.453277 
L 213.21806 101.750588 
L 235.637847 101.899173 
L 235.637847 101.899173 
" style="fill:none;stroke:#0173b2;stroke-linecap:round;stroke-width:2;"/>
   </g>
   <g id="line2d_16">
    <path clip-path="url(#pfa5de08aa7)" d="M 44.382812 102.083363 
L 251.215062 102.083363 
" style="fill:none;stroke:#000000;stroke-dasharray:1.85,0.8;stroke-dashoffset:0;stroke-width:0.5;"/>
   </g>
   <g id="patch_3">
    <path d="M 44.382812 109.70575 
L 44.382812 7.2 
" style="fill:none;stroke:#262626;stroke-linecap:square;stroke-linejoin:miter;stroke-width:0.8;"/>
   </g>
   <g id="patch_4">
    <path d="M 44.382812 109.70575 
L 251.215062 109.70575 
" style="fill:none;stroke:#262626;stroke-linecap:square;stroke-linejoin:miter;stroke-width:0.8;"/>
   </g>
   <g id="legend_1">
    <g id="patch_5">
     <path d="M 85.25065 39.5173 
L 228.08995 39.5173 
Q 229.24795 39.5173 229.24795 38.3593 
L 229.24795 21.2209 
Q 229.24795 20.0629 228.08995 20.0629 
L 85.25065 20.0629 
Q 84.09265 20.0629 84.09265 21.2209 
L 84.09265 38.3593 
Q 84.09265 39.5173 85.25065 39.5173 
z
" style="fill:#ffffff;opacity:0.8;stroke:#cccccc;stroke-linejoin:miter;"/>
    </g>
    <g id="line2d_17">
     <path d="M 86.40865 25.165338 
L 97.98865 25.165338 
" style="fill:none;stroke:#000000;stroke-linecap:round;stroke-width:1.5;"/>
    </g>
    <g id="line2d_18">
     <g>
      <use style="stroke:#ffffff;stroke-linejoin:miter;stroke-width:0.75;" x="92.19865" xlink:href="#m4cb1004cc2" y="25.165338"/>
     </g>
    </g>
    <g id="text_12">
     <text style="fill:#262626;font-family:Arial;font-size:5.79px;font-stretch:normal;font-style:normal;font-weight:normal;text-anchor:start;" transform="rotate(-0, 102.62065, 27.191838)" x="102.62065" y="27.191838">E-LTP</text>
    </g>
    <g id="line2d_19">
     <path d="M 86.40865 34.024038 
L 97.98865 34.024038 
" style="fill:none;stroke:#173d52;stroke-linecap:round;stroke-width:2;"/>
    </g>
    <g id="line2d_20"/>
    <g id="text_13">
     <!-- $P=40.0,\, B^*8.7$ -->
     <g style="fill:#262626;" transform="translate(102.62065 36.050538)">
      <text>
       <tspan style="font-family:DejaVu Sans;font-size:5.79px;font-style:oblique;font-weight:oblique;" x="0 27.357921" y="-0.7828125000000004">PB</tspan>
       <tspan style="font-family:DejaVu Sans;font-size:5.79px;font-style:book;font-weight:book;" x="4.612579 10.582962 14.261169 17.939377 19.777069 23.455276 35.488681 39.166888 40.504581" y="-0.7828125000000004">=40.0,8.7</tspan>
       <tspan style="font-family:DejaVu Sans;font-size:4.053px;font-style:book;font-weight:book;" x="32.519002" y="-2.9921875">*</tspan>
      </text>
     </g>
    </g>
    <g id="line2d_21">
     <path d="M 158.55205 25.165338 
L 170.13205 25.165338 
" style="fill:none;stroke:#0c5882;stroke-linecap:round;stroke-width:2;"/>
    </g>
    <g id="line2d_22"/>
    <g id="text_14">
     <!-- $P=100.0,\, B^*29.5$ -->
     <g style="fill:#262626;" transform="translate(174.76405 27.191838)">
      <text>
       <tspan style="font-family:DejaVu Sans;font-size:5.79px;font-style:oblique;font-weight:oblique;" x="0 31.036129" y="-0.7828125000000004">PB</tspan>
       <tspan style="font-family:DejaVu Sans;font-size:5.79px;font-style:book;font-weight:book;" x="4.612579 10.582962 14.261169 17.939377 21.617584 23.455276 27.133484 39.166888 42.720096 46.398303 48.235995" y="-0.7828125000000004">=100.0,29.5</tspan>
       <tspan style="font-family:DejaVu Sans;font-size:4.053px;font-style:book;font-weight:book;" x="36.197209" y="-2.9921875">*</tspan>
      </text>
     </g>
    </g>
    <g id="line2d_23">
     <path d="M 158.55205 34.024038 
L 170.13205 34.024038 
" style="fill:none;stroke:#0173b2;stroke-linecap:round;stroke-width:2;"/>
    </g>
    <g id="line2d_24"/>
    <g id="text_15">
     <!-- $P=200.0,\, B^*56.9$ -->
     <g style="fill:#262626;" transform="translate(174.76405 36.050538)">
      <text>
       <tspan style="font-family:DejaVu Sans;font-size:5.79px;font-style:oblique;font-weight:oblique;" x="0 31.036129" y="-0.7828125000000004">PB</tspan>
       <tspan style="font-family:DejaVu Sans;font-size:5.79px;font-style:book;font-weight:book;" x="4.612579 10.582962 14.261169 17.939377 21.617584 23.455276 27.133484 39.166888 42.845096 46.523303 48.360995" y="-0.7828125000000004">=200.0,56.9</tspan>
       <tspan style="font-family:DejaVu Sans;font-size:4.053px;font-style:book;font-weight:book;" x="36.197209" y="-2.9921875">*</tspan>
      </text>
     </g>
    </g>
   </g>
  </g>
 </g>
 <defs>
  <clipPath id="pfa5de08aa7">
   <rect height="102.50575" width="206.83225" x="44.382812" y="7.2"/>
  </clipPath>
 </defs>
</svg>
