<?xml version="1.0" encoding="utf-8" standalone="no"?>
<!DOCTYPE svg PUBLIC "-//W3C//DTD SVG 1.1//EN"
  "http://www.w3.org/Graphics/SVG/1.1/DTD/svg11.dtd">
<!-- Created with matplotlib (https://matplotlib.org/) -->
<svg height="81.699498pt" version="1.1" viewBox="0 0 242.754196 81.699498" width="242.754196pt" xmlns="http://www.w3.org/2000/svg" xmlns:xlink="http://www.w3.org/1999/xlink">
 <metadata>
  <rdf:RDF xmlns:cc="http://creativecommons.org/ns#" xmlns:dc="http://purl.org/dc/elements/1.1/" xmlns:rdf="http://www.w3.org/1999/02/22-rdf-syntax-ns#">
   <cc:Work>
    <dc:type rdf:resource="http://purl.org/dc/dcmitype/StillImage"/>
    <dc:date>2020-11-11T22:06:09.676007</dc:date>
    <dc:format>image/svg+xml</dc:format>
    <dc:creator>
     <cc:Agent>
      <dc:title>Matplotlib v3.3.0, https://matplotlib.org/</dc:title>
     </cc:Agent>
    </dc:creator>
   </cc:Work>
  </rdf:RDF>
 </metadata>
 <defs>
  <style type="text/css">*{stroke-linecap:butt;stroke-linejoin:round;}</style>
 </defs>
 <g id="figure_1">
  <g id="patch_1">
   <path d="M 0 81.699498 
L 242.754196 81.699498 
L 242.754196 0 
L 0 0 
z
" style="fill:#ffffff;"/>
  </g>
  <g id="axes_1">
   <g id="patch_2">
    <path d="M 38.821875 44.96981 
L 228.62573 44.96981 
L 228.62573 7.2 
L 38.821875 7.2 
z
" style="fill:#ffffff;"/>
   </g>
   <g id="matplotlib.axis_1">
    <g id="xtick_1">
     <g id="line2d_1">
      <defs>
       <path d="M 0 0 
L 0 3.5 
" id="m079d060405" style="stroke:#262626;stroke-width:0.8;"/>
      </defs>
      <g>
       <use style="fill:#262626;stroke:#262626;stroke-width:0.8;" x="47.449323" xlink:href="#m079d060405" y="44.96981"/>
      </g>
     </g>
     <g id="text_1">
      <text style="fill:#262626;font-family:Arial;font-size:10px;font-stretch:normal;font-style:normal;font-weight:normal;text-anchor:middle;" transform="rotate(-0, 47.449323, 59.127623)" x="47.449323" y="59.127623">0</text>
     </g>
    </g>
    <g id="xtick_2">
     <g id="line2d_2">
      <g>
       <use style="fill:#262626;stroke:#262626;stroke-width:0.8;" x="83.402016" xlink:href="#m079d060405" y="44.96981"/>
      </g>
     </g>
     <g id="text_2">
      <text style="fill:#262626;font-family:Arial;font-size:10px;font-stretch:normal;font-style:normal;font-weight:normal;text-anchor:middle;" transform="rotate(-0, 83.402016, 59.127623)" x="83.402016" y="59.127623">25</text>
     </g>
    </g>
    <g id="xtick_3">
     <g id="line2d_3">
      <g>
       <use style="fill:#262626;stroke:#262626;stroke-width:0.8;" x="119.35471" xlink:href="#m079d060405" y="44.96981"/>
      </g>
     </g>
     <g id="text_3">
      <text style="fill:#262626;font-family:Arial;font-size:10px;font-stretch:normal;font-style:normal;font-weight:normal;text-anchor:middle;" transform="rotate(-0, 119.35471, 59.127623)" x="119.35471" y="59.127623">50</text>
     </g>
    </g>
    <g id="xtick_4">
     <g id="line2d_4">
      <g>
       <use style="fill:#262626;stroke:#262626;stroke-width:0.8;" x="155.307403" xlink:href="#m079d060405" y="44.96981"/>
      </g>
     </g>
     <g id="text_4">
      <text style="fill:#262626;font-family:Arial;font-size:10px;font-stretch:normal;font-style:normal;font-weight:normal;text-anchor:middle;" transform="rotate(-0, 155.307403, 59.127623)" x="155.307403" y="59.127623">75</text>
     </g>
    </g>
    <g id="xtick_5">
     <g id="line2d_5">
      <g>
       <use style="fill:#262626;stroke:#262626;stroke-width:0.8;" x="191.260096" xlink:href="#m079d060405" y="44.96981"/>
      </g>
     </g>
     <g id="text_5">
      <text style="fill:#262626;font-family:Arial;font-size:10px;font-stretch:normal;font-style:normal;font-weight:normal;text-anchor:middle;" transform="rotate(-0, 191.260096, 59.127623)" x="191.260096" y="59.127623">100</text>
     </g>
    </g>
    <g id="xtick_6">
     <g id="line2d_6">
      <g>
       <use style="fill:#262626;stroke:#262626;stroke-width:0.8;" x="227.212789" xlink:href="#m079d060405" y="44.96981"/>
      </g>
     </g>
     <g id="text_6">
      <text style="fill:#262626;font-family:Arial;font-size:10px;font-stretch:normal;font-style:normal;font-weight:normal;text-anchor:middle;" transform="rotate(-0, 227.212789, 59.127623)" x="227.212789" y="59.127623">125</text>
     </g>
    </g>
    <g id="text_7">
     <text style="fill:#262626;font-family:Arial;font-size:10px;font-stretch:normal;font-style:normal;font-weight:normal;text-anchor:middle;" transform="rotate(-0, 133.723803, 72.39481)" x="133.723803" y="72.39481">Time (min)</text>
    </g>
   </g>
   <g id="matplotlib.axis_2">
    <g id="ytick_1">
     <g id="line2d_7">
      <defs>
       <path d="M 0 0 
L -3.5 0 
" id="m70c0c09cf0" style="stroke:#262626;stroke-width:0.8;"/>
      </defs>
      <g>
       <use style="fill:#262626;stroke:#262626;stroke-width:0.8;" x="38.821875" xlink:href="#m70c0c09cf0" y="43.253001"/>
      </g>
     </g>
     <g id="text_8">
      <text style="fill:#262626;font-family:Arial;font-size:10px;font-stretch:normal;font-style:normal;font-weight:normal;text-anchor:end;" transform="rotate(-0, 31.821875, 46.831907)" x="31.821875" y="46.831907">0</text>
     </g>
    </g>
    <g id="ytick_2">
     <g id="line2d_8">
      <g>
       <use style="fill:#262626;stroke:#262626;stroke-width:0.8;" x="38.821875" xlink:href="#m70c0c09cf0" y="21.487573"/>
      </g>
     </g>
     <g id="text_9">
      <text style="fill:#262626;font-family:Arial;font-size:10px;font-stretch:normal;font-style:normal;font-weight:normal;text-anchor:end;" transform="rotate(-0, 31.821875, 25.066479)" x="31.821875" y="25.066479">25</text>
     </g>
    </g>
    <g id="text_10">
     <!-- $\Delta B$ (#) -->
     <g style="fill:#262626;" transform="translate(14.5 40.484905)rotate(-90)">
      <text>
       <tspan style="font-family:DejaVu Sans;font-size:10px;font-style:book;font-weight:book;" x="0" y="-0.703125">Δ</tspan>
       <tspan style="font-family:DejaVu Sans;font-size:10px;font-style:oblique;font-weight:oblique;" x="6.84082" y="-0.703125">B</tspan>
       <tspan style="font-family:Arial;font-size:10px;font-style:regular;font-weight:regular;" x="13.701172 16.479492 19.80957 25.371094" y="-0.703125"> (#)</tspan>
      </text>
     </g>
    </g>
   </g>
   <g id="line2d_9">
    <path clip-path="url(#p5a10ab5ea6)" d="M 47.449323 43.253001 
L 47.545197 42.263236 
L 47.880755 39.244316 
L 48.791557 34.121518 
L 49.438705 31.540338 
L 49.966012 30.266151 
L 50.421412 29.686271 
L 50.852845 29.479228 
L 51.308245 29.519117 
L 51.883488 29.812985 
L 52.842227 30.595625 
L 56.461465 33.723168 
L 58.450847 35.076546 
L 60.536103 36.225784 
L 62.76517 37.197573 
L 65.185985 38.007329 
L 67.894421 38.673346 
L 71.010321 39.203883 
L 74.821307 39.616798 
L 79.950558 39.93269 
L 89.082542 40.232978 
L 165.422094 42.198557 
L 197.803486 42.600341 
L 219.998282 42.780114 
L 219.998282 42.780114 
" style="fill:none;stroke:#173d52;stroke-linecap:round;stroke-width:1.5;"/>
   </g>
   <g id="line2d_10">
    <path clip-path="url(#p5a10ab5ea6)" d="M 47.449323 43.253001 
L 47.545197 41.01937 
L 47.80885 36.951608 
L 48.599809 30.845576 
L 49.318863 26.592864 
L 49.870138 24.532156 
L 50.349507 23.492721 
L 50.804908 22.998777 
L 51.23634 22.843424 
L 51.739678 22.908861 
L 52.4827 23.257953 
L 57.252424 25.885709 
L 60.27245 27.144242 
L 63.508193 28.251052 
L 66.935683 29.185502 
L 70.674763 29.970977 
L 74.989086 30.642913 
L 80.38199 31.245684 
L 88.914763 31.944819 
L 107.538258 33.452982 
L 126.928744 35.327071 
L 147.493684 37.234849 
L 163.097153 38.452887 
L 178.796496 39.452947 
L 195.71823 40.303945 
L 214.725221 41.03195 
L 219.998282 41.198977 
L 219.998282 41.198977 
" style="fill:none;stroke:#0c5882;stroke-linecap:round;stroke-width:1.5;"/>
   </g>
   <g id="line2d_11">
    <path clip-path="url(#p5a10ab5ea6)" d="M 47.449323 43.253001 
L 47.545197 33.887095 
L 47.760913 21.570877 
L 48.072503 16.423447 
L 48.575841 11.695961 
L 48.983305 9.727033 
L 49.318863 9.047511 
L 49.582516 8.91681 
L 49.846169 9.031232 
L 50.205696 9.458819 
L 50.780939 10.535445 
L 54.136524 17.476443 
L 55.454789 19.345682 
L 57.204487 21.4221 
L 59.529428 23.829091 
L 62.070085 26.144399 
L 64.586773 28.140999 
L 67.151399 29.893856 
L 69.835867 31.458832 
L 72.688114 32.863447 
L 75.780045 34.136376 
L 79.183567 35.293479 
L 82.970584 36.341815 
L 87.23697 37.288229 
L 92.150505 38.144953 
L 97.902936 38.915421 
L 104.805853 39.607431 
L 113.338626 40.229886 
L 124.316181 40.796775 
L 139.152659 41.327079 
L 159.933316 41.833593 
L 188.743408 42.301826 
L 219.998282 42.633604 
L 219.998282 42.633604 
" style="fill:none;stroke:#0173b2;stroke-linecap:round;stroke-width:1.5;"/>
   </g>
   <g id="line2d_12">
    <path clip-path="url(#p5a10ab5ea6)" d="M 38.821875 43.253001 
L 228.62573 43.253001 
" style="fill:none;stroke:#000000;stroke-dasharray:1.85,0.8;stroke-dashoffset:0;stroke-width:0.5;"/>
   </g>
   <g id="patch_3">
    <path d="M 38.821875 44.96981 
L 38.821875 7.2 
" style="fill:none;stroke:#262626;stroke-linecap:square;stroke-linejoin:miter;stroke-width:0.8;"/>
   </g>
   <g id="patch_4">
    <path d="M 38.821875 44.96981 
L 228.62573 44.96981 
" style="fill:none;stroke:#262626;stroke-linecap:square;stroke-linejoin:miter;stroke-width:0.8;"/>
   </g>
   <g id="legend_1">
    <g id="patch_5">
     <path d="M 156.853073 43.838772 
L 225.927773 43.838772 
Q 227.085773 43.838772 227.085773 42.680772 
L 227.085773 11.298972 
Q 227.085773 10.140972 225.927773 10.140972 
L 156.853073 10.140972 
Q 155.695073 10.140972 155.695073 11.298972 
L 155.695073 42.680772 
Q 155.695073 43.838772 156.853073 43.838772 
z
" style="fill:#ffffff;opacity:0.8;stroke:#cccccc;stroke-linejoin:miter;"/>
    </g>
    <g id="line2d_13">
     <path d="M 158.011073 15.757272 
L 169.591073 15.757272 
" style="fill:none;stroke:#173d52;stroke-linecap:round;stroke-width:1.5;"/>
    </g>
    <g id="line2d_14"/>
    <g id="text_11">
     <!-- $V_{spine}^{0}=$0.039 $\mu m^3$ -->
     <g style="fill:#262626;" transform="translate(174.223073 17.783772)">
      <text>
       <tspan style="font-family:DejaVu Sans;font-size:5.79px;font-style:oblique;font-weight:oblique;" x="0 38.139044 41.817252" y="-0.7184375000000003">Vμm</tspan>
       <tspan style="font-family:DejaVu Sans;font-size:4.053px;font-style:book;font-weight:book;" x="4.36136 47.717587" y="-2.9921875 -2.9278125">03</tspan>
       <tspan style="font-family:DejaVu Sans;font-size:4.053px;font-style:oblique;font-weight:oblique;" x="3.954849 6.063255 8.632072 9.756424 12.321289" y="0.8596874999999997">spine</tspan>
       <tspan style="font-family:DejaVu Sans;font-size:5.79px;font-style:book;font-weight:book;" x="16.095206" y="-0.7184375000000003">=</tspan>
       <tspan style="font-family:Arial;font-size:5.79px;font-style:regular;font-weight:regular;" x="22.065588 25.280844 26.887061 30.102316 33.317572 36.532828" y="-0.7184375000000003">0.039 </tspan>
      </text>
     </g>
    </g>
    <g id="line2d_15">
     <path d="M 158.011073 26.410872 
L 169.591073 26.410872 
" style="fill:none;stroke:#0c5882;stroke-linecap:round;stroke-width:1.5;"/>
    </g>
    <g id="line2d_16"/>
    <g id="text_12">
     <!-- $V_{spine}^{0}=$0.080 $\mu m^3$ -->
     <g style="fill:#262626;" transform="translate(174.223073 28.437372)">
      <text>
       <tspan style="font-family:DejaVu Sans;font-size:5.79px;font-style:oblique;font-weight:oblique;" x="0 38.139044 41.817252" y="-0.7184375000000003">Vμm</tspan>
       <tspan style="font-family:DejaVu Sans;font-size:4.053px;font-style:book;font-weight:book;" x="4.36136 47.717587" y="-2.9921875 -2.9278125">03</tspan>
       <tspan style="font-family:DejaVu Sans;font-size:4.053px;font-style:oblique;font-weight:oblique;" x="3.954849 6.063255 8.632072 9.756424 12.321289" y="0.8596874999999997">spine</tspan>
       <tspan style="font-family:DejaVu Sans;font-size:5.79px;font-style:book;font-weight:book;" x="16.095206" y="-0.7184375000000003">=</tspan>
       <tspan style="font-family:Arial;font-size:5.79px;font-style:regular;font-weight:regular;" x="22.065588 25.280844 26.887061 30.102316 33.317572 36.532828" y="-0.7184375000000003">0.080 </tspan>
      </text>
     </g>
    </g>
    <g id="line2d_17">
     <path d="M 158.011073 37.064472 
L 169.591073 37.064472 
" style="fill:none;stroke:#0173b2;stroke-linecap:round;stroke-width:1.5;"/>
    </g>
    <g id="line2d_18"/>
    <g id="text_13">
     <!-- $V_{spine}^{0}=$0.376 $\mu m^3$ -->
     <g style="fill:#262626;" transform="translate(174.223073 39.090972)">
      <text>
       <tspan style="font-family:DejaVu Sans;font-size:5.79px;font-style:oblique;font-weight:oblique;" x="0 38.139044 41.817252" y="-0.7184375000000003">Vμm</tspan>
       <tspan style="font-family:DejaVu Sans;font-size:4.053px;font-style:book;font-weight:book;" x="4.36136 47.717587" y="-2.9921875 -2.9278125">03</tspan>
       <tspan style="font-family:DejaVu Sans;font-size:4.053px;font-style:oblique;font-weight:oblique;" x="3.954849 6.063255 8.632072 9.756424 12.321289" y="0.8596874999999997">spine</tspan>
       <tspan style="font-family:DejaVu Sans;font-size:5.79px;font-style:book;font-weight:book;" x="16.095206" y="-0.7184375000000003">=</tspan>
       <tspan style="font-family:Arial;font-size:5.79px;font-style:regular;font-weight:regular;" x="22.065588 25.280844 26.887061 30.102316 33.317572 36.532828" y="-0.7184375000000003">0.376 </tspan>
      </text>
     </g>
    </g>
   </g>
  </g>
 </g>
 <defs>
  <clipPath id="p5a10ab5ea6">
   <rect height="37.76981" width="189.803855" x="38.821875" y="7.2"/>
  </clipPath>
 </defs>
</svg>
