<?xml version="1.0" encoding="utf-8" standalone="no"?>
<!DOCTYPE svg PUBLIC "-//W3C//DTD SVG 1.1//EN"
  "http://www.w3.org/Graphics/SVG/1.1/DTD/svg11.dtd">
<!-- Created with matplotlib (https://matplotlib.org/) -->
<svg height="137.089688pt" version="1.1" viewBox="0 0 245.048438 137.089688" width="245.048438pt" xmlns="http://www.w3.org/2000/svg" xmlns:xlink="http://www.w3.org/1999/xlink">
 <metadata>
  <rdf:RDF xmlns:cc="http://creativecommons.org/ns#" xmlns:dc="http://purl.org/dc/elements/1.1/" xmlns:rdf="http://www.w3.org/1999/02/22-rdf-syntax-ns#">
   <cc:Work>
    <dc:type rdf:resource="http://purl.org/dc/dcmitype/StillImage"/>
    <dc:date>2020-11-05T18:27:30.441012</dc:date>
    <dc:format>image/svg+xml</dc:format>
    <dc:creator>
     <cc:Agent>
      <dc:title>Matplotlib v3.3.0, https://matplotlib.org/</dc:title>
     </cc:Agent>
    </dc:creator>
   </cc:Work>
  </rdf:RDF>
 </metadata>
 <defs>
  <style type="text/css">*{stroke-linecap:butt;stroke-linejoin:round;}</style>
 </defs>
 <g id="figure_1">
  <g id="patch_1">
   <path d="M 0 137.089688 
L 245.048438 137.089688 
L 245.048438 0 
L 0 0 
z
" style="fill:#ffffff;"/>
  </g>
  <g id="axes_1">
   <g id="patch_2">
    <path d="M 54.868438 100.36 
L 237.848438 100.36 
L 237.848438 7.2 
L 54.868438 7.2 
z
" style="fill:#ffffff;"/>
   </g>
   <g id="line2d_1">
    <path clip-path="url(#pf3d51220ab)" d="M 54.868438 22.726667 
L 237.848438 22.726667 
" style="fill:none;stroke:#000000;stroke-linecap:round;stroke-width:1.5;"/>
   </g>
   <g id="matplotlib.axis_1">
    <g id="xtick_1">
     <g id="line2d_2">
      <defs>
       <path d="M 0 0 
L 0 3.5 
" id="m406ac79951" style="stroke:#262626;stroke-width:0.8;"/>
      </defs>
      <g>
       <use style="fill:#262626;stroke:#262626;stroke-width:0.8;" x="54.868438" xlink:href="#m406ac79951" y="100.36"/>
      </g>
     </g>
     <g id="text_1">
      <!-- 0 -->
      <g style="fill:#262626;" transform="translate(52.087969 114.517813)scale(0.1 -0.1)">
       <defs>
        <path d="M 4.15625 35.296875 
Q 4.15625 48 6.765625 55.734375 
Q 9.375 63.484375 14.515625 67.671875 
Q 19.671875 71.875 27.484375 71.875 
Q 33.25 71.875 37.59375 69.546875 
Q 41.9375 67.234375 44.765625 62.859375 
Q 47.609375 58.5 49.21875 52.21875 
Q 50.828125 45.953125 50.828125 35.296875 
Q 50.828125 22.703125 48.234375 14.96875 
Q 45.65625 7.234375 40.5 3 
Q 35.359375 -1.21875 27.484375 -1.21875 
Q 17.140625 -1.21875 11.234375 6.203125 
Q 4.15625 15.140625 4.15625 35.296875 
z
M 13.1875 35.296875 
Q 13.1875 17.671875 17.3125 11.828125 
Q 21.4375 6 27.484375 6 
Q 33.546875 6 37.671875 11.859375 
Q 41.796875 17.71875 41.796875 35.296875 
Q 41.796875 52.984375 37.671875 58.78125 
Q 33.546875 64.59375 27.390625 64.59375 
Q 21.34375 64.59375 17.71875 59.46875 
Q 13.1875 52.9375 13.1875 35.296875 
z
" id="ArialMT-48"/>
       </defs>
       <use xlink:href="#ArialMT-48"/>
      </g>
     </g>
    </g>
    <g id="xtick_2">
     <g id="line2d_3">
      <g>
       <use style="fill:#262626;stroke:#262626;stroke-width:0.8;" x="107.148438" xlink:href="#m406ac79951" y="100.36"/>
      </g>
     </g>
     <g id="text_2">
      <!-- 10 -->
      <g style="fill:#262626;" transform="translate(101.5875 114.517813)scale(0.1 -0.1)">
       <defs>
        <path d="M 37.25 0 
L 28.46875 0 
L 28.46875 56 
Q 25.296875 52.984375 20.140625 49.953125 
Q 14.984375 46.921875 10.890625 45.40625 
L 10.890625 53.90625 
Q 18.265625 57.375 23.78125 62.296875 
Q 29.296875 67.234375 31.59375 71.875 
L 37.25 71.875 
z
" id="ArialMT-49"/>
       </defs>
       <use xlink:href="#ArialMT-49"/>
       <use x="55.615234" xlink:href="#ArialMT-48"/>
      </g>
     </g>
    </g>
    <g id="xtick_3">
     <g id="line2d_4">
      <g>
       <use style="fill:#262626;stroke:#262626;stroke-width:0.8;" x="159.428438" xlink:href="#m406ac79951" y="100.36"/>
      </g>
     </g>
     <g id="text_3">
      <!-- 20 -->
      <g style="fill:#262626;" transform="translate(153.8675 114.517813)scale(0.1 -0.1)">
       <defs>
        <path d="M 50.34375 8.453125 
L 50.34375 0 
L 3.03125 0 
Q 2.9375 3.171875 4.046875 6.109375 
Q 5.859375 10.9375 9.828125 15.625 
Q 13.8125 20.3125 21.34375 26.46875 
Q 33.015625 36.03125 37.109375 41.625 
Q 41.21875 47.21875 41.21875 52.203125 
Q 41.21875 57.421875 37.46875 61 
Q 33.734375 64.59375 27.734375 64.59375 
Q 21.390625 64.59375 17.578125 60.78125 
Q 13.765625 56.984375 13.71875 50.25 
L 4.6875 51.171875 
Q 5.609375 61.28125 11.65625 66.578125 
Q 17.71875 71.875 27.9375 71.875 
Q 38.234375 71.875 44.234375 66.15625 
Q 50.25 60.453125 50.25 52 
Q 50.25 47.703125 48.484375 43.546875 
Q 46.734375 39.40625 42.65625 34.8125 
Q 38.578125 30.21875 29.109375 22.21875 
Q 21.1875 15.578125 18.9375 13.203125 
Q 16.703125 10.84375 15.234375 8.453125 
z
" id="ArialMT-50"/>
       </defs>
       <use xlink:href="#ArialMT-50"/>
       <use x="55.615234" xlink:href="#ArialMT-48"/>
      </g>
     </g>
    </g>
    <g id="xtick_4">
     <g id="line2d_5">
      <g>
       <use style="fill:#262626;stroke:#262626;stroke-width:0.8;" x="211.708438" xlink:href="#m406ac79951" y="100.36"/>
      </g>
     </g>
     <g id="text_4">
      <!-- 30 -->
      <g style="fill:#262626;" transform="translate(206.1475 114.517813)scale(0.1 -0.1)">
       <defs>
        <path d="M 4.203125 18.890625 
L 12.984375 20.0625 
Q 14.5 12.59375 18.140625 9.296875 
Q 21.78125 6 27 6 
Q 33.203125 6 37.46875 10.296875 
Q 41.75 14.59375 41.75 20.953125 
Q 41.75 27 37.796875 30.921875 
Q 33.84375 34.859375 27.734375 34.859375 
Q 25.25 34.859375 21.53125 33.890625 
L 22.515625 41.609375 
Q 23.390625 41.5 23.921875 41.5 
Q 29.546875 41.5 34.03125 44.421875 
Q 38.53125 47.359375 38.53125 53.46875 
Q 38.53125 58.296875 35.25 61.46875 
Q 31.984375 64.65625 26.8125 64.65625 
Q 21.6875 64.65625 18.265625 61.421875 
Q 14.84375 58.203125 13.875 51.765625 
L 5.078125 53.328125 
Q 6.6875 62.15625 12.390625 67.015625 
Q 18.109375 71.875 26.609375 71.875 
Q 32.46875 71.875 37.390625 69.359375 
Q 42.328125 66.84375 44.9375 62.5 
Q 47.5625 58.15625 47.5625 53.265625 
Q 47.5625 48.640625 45.0625 44.828125 
Q 42.578125 41.015625 37.703125 38.765625 
Q 44.046875 37.3125 47.5625 32.6875 
Q 51.078125 28.078125 51.078125 21.140625 
Q 51.078125 11.765625 44.234375 5.25 
Q 37.40625 -1.265625 26.953125 -1.265625 
Q 17.53125 -1.265625 11.296875 4.34375 
Q 5.078125 9.96875 4.203125 18.890625 
z
" id="ArialMT-51"/>
       </defs>
       <use xlink:href="#ArialMT-51"/>
       <use x="55.615234" xlink:href="#ArialMT-48"/>
      </g>
     </g>
    </g>
    <g id="text_5">
     <!-- Time (min) -->
     <g style="fill:#262626;" transform="translate(122.660781 127.785)scale(0.1 -0.1)">
      <defs>
       <path d="M 25.921875 0 
L 25.921875 63.140625 
L 2.34375 63.140625 
L 2.34375 71.578125 
L 59.078125 71.578125 
L 59.078125 63.140625 
L 35.40625 63.140625 
L 35.40625 0 
z
" id="ArialMT-84"/>
       <path d="M 6.640625 61.46875 
L 6.640625 71.578125 
L 15.4375 71.578125 
L 15.4375 61.46875 
z
M 6.640625 0 
L 6.640625 51.859375 
L 15.4375 51.859375 
L 15.4375 0 
z
" id="ArialMT-105"/>
       <path d="M 6.59375 0 
L 6.59375 51.859375 
L 14.453125 51.859375 
L 14.453125 44.578125 
Q 16.890625 48.390625 20.9375 50.703125 
Q 25 53.03125 30.171875 53.03125 
Q 35.9375 53.03125 39.625 50.640625 
Q 43.3125 48.25 44.828125 43.953125 
Q 50.984375 53.03125 60.84375 53.03125 
Q 68.5625 53.03125 72.703125 48.75 
Q 76.859375 44.484375 76.859375 35.59375 
L 76.859375 0 
L 68.109375 0 
L 68.109375 32.671875 
Q 68.109375 37.9375 67.25 40.25 
Q 66.40625 42.578125 64.15625 43.984375 
Q 61.921875 45.40625 58.890625 45.40625 
Q 53.421875 45.40625 49.796875 41.765625 
Q 46.1875 38.140625 46.1875 30.125 
L 46.1875 0 
L 37.40625 0 
L 37.40625 33.6875 
Q 37.40625 39.546875 35.25 42.46875 
Q 33.109375 45.40625 28.21875 45.40625 
Q 24.515625 45.40625 21.359375 43.453125 
Q 18.21875 41.5 16.796875 37.734375 
Q 15.375 33.984375 15.375 26.90625 
L 15.375 0 
z
" id="ArialMT-109"/>
       <path d="M 42.09375 16.703125 
L 51.171875 15.578125 
Q 49.03125 7.625 43.21875 3.21875 
Q 37.40625 -1.171875 28.375 -1.171875 
Q 17 -1.171875 10.328125 5.828125 
Q 3.65625 12.84375 3.65625 25.484375 
Q 3.65625 38.578125 10.390625 45.796875 
Q 17.140625 53.03125 27.875 53.03125 
Q 38.28125 53.03125 44.875 45.953125 
Q 51.46875 38.875 51.46875 26.03125 
Q 51.46875 25.25 51.421875 23.6875 
L 12.75 23.6875 
Q 13.234375 15.140625 17.578125 10.59375 
Q 21.921875 6.0625 28.421875 6.0625 
Q 33.25 6.0625 36.671875 8.59375 
Q 40.09375 11.140625 42.09375 16.703125 
z
M 13.234375 30.90625 
L 42.1875 30.90625 
Q 41.609375 37.453125 38.875 40.71875 
Q 34.671875 45.796875 27.984375 45.796875 
Q 21.921875 45.796875 17.796875 41.75 
Q 13.671875 37.703125 13.234375 30.90625 
z
" id="ArialMT-101"/>
       <path id="ArialMT-32"/>
       <path d="M 23.390625 -21.046875 
Q 16.109375 -11.859375 11.078125 0.4375 
Q 6.0625 12.75 6.0625 25.921875 
Q 6.0625 37.546875 9.8125 48.1875 
Q 14.203125 60.546875 23.390625 72.796875 
L 29.6875 72.796875 
Q 23.78125 62.640625 21.875 58.296875 
Q 18.890625 51.5625 17.1875 44.234375 
Q 15.09375 35.109375 15.09375 25.875 
Q 15.09375 2.390625 29.6875 -21.046875 
z
" id="ArialMT-40"/>
       <path d="M 6.59375 0 
L 6.59375 51.859375 
L 14.5 51.859375 
L 14.5 44.484375 
Q 20.21875 53.03125 31 53.03125 
Q 35.6875 53.03125 39.625 51.34375 
Q 43.5625 49.65625 45.515625 46.921875 
Q 47.46875 44.1875 48.25 40.4375 
Q 48.734375 37.984375 48.734375 31.890625 
L 48.734375 0 
L 39.9375 0 
L 39.9375 31.546875 
Q 39.9375 36.921875 38.90625 39.578125 
Q 37.890625 42.234375 35.28125 43.8125 
Q 32.671875 45.40625 29.15625 45.40625 
Q 23.53125 45.40625 19.453125 41.84375 
Q 15.375 38.28125 15.375 28.328125 
L 15.375 0 
z
" id="ArialMT-110"/>
       <path d="M 12.359375 -21.046875 
L 6.0625 -21.046875 
Q 20.65625 2.390625 20.65625 25.875 
Q 20.65625 35.0625 18.5625 44.09375 
Q 16.890625 51.421875 13.921875 58.15625 
Q 12.015625 62.546875 6.0625 72.796875 
L 12.359375 72.796875 
Q 21.53125 60.546875 25.921875 48.1875 
Q 29.6875 37.546875 29.6875 25.921875 
Q 29.6875 12.75 24.625 0.4375 
Q 19.578125 -11.859375 12.359375 -21.046875 
z
" id="ArialMT-41"/>
      </defs>
      <use xlink:href="#ArialMT-84"/>
      <use x="57.333984" xlink:href="#ArialMT-105"/>
      <use x="79.550781" xlink:href="#ArialMT-109"/>
      <use x="162.851562" xlink:href="#ArialMT-101"/>
      <use x="218.466797" xlink:href="#ArialMT-32"/>
      <use x="246.25" xlink:href="#ArialMT-40"/>
      <use x="279.550781" xlink:href="#ArialMT-109"/>
      <use x="362.851562" xlink:href="#ArialMT-105"/>
      <use x="385.068359" xlink:href="#ArialMT-110"/>
      <use x="440.683594" xlink:href="#ArialMT-41"/>
     </g>
    </g>
   </g>
   <g id="matplotlib.axis_2">
    <g id="ytick_1">
     <g id="line2d_6">
      <defs>
       <path d="M 0 0 
L -3.5 0 
" id="me548ab758d" style="stroke:#262626;stroke-width:0.8;"/>
      </defs>
      <g>
       <use style="fill:#262626;stroke:#262626;stroke-width:0.8;" x="54.868438" xlink:href="#me548ab758d" y="100.36"/>
      </g>
     </g>
     <g id="text_6">
      <!-- 0 -->
      <g style="fill:#262626;" transform="translate(42.3075 103.938906)scale(0.1 -0.1)">
       <use xlink:href="#ArialMT-48"/>
      </g>
     </g>
    </g>
    <g id="ytick_2">
     <g id="line2d_7">
      <g>
       <use style="fill:#262626;stroke:#262626;stroke-width:0.8;" x="54.868438" xlink:href="#me548ab758d" y="61.543333"/>
      </g>
     </g>
     <g id="text_7">
      <!-- 50 -->
      <g style="fill:#262626;" transform="translate(36.746563 65.12224)scale(0.1 -0.1)">
       <defs>
        <path d="M 4.15625 18.75 
L 13.375 19.53125 
Q 14.40625 12.796875 18.140625 9.390625 
Q 21.875 6 27.15625 6 
Q 33.5 6 37.890625 10.78125 
Q 42.28125 15.578125 42.28125 23.484375 
Q 42.28125 31 38.0625 35.34375 
Q 33.84375 39.703125 27 39.703125 
Q 22.75 39.703125 19.328125 37.765625 
Q 15.921875 35.84375 13.96875 32.765625 
L 5.71875 33.84375 
L 12.640625 70.609375 
L 48.25 70.609375 
L 48.25 62.203125 
L 19.671875 62.203125 
L 15.828125 42.96875 
Q 22.265625 47.46875 29.34375 47.46875 
Q 38.71875 47.46875 45.15625 40.96875 
Q 51.609375 34.46875 51.609375 24.265625 
Q 51.609375 14.546875 45.953125 7.46875 
Q 39.0625 -1.21875 27.15625 -1.21875 
Q 17.390625 -1.21875 11.203125 4.25 
Q 5.03125 9.71875 4.15625 18.75 
z
" id="ArialMT-53"/>
       </defs>
       <use xlink:href="#ArialMT-53"/>
       <use x="55.615234" xlink:href="#ArialMT-48"/>
      </g>
     </g>
    </g>
    <g id="ytick_3">
     <g id="line2d_8">
      <g>
       <use style="fill:#262626;stroke:#262626;stroke-width:0.8;" x="54.868438" xlink:href="#me548ab758d" y="22.726667"/>
      </g>
     </g>
     <g id="text_8">
      <!-- 100 -->
      <g style="fill:#262626;" transform="translate(31.185625 26.305573)scale(0.1 -0.1)">
       <use xlink:href="#ArialMT-49"/>
       <use x="55.615234" xlink:href="#ArialMT-48"/>
       <use x="111.230469" xlink:href="#ArialMT-48"/>
      </g>
     </g>
    </g>
    <g id="text_9">
     <!-- AMPAR  -->
     <g style="fill:#262626;" transform="translate(14.357813 72.581563)rotate(-90)scale(0.1 -0.1)">
      <defs>
       <path d="M -0.140625 0 
L 27.34375 71.578125 
L 37.546875 71.578125 
L 66.84375 0 
L 56.0625 0 
L 47.703125 21.6875 
L 17.78125 21.6875 
L 9.90625 0 
z
M 20.515625 29.390625 
L 44.78125 29.390625 
L 37.3125 49.21875 
Q 33.890625 58.25 32.234375 64.0625 
Q 30.859375 57.171875 28.375 50.390625 
z
" id="ArialMT-65"/>
       <path d="M 7.421875 0 
L 7.421875 71.578125 
L 21.6875 71.578125 
L 38.625 20.90625 
Q 40.96875 13.8125 42.046875 10.296875 
Q 43.265625 14.203125 45.84375 21.78125 
L 62.984375 71.578125 
L 75.734375 71.578125 
L 75.734375 0 
L 66.609375 0 
L 66.609375 59.90625 
L 45.796875 0 
L 37.25 0 
L 16.546875 60.9375 
L 16.546875 0 
z
" id="ArialMT-77"/>
       <path d="M 7.71875 0 
L 7.71875 71.578125 
L 34.71875 71.578125 
Q 41.84375 71.578125 45.609375 70.90625 
Q 50.875 70.015625 54.4375 67.546875 
Q 58.015625 65.09375 60.1875 60.640625 
Q 62.359375 56.203125 62.359375 50.875 
Q 62.359375 41.75 56.546875 35.421875 
Q 50.734375 29.109375 35.546875 29.109375 
L 17.1875 29.109375 
L 17.1875 0 
z
M 17.1875 37.546875 
L 35.6875 37.546875 
Q 44.875 37.546875 48.734375 40.96875 
Q 52.59375 44.390625 52.59375 50.59375 
Q 52.59375 55.078125 50.3125 58.265625 
Q 48.046875 61.46875 44.34375 62.5 
Q 41.9375 63.140625 35.5 63.140625 
L 17.1875 63.140625 
z
" id="ArialMT-80"/>
       <path d="M 7.859375 0 
L 7.859375 71.578125 
L 39.59375 71.578125 
Q 49.171875 71.578125 54.140625 69.640625 
Q 59.125 67.71875 62.109375 62.828125 
Q 65.09375 57.953125 65.09375 52.046875 
Q 65.09375 44.4375 60.15625 39.203125 
Q 55.21875 33.984375 44.921875 32.5625 
Q 48.6875 30.765625 50.640625 29 
Q 54.78125 25.203125 58.5 19.484375 
L 70.953125 0 
L 59.03125 0 
L 49.5625 14.890625 
Q 45.40625 21.34375 42.71875 24.75 
Q 40.046875 28.171875 37.921875 29.53125 
Q 35.796875 30.90625 33.59375 31.453125 
Q 31.984375 31.78125 28.328125 31.78125 
L 17.328125 31.78125 
L 17.328125 0 
z
M 17.328125 39.984375 
L 37.703125 39.984375 
Q 44.1875 39.984375 47.84375 41.328125 
Q 51.515625 42.671875 53.421875 45.625 
Q 55.328125 48.578125 55.328125 52.046875 
Q 55.328125 57.125 51.640625 60.390625 
Q 47.953125 63.671875 39.984375 63.671875 
L 17.328125 63.671875 
z
" id="ArialMT-82"/>
      </defs>
      <use xlink:href="#ArialMT-65"/>
      <use x="66.699219" xlink:href="#ArialMT-77"/>
      <use x="150" xlink:href="#ArialMT-80"/>
      <use x="209.324219" xlink:href="#ArialMT-65"/>
      <use x="276.023438" xlink:href="#ArialMT-82"/>
      <use x="348.240234" xlink:href="#ArialMT-32"/>
     </g>
     <!--  Recovery (%) -->
     <g style="fill:#262626;" transform="translate(25.080938 85.451094)rotate(-90)scale(0.1 -0.1)">
      <defs>
       <path d="M 40.4375 19 
L 49.078125 17.875 
Q 47.65625 8.9375 41.8125 3.875 
Q 35.984375 -1.171875 27.484375 -1.171875 
Q 16.84375 -1.171875 10.375 5.78125 
Q 3.90625 12.75 3.90625 25.734375 
Q 3.90625 34.125 6.6875 40.421875 
Q 9.46875 46.734375 15.15625 49.875 
Q 20.84375 53.03125 27.546875 53.03125 
Q 35.984375 53.03125 41.359375 48.75 
Q 46.734375 44.484375 48.25 36.625 
L 39.703125 35.296875 
Q 38.484375 40.53125 35.375 43.15625 
Q 32.28125 45.796875 27.875 45.796875 
Q 21.234375 45.796875 17.078125 41.03125 
Q 12.9375 36.28125 12.9375 25.984375 
Q 12.9375 15.53125 16.9375 10.796875 
Q 20.953125 6.0625 27.390625 6.0625 
Q 32.5625 6.0625 36.03125 9.234375 
Q 39.5 12.40625 40.4375 19 
z
" id="ArialMT-99"/>
       <path d="M 3.328125 25.921875 
Q 3.328125 40.328125 11.328125 47.265625 
Q 18.015625 53.03125 27.640625 53.03125 
Q 38.328125 53.03125 45.109375 46.015625 
Q 51.90625 39.015625 51.90625 26.65625 
Q 51.90625 16.65625 48.90625 10.90625 
Q 45.90625 5.171875 40.15625 2 
Q 34.421875 -1.171875 27.640625 -1.171875 
Q 16.75 -1.171875 10.03125 5.8125 
Q 3.328125 12.796875 3.328125 25.921875 
z
M 12.359375 25.921875 
Q 12.359375 15.96875 16.703125 11.015625 
Q 21.046875 6.0625 27.640625 6.0625 
Q 34.1875 6.0625 38.53125 11.03125 
Q 42.875 16.015625 42.875 26.21875 
Q 42.875 35.84375 38.5 40.796875 
Q 34.125 45.75 27.640625 45.75 
Q 21.046875 45.75 16.703125 40.8125 
Q 12.359375 35.890625 12.359375 25.921875 
z
" id="ArialMT-111"/>
       <path d="M 21 0 
L 1.265625 51.859375 
L 10.546875 51.859375 
L 21.6875 20.796875 
Q 23.484375 15.765625 25 10.359375 
Q 26.171875 14.453125 28.265625 20.21875 
L 39.796875 51.859375 
L 48.828125 51.859375 
L 29.203125 0 
z
" id="ArialMT-118"/>
       <path d="M 6.5 0 
L 6.5 51.859375 
L 14.40625 51.859375 
L 14.40625 44 
Q 17.4375 49.515625 20 51.265625 
Q 22.5625 53.03125 25.640625 53.03125 
Q 30.078125 53.03125 34.671875 50.203125 
L 31.640625 42.046875 
Q 28.421875 43.953125 25.203125 43.953125 
Q 22.3125 43.953125 20.015625 42.21875 
Q 17.71875 40.484375 16.75 37.40625 
Q 15.28125 32.71875 15.28125 27.15625 
L 15.28125 0 
z
" id="ArialMT-114"/>
       <path d="M 6.203125 -19.96875 
L 5.21875 -11.71875 
Q 8.109375 -12.5 10.25 -12.5 
Q 13.1875 -12.5 14.9375 -11.515625 
Q 16.703125 -10.546875 17.828125 -8.796875 
Q 18.65625 -7.46875 20.515625 -2.25 
Q 20.75 -1.515625 21.296875 -0.09375 
L 1.609375 51.859375 
L 11.078125 51.859375 
L 21.875 21.828125 
Q 23.96875 16.109375 25.640625 9.8125 
Q 27.15625 15.875 29.25 21.625 
L 40.328125 51.859375 
L 49.125 51.859375 
L 29.390625 -0.875 
Q 26.21875 -9.421875 24.46875 -12.640625 
Q 22.125 -17 19.09375 -19.015625 
Q 16.0625 -21.046875 11.859375 -21.046875 
Q 9.328125 -21.046875 6.203125 -19.96875 
z
" id="ArialMT-121"/>
       <path d="M 5.8125 54.390625 
Q 5.8125 62.0625 9.671875 67.421875 
Q 13.53125 72.796875 20.84375 72.796875 
Q 27.59375 72.796875 32 67.984375 
Q 36.421875 63.1875 36.421875 53.859375 
Q 36.421875 44.78125 31.953125 39.875 
Q 27.484375 34.96875 20.953125 34.96875 
Q 14.453125 34.96875 10.125 39.796875 
Q 5.8125 44.625 5.8125 54.390625 
z
M 21.09375 66.75 
Q 17.828125 66.75 15.65625 63.90625 
Q 13.484375 61.078125 13.484375 53.515625 
Q 13.484375 46.625 15.671875 43.8125 
Q 17.875 41.015625 21.09375 41.015625 
Q 24.421875 41.015625 26.59375 43.84375 
Q 28.765625 46.6875 28.765625 54.203125 
Q 28.765625 61.140625 26.5625 63.9375 
Q 24.359375 66.75 21.09375 66.75 
z
M 21.140625 -2.640625 
L 60.296875 72.796875 
L 67.4375 72.796875 
L 28.421875 -2.640625 
z
M 52.09375 16.796875 
Q 52.09375 24.515625 55.953125 29.859375 
Q 59.8125 35.203125 67.1875 35.203125 
Q 73.921875 35.203125 78.34375 30.390625 
Q 82.765625 25.59375 82.765625 16.265625 
Q 82.765625 7.171875 78.296875 2.265625 
Q 73.828125 -2.640625 67.234375 -2.640625 
Q 60.75 -2.640625 56.421875 2.21875 
Q 52.09375 7.078125 52.09375 16.796875 
z
M 67.4375 29.15625 
Q 64.109375 29.15625 61.9375 26.3125 
Q 59.765625 23.484375 59.765625 15.921875 
Q 59.765625 9.078125 61.953125 6.25 
Q 64.15625 3.421875 67.390625 3.421875 
Q 70.75 3.421875 72.921875 6.25 
Q 75.09375 9.078125 75.09375 16.609375 
Q 75.09375 23.53125 72.890625 26.34375 
Q 70.703125 29.15625 67.4375 29.15625 
z
" id="ArialMT-37"/>
      </defs>
      <use xlink:href="#ArialMT-32"/>
      <use x="27.783203" xlink:href="#ArialMT-82"/>
      <use x="100" xlink:href="#ArialMT-101"/>
      <use x="155.615234" xlink:href="#ArialMT-99"/>
      <use x="205.615234" xlink:href="#ArialMT-111"/>
      <use x="261.230469" xlink:href="#ArialMT-118"/>
      <use x="311.230469" xlink:href="#ArialMT-101"/>
      <use x="366.845703" xlink:href="#ArialMT-114"/>
      <use x="400.146484" xlink:href="#ArialMT-121"/>
      <use x="450.146484" xlink:href="#ArialMT-32"/>
      <use x="477.929688" xlink:href="#ArialMT-40"/>
      <use x="511.230469" xlink:href="#ArialMT-37"/>
      <use x="600.146484" xlink:href="#ArialMT-41"/>
     </g>
    </g>
   </g>
   <g id="line2d_9">
    <path clip-path="url(#pf3d51220ab)" d="M 54.824871 100.36 
L 54.868438 100.36 
L 57.438871 93.365279 
L 57.874538 92.331825 
L 62.449038 81.480555 
L 63.015404 79.980786 
L 63.363938 79.287615 
L 63.799604 78.317176 
L 63.886737 78.279367 
L 64.322404 77.422356 
L 64.453104 77.170294 
L 64.801638 76.351093 
L 65.063038 75.872175 
L 66.500737 73.200317 
L 66.631438 73.04908 
L 67.764171 70.982172 
L 67.938438 70.6923 
L 68.984038 69.091707 
L 69.114737 68.877454 
L 69.376138 68.436345 
L 69.506837 68.297711 
L 69.637538 67.932221 
L 69.855371 67.516319 
L 70.116771 67.07521 
L 70.160337 67.087813 
L 70.421737 66.558483 
L 70.944537 65.953534 
L 71.075237 65.953534 
L 71.205938 65.764488 
L 71.859438 64.340337 
L 72.469371 63.508533 
L 72.643638 63.306883 
L 73.253571 62.311238 
L 73.384271 62.19781 
L 73.514971 62.008764 
L 73.602104 62.008764 
L 73.907071 61.403815 
L 75.301204 59.639381 
L 75.780438 58.694148 
L 76.738904 57.118761 
L 77.087438 56.450796 
L 77.131004 56.501209 
L 77.174571 56.450796 
L 77.305271 56.450796 
L 77.392404 56.400384 
L 77.653804 55.883657 
L 77.697371 55.934069 
L 77.740938 55.871054 
L 78.176604 55.404739 
L 78.568704 54.661156 
L 78.612271 54.686362 
L 78.830104 54.371285 
L 79.396471 53.627702 
L 79.701438 52.947134 
L 79.962838 52.745485 
L 80.049971 52.506026 
L 80.137104 52.569041 
L 80.311371 52.468216 
L 80.703471 52.11533 
L 80.921304 51.850664 
L 81.008438 51.850664 
L 81.269838 51.699427 
L 81.444104 51.485175 
L 81.618371 51.38435 
L 81.792638 51.409556 
L 81.923338 51.144891 
L 82.054037 51.107081 
L 82.315438 50.754195 
L 82.489704 50.81721 
L 82.620404 50.81721 
L 82.838237 50.552545 
L 82.968938 50.565148 
L 83.143204 50.527339 
L 83.317471 50.325689 
L 83.404604 50.224864 
L 83.491737 50.338292 
L 83.535304 50.262674 
L 83.709571 50.048421 
L 83.883838 49.884581 
L 84.058104 49.745947 
L 84.232371 49.682931 
L 84.406638 49.405663 
L 84.537338 49.304838 
L 84.755171 49.103188 
L 85.103704 48.762905 
L 86.584971 47.817672 
L 86.846371 47.477388 
L 87.761271 46.847233 
L 87.979104 46.620378 
L 88.327638 46.645584 
L 88.545471 46.380919 
L 88.850438 46.217078 
L 89.068271 45.851588 
L 89.286104 45.876795 
L 89.329671 45.990223 
L 89.373237 45.902001 
L 89.678204 45.448289 
L 89.808904 45.523908 
L 89.896037 45.536511 
L 90.113871 45.183624 
L 90.288138 45.070196 
L 90.331704 45.145815 
L 90.375271 45.082799 
L 90.985204 44.364422 
L 91.115904 44.351819 
L 91.290171 44.061948 
L 91.464438 43.973726 
L 91.769404 43.671252 
L 91.987237 43.406587 
L 92.074371 43.318365 
L 92.335771 42.990684 
L 93.729904 41.881612 
L 93.817037 42.020246 
L 93.860604 41.969833 
L 93.947737 41.869008 
L 94.339838 41.553931 
L 94.514104 41.402694 
L 94.644804 41.26406 
L 94.688371 41.314472 
L 94.906204 41.26406 
L 95.124037 40.986791 
L 95.298304 40.923776 
L 95.472571 40.734729 
L 95.646838 40.759936 
L 96.082504 40.381843 
L 96.213204 40.444858 
L 96.256771 40.369239 
L 96.300338 40.407049 
L 96.431037 40.520477 
L 96.518171 40.457461 
L 96.736004 40.293621 
L 97.040971 40.243208 
L 97.084537 40.281018 
L 97.128104 40.180193 
L 97.171671 40.16759 
L 97.345938 39.827306 
L 97.825171 39.524832 
L 98.304404 39.461816 
L 98.522237 39.209754 
L 98.652938 39.197151 
L 98.696504 39.310579 
L 98.783638 39.247563 
L 98.957904 39.008105 
L 99.001471 39.033311 
L 99.175737 38.970295 
L 99.219304 38.919883 
L 99.262871 38.970295 
L 99.393571 38.995501 
L 99.829237 38.667821 
L 99.872804 38.743439 
L 99.916371 38.70563 
L 100.264904 38.466171 
L 100.744138 38.125888 
L 100.787704 38.188903 
L 100.831271 38.138491 
L 101.049104 37.97465 
L 101.179804 37.999857 
L 101.310504 38.01246 
L 102.312537 37.231067 
L 102.530371 37.231067 
L 102.704638 37.105036 
L 102.878904 37.029418 
L 103.009604 37.193258 
L 103.096737 37.117639 
L 103.183871 37.07983 
L 103.314571 37.016815 
L 103.706671 36.966402 
L 103.793804 36.739546 
L 103.837371 36.777356 
L 104.142338 36.588309 
L 104.229471 36.487484 
L 104.273037 36.5505 
L 104.403737 36.462278 
L 104.447304 36.399263 
L 104.490871 36.462278 
L 104.621571 36.424469 
L 104.795838 36.285835 
L 104.970104 36.298438 
L 105.405771 35.945551 
L 105.797871 35.567458 
L 106.320671 35.126349 
L 106.974171 34.672638 
L 107.017737 34.55921 
L 107.061304 34.597019 
L 107.104871 34.647432 
L 107.148438 34.584416 
L 107.453404 34.382767 
L 107.496971 34.420576 
L 107.540537 34.344957 
L 107.801938 34.168514 
L 107.845504 34.281942 
L 107.932638 34.218926 
L 108.106904 34.080292 
L 108.281171 33.966864 
L 108.455438 33.840833 
L 108.629704 33.689596 
L 108.673271 33.702199 
L 108.803971 33.513153 
L 109.021804 33.702199 
L 109.065371 33.651787 
L 109.283204 33.374518 
L 109.588171 33.500549 
L 109.893138 33.361915 
L 110.023838 33.122456 
L 110.067404 33.185472 
L 110.328804 33.021632 
L 110.459504 32.882998 
L 110.633771 32.744363 
L 110.764471 32.542714 
L 110.982304 32.504904 
L 111.156571 32.454492 
L 111.287271 32.467095 
L 111.548671 32.265446 
L 111.810071 32.378873 
L 111.984338 32.20243 
L 112.027904 32.303255 
L 112.071471 32.215033 
L 112.289304 32.051193 
L 112.463571 31.736115 
L 112.550704 31.723512 
L 112.855671 31.496656 
L 113.117071 31.496656 
L 113.204204 31.458847 
L 113.247771 31.496656 
L 113.596304 31.231991 
L 113.770571 31.231991 
L 113.944838 30.992532 
L 114.119104 31.068151 
L 114.293371 30.853898 
L 114.729037 30.866501 
L 115.164704 30.664852 
L 115.295404 30.627042 
L 115.382537 30.702661 
L 115.861771 30.727867 
L 115.905338 30.727867 
L 116.036037 30.463202 
L 116.253871 30.286759 
L 116.297438 30.261553 
L 116.341004 30.349774 
L 116.384571 30.387584 
L 116.428138 30.198537 
L 116.471704 30.261553 
L 116.515271 30.324568 
L 116.558838 30.248949 
L 116.863804 30.274156 
L 116.994504 30.400187 
L 117.125204 30.37498 
L 117.255904 30.425393 
L 117.517304 30.034697 
L 117.691571 30.072506 
L 117.822271 30.122918 
L 117.996537 29.883459 
L 118.040104 29.921269 
L 119.434237 29.177686 
L 119.564938 29.253304 
L 119.782771 29.202892 
L 119.957037 29.265908 
L 120.087738 29.051655 
L 120.218438 29.127273 
L 120.349138 29.127273 
L 120.871938 29.341526 
L 121.307604 29.026449 
L 121.438304 29.15248 
L 121.830404 29.051655 
L 122.048237 28.95083 
L 122.091804 28.850005 
L 122.178938 28.925624 
L 122.309638 28.862608 
L 122.832438 28.534928 
L 123.790904 28.270263 
L 123.921604 28.459309 
L 124.008737 28.270263 
L 124.095871 28.345881 
L 124.792938 28.257659 
L 124.967204 28.144232 
L 125.141471 28.358484 
L 125.272171 28.119025 
L 125.315737 28.144232 
L 125.402871 28.093819 
L 125.490004 27.967788 
L 125.533571 28.05601 
L 126.012804 27.85436 
L 126.143504 27.791345 
L 126.230638 27.917376 
L 126.274204 27.829154 
L 126.492037 27.451061 
L 126.579171 27.501473 
L 126.753438 27.589695 
L 126.840571 27.451061 
L 126.971271 27.362839 
L 127.319804 27.287221 
L 127.450504 27.287221 
L 127.886171 27.236808 
L 127.929737 27.135983 
L 127.973304 27.224205 
L 128.104004 27.249411 
L 128.321838 27.060365 
L 128.975338 27.148587 
L 129.062471 27.16119 
L 129.149604 27.262014 
L 129.193171 27.236808 
L 129.323871 27.135983 
L 129.367438 27.173793 
L 129.498138 27.350236 
L 129.541704 27.312427 
L 129.846671 26.984746 
L 129.890238 27.098174 
L 129.977371 27.022556 
L 130.325904 26.883921 
L 130.369471 27.009952 
L 130.456604 26.934334 
L 130.630871 26.984746 
L 131.676471 27.022556 
L 131.763604 27.135983 
L 131.807171 27.098174 
L 132.112138 26.896525 
L 132.286404 26.808303 
L 132.504237 26.909128 
L 132.634938 26.921731 
L 132.852771 26.720081 
L 132.983471 26.745287 
L 133.070604 26.543638 
L 133.114171 26.644463 
L 133.549838 26.354591 
L 133.593404 26.442813 
L 133.636971 26.417607 
L 133.854804 26.304179 
L 134.290471 26.556241 
L 134.464738 26.543638 
L 134.508304 26.619256 
L 134.595438 26.556241 
L 134.856838 26.531035 
L 135.248938 26.354591 
L 135.379638 26.316782 
L 135.423204 26.367194 
L 135.466771 26.278973 
L 135.858871 26.480622 
L 136.207404 26.820906 
L 136.338104 26.657066 
L 136.381671 26.682272 
L 137.035171 26.7957 
L 137.122304 26.606653 
L 137.165871 26.644463 
L 137.253004 26.745287 
L 137.470838 26.392401 
L 137.645104 26.241163 
L 137.819371 26.089926 
L 137.950071 26.052117 
L 138.167904 25.800055 
L 138.516438 25.875673 
L 138.952104 25.33374 
L 139.082804 25.396756 
L 139.126371 25.409359 
L 139.257071 25.1699 
L 139.344204 25.283328 
L 139.387771 25.207709 
L 139.518471 25.144694 
L 139.692737 25.018663 
L 139.867004 25.119487 
L 140.956171 25.33374 
L 141.348271 25.006059 
L 141.522537 25.081678 
L 141.609671 25.182503 
L 141.696804 25.346343 
L 141.740371 25.321137 
L 142.132471 25.396756 
L 142.176037 25.49758 
L 142.263171 25.434565 
L 142.437438 25.434565 
L 142.611704 25.421962 
L 142.742404 25.409359 
L 142.960238 25.220312 
L 143.308771 25.220312 
L 143.439471 25.195106 
L 143.526604 25.258121 
L 143.570171 25.220312 
L 143.788004 25.220312 
L 143.962271 25.245518 
L 144.267237 24.943044 
L 144.790037 25.157297 
L 144.877171 25.258121 
L 144.920738 25.207709 
L 145.051438 25.232915 
L 145.225704 25.144694 
L 145.312838 25.232915 
L 145.356404 25.195106 
L 145.487104 25.295931 
L 145.617804 25.409359 
L 145.661371 25.384152 
L 146.009904 25.447168 
L 146.097037 25.573199 
L 146.140604 25.484977 
L 146.271304 25.409359 
L 146.402004 25.459771 
L 146.489138 25.384152 
L 146.532704 25.421962 
L 146.706971 25.434565 
L 146.837671 25.547993 
L 147.011938 25.371549 
L 147.186204 25.346343 
L 147.491171 25.396756 
L 147.578304 25.195106 
L 147.621871 25.258121 
L 147.839704 25.119487 
L 148.057537 25.245518 
L 148.275371 25.157297 
L 148.623904 25.081678 
L 148.667471 24.993456 
L 148.754604 25.043869 
L 148.885304 25.081678 
L 149.016004 25.119487 
L 149.277404 25.094281 
L 149.451671 24.880028 
L 149.625938 24.917838 
L 149.713071 24.917838 
L 149.887338 25.069075 
L 150.627971 25.195106 
L 150.758671 25.13209 
L 150.976504 25.207709 
L 151.107204 25.018663 
L 151.150771 25.069075 
L 151.368604 25.069075 
L 151.455737 25.006059 
L 151.499304 25.031266 
L 152.457771 24.854822 
L 152.588471 24.917838 
L 152.719171 24.779204 
L 152.937004 24.905235 
L 152.980571 24.854822 
L 153.024138 24.892632 
L 153.154838 24.96825 
L 153.198404 24.905235 
L 153.241971 24.955647 
L 153.372671 25.018663 
L 153.459804 24.955647 
L 153.503371 24.993456 
L 154.200438 25.069075 
L 154.287571 25.106884 
L 154.461838 25.043869 
L 154.592537 25.195106 
L 154.766804 25.195106 
L 154.853938 25.144694 
L 154.897504 25.182503 
L 155.420304 25.270725 
L 155.507438 25.119487 
L 155.551004 25.195106 
L 155.725271 25.33374 
L 155.768838 25.245518 
L 156.073804 25.119487 
L 156.248071 25.094281 
L 156.291638 25.056472 
L 156.335204 25.144694 
L 156.465904 25.220312 
L 156.727304 25.33374 
L 156.945138 25.270725 
L 157.032271 25.295931 
L 157.075838 25.220312 
L 157.119404 25.308534 
L 157.380804 25.547993 
L 157.555071 25.484977 
L 157.729338 25.611008 
L 157.860037 25.560596 
L 158.165004 25.53539 
L 158.949204 25.384152 
L 159.210604 25.573199 
L 159.384871 25.623611 
L 159.515571 25.573199 
L 159.602704 25.484977 
L 159.733404 25.585802 
L 159.820537 25.547993 
L 160.038371 25.686627 
L 160.691871 25.611008 
L 160.909704 25.49758 
L 160.996838 25.459771 
L 161.040404 25.384152 
L 161.083971 25.434565 
L 161.127537 25.484977 
L 161.171104 25.384152 
L 161.301804 25.396756 
L 161.388938 25.321137 
L 161.432504 25.371549 
L 162.086004 25.472374 
L 162.173138 25.484977 
L 162.390971 25.611008 
L 162.695938 25.371549 
L 162.957338 25.472374 
L 163.044471 25.421962 
L 163.175171 25.49758 
L 163.480138 25.49758 
L 163.654404 25.409359 
L 163.741537 25.547993 
L 163.785104 25.484977 
L 163.872238 25.396756 
L 163.915804 25.434565 
L 164.177204 25.321137 
L 164.307904 25.384152 
L 164.482171 25.510183 
L 165.179237 25.006059 
L 165.484204 25.006059 
L 165.571338 24.930441 
L 165.614904 24.96825 
L 166.399104 25.321137 
L 166.529804 25.232915 
L 166.616938 25.384152 
L 166.704071 25.283328 
L 166.878338 25.283328 
L 167.096171 25.522787 
L 167.226871 25.49758 
L 167.357571 25.396756 
L 167.531838 25.484977 
L 167.836804 25.69923 
L 167.967504 25.560596 
L 168.228904 25.711833 
L 168.272471 25.648818 
L 168.316037 25.737039 
L 168.621004 25.648818 
L 168.795271 25.384152 
L 169.013104 25.573199 
L 169.274504 25.245518 
L 169.753737 24.980853 
L 169.928004 25.195106 
L 170.189404 24.955647 
L 170.450804 25.094281 
L 170.494371 25.056472 
L 170.537938 25.119487 
L 170.842904 25.232915 
L 170.930037 25.1699 
L 170.973604 25.207709 
L 171.191438 25.119487 
L 171.365704 25.207709 
L 171.801371 24.753997 
L 171.932071 24.678379 
L 171.975638 24.577554 
L 172.019204 24.665776 
L 172.237037 24.766601 
L 172.324171 24.590157 
L 172.367738 24.703585 
L 172.411304 24.653173 
L 172.454871 24.690982 
L 172.498438 24.741394 
L 172.542004 24.653173 
L 172.716271 24.60276 
L 172.846971 24.590157 
L 173.021238 24.653173 
L 173.239071 24.577554 
L 173.413338 24.753997 
L 173.500471 24.678379 
L 173.674738 24.564951 
L 173.936138 24.791807 
L 174.066838 24.753997 
L 174.284671 24.80441 
L 174.502504 24.627966 
L 174.720338 24.615363 
L 174.938171 24.388507 
L 175.243138 24.426317 
L 175.330271 24.489332 
L 175.373838 24.43892 
L 175.896638 23.985208 
L 176.027338 24.060827 
L 176.070904 24.060827 
L 176.158037 24.174255 
L 176.288738 24.07343 
L 176.375871 24.262476 
L 176.419438 24.23727 
L 176.550138 24.035621 
L 176.593704 24.111239 
L 176.942238 24.287683 
L 177.116504 24.098636 
L 177.160071 24.048224 
L 177.203638 24.086033 
L 177.334338 24.199461 
L 177.595738 24.136445 
L 177.770004 24.161652 
L 178.074971 24.212064 
L 178.118537 24.086033 
L 178.205671 24.123842 
L 178.423504 24.086033 
L 178.554204 24.136445 
L 178.728471 24.224667 
L 178.815604 24.350698 
L 178.859171 24.287683 
L 179.077004 24.161652 
L 179.861204 24.010414 
L 179.948338 24.174255 
L 179.991904 24.136445 
L 180.340438 23.670131 
L 180.427571 23.758352 
L 180.906804 23.922193 
L 181.168204 23.997811 
L 181.386037 24.136445 
L 181.429604 24.098636 
L 181.473171 24.174255 
L 181.516738 24.174255 
L 181.691004 24.010414 
L 181.952404 24.174255 
L 182.170238 24.300286 
L 182.257371 24.43892 
L 182.300938 24.375904 
L 182.475204 24.363301 
L 182.562338 24.325492 
L 182.649471 24.501935 
L 182.693037 24.43892 
L 182.867304 24.413714 
L 182.954438 24.413714 
L 183.172271 24.035621 
L 183.259404 24.136445 
L 183.390104 24.023018 
L 183.825771 24.199461 
L 183.912904 24.023018 
L 183.956471 24.098636 
L 184.130738 24.123842 
L 184.305004 24.098636 
L 184.653537 23.985208 
L 184.697104 24.010414 
L 184.740671 23.922193 
L 184.827804 23.808765 
L 184.958504 23.896987 
L 185.045638 23.884383 
L 185.132771 23.985208 
L 185.176338 23.960002 
L 185.481304 23.670131 
L 185.524871 23.70794 
L 185.655571 23.808765 
L 185.699138 23.808765 
L 185.873404 23.607115 
L 186.091238 23.581909 
L 186.134804 23.670131 
L 186.178371 23.581909 
L 186.570471 23.531497 
L 186.919004 23.985208 
L 186.962571 23.947399 
L 187.398238 24.010414 
L 187.572504 24.048224 
L 187.659638 23.960002 
L 187.703204 24.010414 
L 187.833904 23.859177 
L 187.964604 23.884383 
L 188.095304 23.808765 
L 188.182438 23.682734 
L 188.226004 23.720543 
L 188.356704 23.783559 
L 188.400271 23.934796 
L 188.487404 23.896987 
L 188.661671 23.884383 
L 188.879504 23.770956 
L 189.228037 23.947399 
L 189.489438 23.934796 
L 189.750838 24.098636 
L 189.837971 24.035621 
L 189.881537 24.07343 
L 190.273638 24.149049 
L 190.491471 24.249873 
L 190.709304 24.136445 
L 190.796438 24.262476 
L 190.883571 24.388507 
L 190.927138 24.312889 
L 190.970704 24.338095 
L 191.014271 24.249873 
L 191.232104 24.287683 
L 191.406371 24.287683 
L 192.234138 23.682734 
L 192.408404 23.733146 
L 192.582671 23.556703 
L 192.626238 23.607115 
L 192.800504 23.695337 
L 192.974771 23.392862 
L 193.236171 23.493687 
L 193.366871 23.418069 
L 193.497571 23.380259 
L 193.758971 23.292038 
L 194.020371 23.279435 
L 194.107504 23.203816 
L 194.151071 23.254228 
L 194.412471 23.279435 
L 194.891704 23.392862 
L 194.978838 23.241625 
L 195.022404 23.304641 
L 195.065971 23.279435 
L 195.240238 23.518894 
L 195.414504 23.392862 
L 195.458071 23.481084 
L 195.893738 23.90959 
L 195.937304 23.808765 
L 196.155138 23.468481 
L 196.372971 23.229022 
L 196.634371 23.027373 
L 196.765071 23.254228 
L 196.852204 23.191213 
L 196.895771 23.128197 
L 196.939338 23.166007 
L 197.157171 23.229022 
L 197.331438 23.1408 
L 197.679971 23.254228 
L 197.810671 23.1408 
L 197.984938 23.279435 
L 198.159204 23.468481 
L 198.594871 23.128197 
L 198.638438 23.241625 
L 198.682004 23.191213 
L 198.769138 23.166007 
L 198.856271 23.241625 
L 198.899838 23.191213 
L 198.986971 23.128197 
L 199.117671 23.216419 
L 199.422638 23.266831 
L 199.466204 23.241625 
L 199.509771 23.317244 
L 199.684037 23.455878 
L 199.814738 23.405466 
L 200.119704 23.128197 
L 200.293971 23.229022 
L 200.337537 23.17861 
L 200.381104 23.216419 
L 200.642504 23.418069 
L 200.947471 23.229022 
L 201.208871 23.455878 
L 201.252438 23.418069 
L 201.513838 23.418069 
L 201.949504 23.052579 
L 201.993071 23.115594 
L 202.646571 23.405466 
L 202.777271 23.5441 
L 203.256504 23.380259 
L 203.387204 23.34245 
L 203.648604 23.102991 
L 204.345671 23.266831 
L 204.519938 23.014769 
L 204.694204 23.203816 
L 204.912037 23.34245 
L 205.173438 23.380259 
L 205.478404 23.317244 
L 205.609104 23.17861 
L 205.826938 23.380259 
L 205.870504 23.355053 
L 206.001204 23.468481 
L 206.131904 23.405466 
L 206.524004 23.682734 
L 206.741838 23.531497 
L 206.785404 23.556703 
L 206.828971 23.481084 
L 206.959671 23.380259 
L 207.133938 23.468481 
L 207.438904 23.380259 
L 207.700304 23.670131 
L 207.874571 23.455878 
L 207.961704 23.607115 
L 208.005271 23.50629 
L 208.135971 23.34245 
L 208.179537 23.254228 
L 208.223104 23.304641 
L 208.266671 23.367656 
L 208.310238 23.292038 
L 208.484504 23.077785 
L 208.658771 22.989563 
L 208.789471 23.027373 
L 208.876604 22.939151 
L 208.920171 23.002166 
L 209.181571 23.014769 
L 209.225138 23.115594 
L 209.312271 23.065182 
L 209.486537 23.014769 
L 209.747938 23.304641 
L 209.791504 23.355053 
L 209.835071 23.241625 
L 209.965771 23.153404 
L 210.532138 23.254228 
L 210.749971 23.203816 
L 211.054938 23.1408 
L 211.142071 23.052579 
L 211.185638 23.090388 
L 211.664871 23.166007 
L 211.882704 22.989563 
L 212.492638 22.964357 
L 212.536204 22.876135 
L 212.623338 22.939151 
L 213.276838 23.039976 
L 213.494671 22.939151 
L 213.625371 23.014769 
L 213.799638 23.102991 
L 213.886771 23.065182 
L 214.148171 22.926548 
L 214.366004 22.800517 
L 214.409571 22.901342 
L 214.496704 22.838326 
L 214.714537 22.64928 
L 215.106638 22.64928 
L 215.193771 22.687089 
L 215.237338 22.636676 
L 215.411604 22.535852 
L 215.629438 22.485439 
L 215.803704 22.573661 
L 216.282938 22.825723 
L 216.718604 23.027373 
L 216.805738 22.926548 
L 216.849304 22.951754 
L 216.936438 23.077785 
L 216.980004 22.989563 
L 217.110704 23.065182 
L 217.372104 22.81312 
L 217.459238 22.81312 
L 217.633504 22.901342 
L 217.677071 22.825723 
L 217.851338 23.077785 
L 217.894904 23.115594 
L 217.938471 23.052579 
L 218.069171 23.039976 
L 218.112738 23.115594 
L 218.156304 23.014769 
L 218.330571 22.951754 
L 218.548404 23.039976 
L 219.027638 23.380259 
L 219.158338 23.292038 
L 219.201904 23.405466 
L 219.245471 23.367656 
L 219.463304 23.166007 
L 219.637571 23.443275 
L 219.681138 23.418069 
L 220.160371 23.581909 
L 220.203938 23.443275 
L 220.291071 23.518894 
L 220.378204 23.518894 
L 220.508904 23.644925 
L 220.552471 23.607115 
L 220.770304 23.619718 
L 220.901004 23.531497 
L 221.162404 23.556703 
L 221.205971 23.493687 
L 221.249538 23.5441 
L 221.336671 23.569306 
L 221.380238 23.481084 
L 221.423804 23.581909 
L 221.598071 23.783559 
L 221.728771 23.833971 
L 221.815904 23.87178 
L 221.859471 23.821368 
L 222.338704 23.481084 
L 222.469404 23.481084 
L 222.774371 23.430672 
L 223.384304 23.682734 
L 223.602138 23.720543 
L 223.689271 23.758352 
L 223.819971 23.644925 
L 223.950671 23.632321 
L 224.124938 23.531497 
L 224.255638 23.657528 
L 224.299204 23.783559 
L 224.342771 23.682734 
L 224.517037 23.594512 
L 224.560604 23.670131 
L 224.604171 23.607115 
L 224.734871 23.569306 
L 224.909138 23.733146 
L 225.083404 23.682734 
L 225.301238 23.833971 
L 225.519071 23.720543 
L 225.736904 23.682734 
L 226.041871 23.229022 
L 226.129004 23.317244 
L 226.303271 23.481084 
L 226.826071 23.027373 
L 226.956771 23.166007 
L 227.000338 23.128197 
L 227.043904 23.027373 
L 227.087471 23.153404 
L 227.348871 23.102991 
L 227.479571 23.090388 
L 227.697404 23.052579 
L 228.045938 22.598867 
L 228.089504 22.724898 
L 228.176638 22.661883 
L 228.394471 22.498042 
L 228.525171 22.598867 
L 228.743004 22.372011 
L 228.917271 22.321599 
L 229.222238 21.993918 
L 229.396504 21.993918 
L 229.483638 21.968712 
L 229.527204 22.044331 
L 229.745037 21.993918 
L 229.919304 21.956109 
L 230.093571 22.044331 
L 230.442104 22.271187 
L 230.616371 22.119949 
L 231.661971 21.893093 
L 231.836238 22.019124 
L 232.010504 21.754459 
L 232.184771 21.842681 
L 232.271904 22.031728 
L 232.315471 21.993918 
L 232.664004 21.817475 
L 232.751138 21.817475 
L 232.925404 21.489794 
L 233.186804 21.641031 
L 233.230371 21.565413 
L 233.622471 21.262938 
L 233.796738 21.199923 
L 233.883871 21.061289 
L 234.014571 20.884845 
L 234.101704 20.973067 
L 234.145271 20.960464 
L 234.319537 21.212526 
L 234.537371 21.124304 
L 234.668071 21.124304 
L 234.798771 21.048686 
L 234.842338 21.111701 
L 234.885904 20.998273 
L 234.929471 20.947861 
L 234.973038 21.010876 
L 235.147304 21.048686 
L 235.670104 21.136907 
L 235.713671 21.162114 
L 235.844371 21.061289 
L 236.105771 21.111701 
L 236.236471 21.325954 
L 236.410738 21.250335 
L 236.541438 21.250335 
L 236.715704 21.199923 
L 236.933537 21.313351 
L 237.064238 21.325954 
L 237.151371 21.300748 
L 237.369204 21.439382 
L 237.674171 21.300748 
L 237.892004 21.313351 
L 237.892004 21.313351 
" style="fill:none;stroke:#d55e00;stroke-linecap:round;stroke-width:2;"/>
   </g>
   <g id="line2d_10">
    <path clip-path="url(#pf3d51220ab)" d="M 54.824871 100.36 
L 54.868438 100.36 
L 55.957604 96.399766 
L 56.785371 93.476736 
L 58.963704 86.377158 
L 60.314271 82.477936 
L 60.924204 80.619843 
L 61.142038 80.092921 
L 61.795538 78.284747 
L 61.882671 78.129444 
L 63.102538 75.08439 
L 63.494638 74.063826 
L 63.843171 72.987796 
L 64.453104 71.578973 
L 64.845204 70.613874 
L 65.411571 69.227238 
L 65.847237 68.350883 
L 66.718571 66.587082 
L 68.243404 63.175956 
L 68.461237 62.809884 
L 69.332571 61.412154 
L 69.986071 60.164181 
L 70.203904 59.892401 
L 70.552438 59.17135 
L 70.726704 58.838557 
L 70.944537 58.54459 
L 71.118804 58.339368 
L 71.554471 57.518479 
L 71.815871 57.102488 
L 72.077271 56.631032 
L 72.556504 56.032005 
L 72.687204 55.871155 
L 73.297138 55.066906 
L 73.602104 54.623182 
L 73.776371 54.229377 
L 73.950638 54.051888 
L 76.521071 50.607483 
L 76.869604 50.030642 
L 77.261704 49.66457 
L 77.523104 49.243032 
L 77.610237 49.143195 
L 77.828071 48.860321 
L 78.263737 48.466516 
L 81.574804 44.76697 
L 81.618371 44.822435 
L 81.661938 44.75033 
L 81.879771 44.434177 
L 83.186771 43.319321 
L 83.622438 42.786853 
L 84.363071 42.259931 
L 84.973004 41.938231 
L 85.234404 41.738556 
L 85.495804 41.41131 
L 85.713638 41.111796 
L 85.931471 40.978679 
L 86.584971 40.340826 
L 86.759237 40.307547 
L 87.107771 40.019126 
L 87.238471 39.963661 
L 87.456304 39.780625 
L 87.543438 39.763985 
L 87.848404 39.453379 
L 88.501904 38.926457 
L 88.937571 38.543745 
L 89.198971 38.305244 
L 89.591071 37.706217 
L 89.721771 37.689577 
L 90.026737 37.423343 
L 90.593104 37.057271 
L 90.854504 36.846502 
L 91.725838 35.997881 
L 93.076404 35.249097 
L 93.250671 35.054968 
L 93.642771 35.066061 
L 93.773471 34.949583 
L 93.947737 34.960677 
L 94.122004 34.888571 
L 94.296271 34.910758 
L 94.557671 34.79428 
L 94.688371 34.883025 
L 94.731938 34.833106 
L 94.906204 34.816466 
L 95.995371 34.117602 
L 96.126071 34.134241 
L 96.561737 33.729343 
L 96.648871 33.712704 
L 96.866704 33.5574 
L 96.953838 33.5574 
L 97.128104 33.474202 
L 98.217271 32.780884 
L 98.478671 32.753151 
L 98.652938 32.681046 
L 99.001471 32.703232 
L 99.219304 32.653313 
L 99.437138 32.769791 
L 99.698537 32.703232 
L 99.916371 32.669953 
L 100.134204 32.575662 
L 100.264904 32.509103 
L 100.395604 32.542383 
L 100.569871 32.414812 
L 102.094704 32.137485 
L 102.268971 32.087566 
L 102.878904 31.776959 
L 103.009604 31.793599 
L 103.401704 31.510725 
L 103.619537 31.316596 
L 103.793804 31.227851 
L 104.578004 30.717569 
L 104.795838 30.512347 
L 105.275071 30.551173 
L 105.492904 30.517893 
L 105.667171 30.357043 
L 105.928571 30.240566 
L 106.189971 30.1851 
L 106.756338 29.641539 
L 106.974171 29.558341 
L 107.104871 29.569434 
L 107.235571 29.491782 
L 107.627671 29.28656 
L 107.671237 29.181176 
L 107.758371 29.225548 
L 107.932638 29.258827 
L 108.106904 29.231095 
L 108.237604 29.175629 
L 108.324737 29.192269 
L 108.411871 29.053605 
L 108.455438 29.081338 
L 109.196071 28.853929 
L 109.283204 28.898302 
L 109.326771 28.842836 
L 109.501037 28.698626 
L 110.415938 28.615428 
L 110.633771 28.399113 
L 110.720904 28.498951 
L 110.764471 28.454578 
L 110.895171 28.349194 
L 111.069438 28.471218 
L 111.200138 28.432392 
L 111.374404 28.360287 
L 112.768537 28.443485 
L 113.770571 27.92211 
L 114.075537 27.955389 
L 114.424071 27.855551 
L 114.554771 27.90547 
L 114.729037 27.944296 
L 114.903304 27.999761 
L 115.208271 27.949842 
L 115.426104 27.899924 
L 115.600371 27.783446 
L 116.384571 27.60041 
L 116.558838 27.511665 
L 116.689537 27.434014 
L 118.301504 27.067942 
L 118.475771 27.140047 
L 119.259971 26.840533 
L 119.521371 26.746242 
L 119.652071 26.801707 
L 119.957037 26.646404 
L 120.131304 26.757335 
L 120.654104 26.646404 
L 120.871938 26.513287 
L 121.046204 26.413449 
L 121.220471 26.324704 
L 121.743271 26.169401 
L 121.873971 26.152762 
L 122.222504 26.097296 
L 122.396771 26.09175 
L 122.571037 25.986365 
L 122.832438 25.792236 
L 123.355237 25.781143 
L 123.485938 25.831062 
L 123.878037 25.697945 
L 124.008737 25.781143 
L 124.095871 25.631386 
L 124.183004 25.758957 
L 125.141471 25.315233 
L 125.272171 25.215395 
L 125.402871 25.198756 
L 125.490004 25.15993 
L 125.707838 25.104464 
L 128.234704 24.893696 
L 128.452537 24.871509 
L 128.583237 24.843777 
L 128.844638 24.882603 
L 128.975338 24.904789 
L 129.193171 24.915882 
L 129.280304 24.860416 
L 129.541704 24.69402 
L 129.672404 24.655194 
L 130.282338 24.555356 
L 130.718004 24.377867 
L 131.066537 24.416693 
L 131.197237 24.416693 
L 131.415071 24.383413 
L 131.676471 24.327948 
L 131.807171 24.327948 
L 132.025004 24.283576 
L 133.506271 23.978516 
L 133.593404 23.995155 
L 133.724104 23.989609 
L 133.854804 23.984062 
L 133.941938 23.889771 
L 133.985504 23.934143 
L 134.116204 23.950783 
L 134.334037 24.017341 
L 134.464738 23.995155 
L 134.595438 24.028434 
L 134.726138 24.189284 
L 135.074671 24.205924 
L 135.379638 24.178191 
L 135.597471 24.089446 
L 136.860904 24.139365 
L 137.035171 24.061714 
L 137.340138 23.911957 
L 137.470838 23.867585 
L 137.732237 23.850945 
L 139.126371 23.934143 
L 139.213504 23.945236 
L 139.431338 24.045074 
L 139.997704 24.144912 
L 140.171971 24.017341 
L 140.738338 23.773293 
L 140.869037 23.79548 
L 141.566104 24.078353 
L 141.740371 23.995155 
L 143.613738 23.961876 
L 143.831571 23.784386 
L 144.049404 23.867585 
L 144.964304 23.978516 
L 145.225704 24.078353 
L 145.487104 23.92305 
L 147.316904 23.784386 
L 147.534738 23.884224 
L 148.057537 23.606897 
L 148.754604 23.79548 
L 148.928871 23.745561 
L 149.233838 23.79548 
L 149.408104 23.684549 
L 149.582371 23.784386 
L 149.669504 23.706735 
L 149.713071 23.740014 
L 149.930904 23.712281 
L 150.018037 23.77884 
L 150.061604 23.723374 
L 150.366571 23.534792 
L 150.497271 23.595804 
L 150.627971 23.590257 
L 150.802238 23.507059 
L 150.845804 23.584711 
L 150.889371 23.484873 
L 151.630004 23.47378 
L 151.891404 23.446047 
L 152.152804 23.545885 
L 152.327071 23.60135 
L 152.544904 23.484873 
L 152.675604 23.462687 
L 152.762738 23.440501 
L 153.024138 23.301837 
L 153.416237 23.218639 
L 153.546938 23.279651 
L 153.590504 23.207546 
L 153.634071 23.263011 
L 153.939037 23.468233 
L 154.331138 23.507059 
L 154.461838 23.529245 
L 155.202471 23.690095 
L 155.289604 23.595804 
L 155.333171 23.645723 
L 155.594571 23.551432 
L 155.725271 23.47378 
L 155.899537 23.318477 
L 155.943104 23.362849 
L 155.986671 23.31293 
L 156.117371 23.318477 
L 156.770871 23.529245 
L 156.945138 23.584711 
L 157.075838 23.579164 
L 157.337238 23.573618 
L 157.598638 23.717828 
L 157.729338 23.701188 
L 157.860037 23.63463 
L 158.165004 23.540338 
L 158.382838 23.573618 
L 158.557104 23.606897 
L 158.644238 23.706735 
L 158.687804 23.606897 
L 158.774938 23.584711 
L 158.905638 23.706735 
L 159.036338 23.556978 
L 159.079904 23.595804 
L 159.341304 23.584711 
L 159.646271 23.49042 
L 159.733404 23.551432 
L 159.776971 23.501513 
L 159.907671 23.501513 
L 160.081938 23.440501 
L 160.343338 23.373942 
L 160.866138 23.423861 
L 160.996838 23.362849 
L 161.388938 23.307383 
L 162.521671 23.113254 
L 162.739504 23.091068 
L 163.000904 22.969044 
L 163.131604 22.952405 
L 163.436571 22.924672 
L 163.610838 22.946858 
L 163.785104 22.980137 
L 163.915804 23.02451 
L 164.743571 23.074429 
L 164.961404 22.919125 
L 165.266371 22.913579 
L 165.440638 22.969044 
L 165.571338 22.941311 
L 165.789171 22.946858 
L 165.919871 22.969044 
L 166.355537 22.902486 
L 166.529804 23.030056 
L 166.965471 23.063335 
L 167.270438 23.096615 
L 167.575404 23.207546 
L 167.793238 23.401675 
L 168.141771 23.357302 
L 168.316037 23.451594 
L 169.143804 23.556978 
L 169.448771 23.629083 
L 169.535904 23.61799 
L 169.579471 23.734468 
L 169.623037 23.706735 
L 169.797304 23.606897 
L 170.189404 23.63463 
L 170.407238 23.551432 
L 170.494371 23.684549 
L 170.537938 23.606897 
L 170.712204 23.545885 
L 171.888504 23.534792 
L 171.975638 23.412768 
L 172.019204 23.47378 
L 172.454871 23.612444 
L 172.542004 23.684549 
L 172.585571 23.645723 
L 172.759838 23.595804 
L 173.021238 23.623537 
L 173.064804 23.673456 
L 173.108371 23.629083 
L 173.282638 23.61799 
L 173.500471 23.63463 
L 173.761871 23.60135 
L 173.849004 23.740014 
L 173.892571 23.695642 
L 174.066838 23.61799 
L 174.633204 23.545885 
L 174.763904 23.579164 
L 175.068871 23.579164 
L 175.199571 23.584711 
L 175.504537 23.418314 
L 175.678804 23.551432 
L 175.896638 23.584711 
L 176.027338 23.584711 
L 176.332304 23.584711 
L 176.506571 23.673456 
L 176.942238 23.545885 
L 177.029371 23.640176 
L 177.072938 23.551432 
L 177.247204 23.61799 
L 177.290771 23.556978 
L 177.334338 23.606897 
L 177.595738 23.695642 
L 179.077004 23.629083 
L 179.207704 23.640176 
L 179.381971 23.645723 
L 179.730504 23.63463 
L 179.861204 23.695642 
L 180.122604 23.712281 
L 181.647438 23.812119 
L 181.778138 23.867585 
L 181.952404 23.90641 
L 182.126671 23.873131 
L 182.562338 23.695642 
L 182.693037 23.789933 
L 182.736604 23.751107 
L 183.041571 23.63463 
L 183.259404 23.828759 
L 183.390104 23.850945 
L 183.695071 23.767747 
L 183.825771 23.717828 
L 184.305004 23.695642 
L 184.740671 23.745561 
L 184.914938 23.662362 
L 185.045638 23.656816 
L 185.786271 23.396128 
L 186.091238 23.512606 
L 186.309071 23.429407 
L 186.483338 23.462687 
L 187.049704 23.507059 
L 187.223971 23.307383 
L 187.485371 23.446047 
L 188.226004 23.712281 
L 189.576571 23.63463 
L 189.750838 23.623537 
L 190.012237 23.606897 
L 190.186504 23.629083 
L 190.535037 23.396128 
L 190.709304 23.318477 
L 190.970704 23.257465 
L 191.885604 23.274104 
L 192.103438 23.257465 
L 192.277704 23.251918 
L 192.539104 23.063335 
L 192.800504 23.157627 
L 193.105471 22.980137 
L 193.279738 22.902486 
L 193.541138 23.046696 
L 193.889671 23.046696 
L 194.151071 23.190906 
L 194.630304 23.068882 
L 194.848138 23.135441 
L 195.283804 23.085522 
L 195.414504 22.985684 
L 195.675904 23.091068 
L 195.893738 23.068882 
L 196.068004 23.035603 
L 196.329404 22.969044 
L 196.503671 22.996777 
L 196.721504 23.00787 
L 197.157171 23.135441 
L 197.331438 23.085522 
L 197.505704 23.174266 
L 197.767104 23.257465 
L 198.289904 23.257465 
L 198.551304 23.057789 
L 198.638438 23.113254 
L 198.682004 23.068882 
L 199.291938 23.201999 
L 199.422638 23.113254 
L 199.553338 23.079975 
L 199.727604 22.957951 
L 199.858304 22.86366 
L 200.381104 23.052242 
L 200.598938 22.969044 
L 201.165304 22.880299 
L 201.296004 22.941311 
L 201.470271 23.00787 
L 201.644537 22.930218 
L 201.862371 22.663984 
L 201.993071 22.675077 
L 202.123771 22.697263 
L 202.254471 22.774915 
L 202.428738 22.919125 
L 202.603004 22.930218 
L 202.820838 22.919125 
L 203.169371 22.902486 
L 203.692171 22.919125 
L 203.910004 22.980137 
L 204.127838 22.980137 
L 204.737771 22.869206 
L 205.260571 22.841474 
L 205.347704 22.935765 
L 205.391271 22.880299 
L 205.826938 22.819287 
L 206.044771 22.930218 
L 206.741838 23.163173 
L 207.046804 23.196453 
L 208.963738 23.030056 
L 209.138004 23.068882 
L 209.486537 23.018963 
L 209.747938 23.085522 
L 211.795571 23.501513 
L 211.926271 23.529245 
L 212.100537 23.61799 
L 212.231238 23.534792 
L 212.623338 23.640176 
L 212.754037 23.679002 
L 213.015438 23.690095 
L 213.363971 23.623537 
L 214.583838 23.518152 
L 214.758104 23.606897 
L 215.193771 23.495966 
L 215.455171 23.362849 
L 215.673004 23.285197 
L 216.021537 23.523699 
L 217.023571 23.629083 
L 217.154271 23.612444 
L 217.328537 23.562525 
L 217.546371 23.706735 
L 217.720638 23.751107 
L 218.025604 23.917504 
L 218.243438 23.828759 
L 218.374138 23.845398 
L 218.722671 23.562525 
L 219.245471 23.479326 
L 219.419738 23.540338 
L 219.811838 23.684549 
L 219.855404 23.728921 
L 219.898971 23.651269 
L 220.029671 23.545885 
L 220.247504 23.562525 
L 220.770304 23.590257 
L 221.075271 23.684549 
L 221.336671 23.645723 
L 221.423804 23.740014 
L 221.598071 23.7622 
L 222.382271 23.679002 
L 222.469404 23.63463 
L 222.512971 23.690095 
L 224.299204 23.118801 
L 225.170537 23.390582 
L 225.344804 23.346209 
L 225.562638 23.484873 
L 226.041871 23.185359 
L 226.216138 23.124347 
L 226.477537 23.185359 
L 226.738938 23.041149 
L 227.131037 22.902486 
L 227.348871 22.969044 
L 227.566704 23.035603 
L 228.350904 22.952405 
L 228.438037 22.974591 
L 228.699438 23.107708 
L 229.004404 23.102161 
L 229.309371 23.079975 
L 229.352938 23.030056 
L 229.396504 23.079975 
L 229.483638 23.15208 
L 229.527204 23.085522 
L 229.788604 23.129894 
L 230.006438 23.213092 
L 230.224271 22.957951 
L 230.398538 22.941311 
L 230.703504 23.157627 
L 231.052037 23.318477 
L 231.095604 23.268558 
L 231.139171 23.324023 
L 231.226304 23.357302 
L 231.269871 23.318477 
L 231.836238 23.29629 
L 232.097638 23.135441 
L 232.228338 23.146534 
L 232.359037 23.301837 
L 232.402604 23.246371 
L 232.533304 23.290744 
L 232.664004 23.29629 
L 233.056104 23.213092 
L 233.230371 23.163173 
L 233.448204 23.00787 
L 233.666037 23.102161 
L 233.883871 23.079975 
L 233.971004 23.113254 
L 234.014571 23.079975 
L 234.232404 23.113254 
L 234.493804 23.318477 
L 234.711638 23.15208 
L 234.929471 23.013417 
L 235.103738 23.041149 
L 235.321571 23.163173 
L 235.582971 23.052242 
L 235.713671 22.980137 
L 235.757238 23.046696 
L 236.280037 23.096615 
L 236.454304 23.00787 
L 236.628571 23.018963 
L 236.933537 23.085522 
L 237.369204 22.896939 
L 237.630604 23.018963 
L 237.892004 23.018963 
L 237.892004 23.018963 
" style="fill:none;stroke:#cc78bc;stroke-linecap:round;stroke-width:2;"/>
   </g>
   <g id="line2d_11">
    <path clip-path="url(#pf3d51220ab)" d="M 54.824871 100.36 
L 54.868438 100.36 
L 56.219004 94.365476 
L 60.009304 79.498227 
L 60.793504 76.875407 
L 61.142038 75.746904 
L 61.316304 75.184379 
L 61.839104 73.538214 
L 63.886737 67.86464 
L 64.191704 67.091598 
L 64.888771 65.186603 
L 66.282904 61.835605 
L 67.284938 59.564795 
L 67.589904 58.943601 
L 68.112704 57.704663 
L 68.417671 56.95923 
L 70.944537 51.758454 
L 71.118804 51.509977 
L 71.554471 50.830114 
L 71.859438 50.364218 
L 73.166438 48.393652 
L 74.255604 46.844118 
L 74.647704 46.264336 
L 74.909104 45.950288 
L 75.562604 44.956377 
L 76.172537 44.321379 
L 76.346804 44.13157 
L 76.521071 43.883092 
L 77.087438 43.185974 
L 77.915204 42.047118 
L 78.133037 41.753776 
L 78.481571 41.474239 
L 78.742971 41.111875 
L 79.614304 40.176633 
L 79.745004 40.107611 
L 80.137104 39.714188 
L 80.659904 39.317314 
L 81.095571 38.834163 
L 81.923338 38.040415 
L 85.190838 35.086291 
L 85.713638 34.585885 
L 85.931471 34.50651 
L 86.105737 34.375369 
L 87.761271 33.612681 
L 89.416804 32.428961 
L 89.547504 32.384097 
L 89.896037 32.173581 
L 90.157438 32.118364 
L 90.636671 31.907848 
L 90.767371 31.894043 
L 91.028771 31.821571 
L 93.250671 30.499807 
L 93.468504 30.282389 
L 93.599204 30.285841 
L 93.904171 30.199564 
L 94.034871 30.130542 
L 94.644804 29.933831 
L 95.603271 29.509348 
L 95.864671 29.457582 
L 96.082504 29.354049 
L 96.256771 29.281577 
L 96.474604 29.178044 
L 100.787704 27.542233 
L 100.918404 27.535331 
L 101.092671 27.449054 
L 101.223371 27.390385 
L 101.746171 27.290304 
L 102.007571 27.228185 
L 102.268971 27.145359 
L 102.443237 27.14881 
L 102.661071 26.99006 
L 104.360171 26.544871 
L 104.447304 26.531067 
L 104.708704 26.465496 
L 104.839404 26.465496 
L 105.013671 26.368866 
L 105.536471 26.265334 
L 105.928571 26.261882 
L 106.059271 26.258431 
L 106.233537 26.251529 
L 106.451371 26.154899 
L 106.582071 26.110035 
L 106.756338 26.12729 
L 106.887037 26.116937 
L 107.192004 25.944383 
L 107.845504 25.951285 
L 108.237604 25.954736 
L 108.542571 25.916775 
L 108.803971 25.961639 
L 109.108938 25.816693 
L 109.239638 25.758025 
L 109.457471 25.847753 
L 109.588171 25.868459 
L 109.849571 25.861557 
L 110.154537 25.809791 
L 110.285237 25.778731 
L 110.590204 25.720063 
L 110.720904 25.726965 
L 110.895171 25.713161 
L 111.025871 25.730416 
L 111.156571 25.70971 
L 112.115037 25.561313 
L 112.245737 25.544058 
L 112.420004 25.537156 
L 113.247771 25.19895 
L 113.770571 25.181695 
L 114.075537 25.112673 
L 114.336938 25.126477 
L 114.816171 24.902157 
L 115.077571 24.991885 
L 117.212338 24.588109 
L 117.648004 24.639875 
L 117.822271 24.588109 
L 118.040104 24.691641 
L 118.388638 24.612267 
L 118.606471 24.5605 
L 118.780737 24.567403 
L 119.172838 24.598462 
L 119.869904 24.312023 
L 120.087738 24.312023 
L 120.523404 24.27061 
L 120.697671 24.222295 
L 121.394737 23.953111 
L 121.743271 24.011779 
L 122.048237 24.094605 
L 122.788871 24.001426 
L 122.919571 24.018681 
L 123.050271 24.004877 
L 123.573071 23.935855 
L 123.790904 23.815067 
L 125.141471 23.721888 
L 125.359304 23.697731 
L 125.577138 23.763301 
L 125.838537 23.721888 
L 126.056371 23.635611 
L 126.927704 23.421644 
L 127.014838 23.366427 
L 127.058404 23.411291 
L 127.799037 23.435449 
L 127.973304 23.431998 
L 128.191138 23.366427 
L 128.452537 23.369878 
L 128.626804 23.366427 
L 128.975338 23.362976 
L 129.367438 23.373329 
L 129.628838 23.31121 
L 131.720037 23.380231 
L 131.981438 23.369878 
L 132.242838 23.411291 
L 133.854804 23.121401 
L 134.900404 23.362976 
L 135.074671 23.304308 
L 135.641037 23.366427 
L 136.425238 23.331916 
L 136.643071 23.325014 
L 137.078737 23.297406 
L 137.427271 23.404389 
L 137.601537 23.345721 
L 138.603571 23.394036 
L 139.518471 23.366427 
L 139.823438 23.352623 
L 140.520504 23.40784 
L 143.003804 23.501019 
L 143.308771 23.563139 
L 143.657304 23.445802 
L 143.962271 23.356074 
L 144.180104 23.4389 
L 144.310804 23.431998 
L 144.572204 23.532079 
L 145.879204 23.31121 
L 146.097037 23.421644 
L 146.445571 23.497568 
L 147.142638 23.373329 
L 147.621871 23.397487 
L 148.013971 23.335367 
L 148.101104 23.318112 
L 148.275371 23.304308 
L 148.798171 23.290503 
L 149.190271 23.307759 
L 149.408104 23.252542 
L 149.669504 23.218031 
L 150.584404 23.21458 
L 150.715104 23.204226 
L 150.802238 23.273248 
L 150.845804 23.211129 
L 151.325037 23.121401 
L 152.022104 23.283601 
L 152.283504 23.262895 
L 152.588471 23.173167 
L 152.980571 23.052379 
L 153.329104 23.052379 
L 153.590504 22.979906 
L 154.287571 22.879825 
L 154.505404 22.883276 
L 154.636104 22.841863 
L 154.810371 22.824608 
L 155.202471 22.838412 
L 155.507438 22.810803 
L 155.812404 22.869472 
L 155.943104 22.903983 
L 156.160938 22.955749 
L 157.903604 22.786646 
L 158.382838 22.824608 
L 161.737471 22.931591 
L 162.608804 22.962651 
L 162.870204 22.848765 
L 163.131604 22.869472 
L 163.523704 22.83151 
L 163.654404 22.828059 
L 164.482171 22.879825 
L 164.700004 23.05583 
L 165.004971 22.966102 
L 165.266371 22.979906 
L 165.527771 22.924689 
L 165.702037 22.962651 
L 167.662537 22.86257 
L 167.923938 22.790097 
L 168.490304 22.955749 
L 168.664571 22.948847 
L 171.322138 23.059281 
L 171.583537 23.017868 
L 171.975638 22.966102 
L 172.367738 23.048928 
L 174.938171 22.976455 
L 175.112438 22.914336 
L 175.417404 22.945396 
L 176.114471 22.838412 
L 176.332304 22.976455 
L 176.506571 22.99026 
L 176.855104 22.969553 
L 177.160071 22.941944 
L 177.334338 22.979906 
L 177.465037 23.02477 
L 177.682871 23.073085 
L 177.987838 23.010966 
L 178.205671 22.955749 
L 178.336371 22.903983 
L 178.510638 22.973004 
L 178.946304 22.938493 
L 179.164138 22.817706 
L 179.469104 22.807352 
L 179.991904 22.810803 
L 180.601838 23.045477 
L 180.776104 23.128303 
L 180.993938 23.169716 
L 182.083104 23.176618 
L 182.213804 23.197324 
L 182.431638 23.18352 
L 182.605904 23.218031 
L 182.823738 23.221482 
L 183.259404 23.200775 
L 183.520804 23.145558 
L 183.695071 23.262895 
L 183.869338 23.221482 
L 184.522838 23.093792 
L 184.653537 23.079988 
L 184.958504 23.014417 
L 185.263471 22.979906 
L 185.481304 23.104145 
L 185.655571 23.135205 
L 185.873404 23.117949 
L 186.134804 22.983357 
L 187.136838 23.114498 
L 187.833904 23.197324 
L 188.008171 23.300857 
L 188.182438 23.266346 
L 188.400271 23.293954 
L 188.661671 23.369878 
L 189.097338 23.142107 
L 189.315171 23.117949 
L 189.533004 23.100694 
L 189.881537 23.238737 
L 190.230071 23.207678 
L 190.447904 23.238737 
L 190.578604 23.231835 
L 190.665738 23.218031 
L 190.796438 23.224933 
L 191.188537 23.186971 
L 191.711338 23.218031 
L 192.277704 23.149009 
L 192.451971 23.128303 
L 192.844071 22.993711 
L 192.974771 23.052379 
L 193.236171 23.117949 
L 193.454004 23.117949 
L 193.628271 23.173167 
L 193.889671 23.180069 
L 194.151071 23.128303 
L 194.325338 23.114498 
L 194.586737 23.073085 
L 196.677938 22.848765 
L 196.939338 22.755586 
L 197.157171 22.707271 
L 198.899838 22.627896 
L 199.030537 22.617543 
L 200.163271 22.686565 
L 200.511804 22.724526 
L 200.947471 22.786646 
L 202.690138 22.676211 
L 202.864404 22.700369 
L 204.519938 22.610641 
L 204.650638 22.593385 
L 205.042738 22.721075 
L 205.478404 22.824608 
L 205.783371 22.893629 
L 205.957638 22.866021 
L 206.436871 22.945396 
L 206.741838 22.855667 
L 206.959671 22.786646 
L 207.308204 22.793548 
L 208.005271 22.824608 
L 208.223104 22.866021 
L 208.571638 22.852216 
L 208.745904 22.841863 
L 209.050871 22.790097 
L 211.054938 22.848765 
L 211.316338 22.772842 
L 211.534171 22.772842 
L 212.100537 22.790097 
L 212.666904 22.776293 
L 212.797604 22.783195 
L 212.971871 22.776293 
L 213.276838 22.759037 
L 213.973904 22.738331 
L 214.104604 22.721075 
L 215.237338 22.824608 
L 215.542304 22.893629 
L 215.760138 22.793548 
L 215.934404 22.783195 
L 216.718604 22.610641 
L 216.892871 22.634798 
L 217.415671 22.527815 
L 217.589938 22.486402 
L 217.720638 22.476049 
L 217.894904 22.500206 
L 218.112738 22.54507 
L 218.243438 22.565777 
L 218.417704 22.589934 
L 218.548404 22.579581 
L 219.158338 22.586483 
L 219.332604 22.593385 
L 219.724704 22.658956 
L 219.986104 22.655505 
L 220.116804 22.700369 
L 220.291071 22.700369 
L 220.465338 22.748684 
L 220.683171 22.690016 
L 221.990171 22.70382 
L 222.164438 22.665858 
L 222.556537 22.555424 
L 225.824038 22.44844 
L 226.129004 22.372516 
L 226.346838 22.331103 
L 226.564671 22.362163 
L 226.956771 22.493304 
L 227.305304 22.420831 
L 227.653838 22.444989 
L 227.784537 22.438087 
L 228.307338 22.538168 
L 228.438037 22.54507 
L 229.222238 22.679662 
L 229.440071 22.67276 
L 229.962871 22.690016 
L 230.137138 22.683114 
L 231.008471 22.724526 
L 231.269871 22.690016 
L 231.487704 22.652054 
L 231.879804 22.569228 
L 232.184771 22.665858 
L 232.402604 22.600288 
L 232.838271 22.572679 
L 233.840304 22.620994 
L 234.014571 22.610641 
L 236.105771 22.707271 
L 236.497871 22.838412 
L 237.804871 22.935042 
L 237.892004 22.914336 
L 237.892004 22.914336 
" style="fill:none;stroke:#ca9161;stroke-linecap:round;stroke-width:2;"/>
   </g>
   <g id="patch_3">
    <path d="M 54.868438 100.36 
L 54.868438 7.2 
" style="fill:none;stroke:#262626;stroke-linecap:square;stroke-linejoin:miter;stroke-width:0.8;"/>
   </g>
   <g id="patch_4">
    <path d="M 54.868438 100.36 
L 237.848438 100.36 
" style="fill:none;stroke:#262626;stroke-linecap:square;stroke-linejoin:miter;stroke-width:0.8;"/>
   </g>
   <g id="text_10">
    <!-- P=144 -->
    <g style="fill:#262626;" transform="translate(109.762438 49.122)scale(0.1 -0.1)">
     <defs>
      <path d="M 52.828125 42.09375 
L 5.5625 42.09375 
L 5.5625 50.296875 
L 52.828125 50.296875 
z
M 52.828125 20.359375 
L 5.5625 20.359375 
L 5.5625 28.5625 
L 52.828125 28.5625 
z
" id="ArialMT-61"/>
      <path d="M 32.328125 0 
L 32.328125 17.140625 
L 1.265625 17.140625 
L 1.265625 25.203125 
L 33.9375 71.578125 
L 41.109375 71.578125 
L 41.109375 25.203125 
L 50.78125 25.203125 
L 50.78125 17.140625 
L 41.109375 17.140625 
L 41.109375 0 
z
M 32.328125 25.203125 
L 32.328125 57.46875 
L 9.90625 25.203125 
z
" id="ArialMT-52"/>
     </defs>
     <use xlink:href="#ArialMT-80"/>
     <use x="66.699219" xlink:href="#ArialMT-61"/>
     <use x="125.097656" xlink:href="#ArialMT-49"/>
     <use x="180.712891" xlink:href="#ArialMT-52"/>
     <use x="236.328125" xlink:href="#ArialMT-52"/>
    </g>
   </g>
   <g id="legend_1">
    <g id="patch_5">
     <path d="M 79.745038 96.195 
L 232.017438 96.195 
Q 233.683438 96.195 233.683438 94.529 
L 233.683438 54.0452 
Q 233.683438 52.3792 232.017438 52.3792 
L 79.745038 52.3792 
Q 78.079038 52.3792 78.079038 54.0452 
L 78.079038 94.529 
Q 78.079038 96.195 79.745038 96.195 
z
" style="fill:#ffffff;opacity:0.8;stroke:#cccccc;stroke-linejoin:miter;"/>
    </g>
    <g id="line2d_12">
     <path d="M 81.411038 60.376 
L 98.071038 60.376 
" style="fill:none;stroke:#d55e00;stroke-linecap:round;stroke-width:2;"/>
    </g>
    <g id="line2d_13"/>
    <g id="text_11">
     <!-- $\langle B \rangle=41$, $\langle U/A_{spine} \rangle$=11.1 $\#/ \mu m^2$ -->
     <g style="fill:#262626;" transform="translate(104.735038 63.2915)scale(0.0833 -0.0833)">
      <defs>
       <path d="M 8.9375 31.34375 
L 22.703125 75.875 
L 31 75.875 
L 17.234375 31.34375 
L 31 -13.1875 
L 22.703125 -13.1875 
z
" id="DejaVuSans-10216"/>
       <path d="M 16.890625 72.90625 
L 42.09375 72.90625 
Q 52.34375 72.90625 57.421875 69.09375 
Q 62.5 65.28125 62.5 57.625 
Q 62.5 50.59375 58.125 45.484375 
Q 53.765625 40.375 46.6875 39.3125 
Q 52.734375 37.9375 55.765625 34.078125 
Q 58.796875 30.21875 58.796875 23.78125 
Q 58.796875 12.796875 50.65625 6.390625 
Q 42.53125 0 28.421875 0 
L 2.6875 0 
z
M 19.28125 34.8125 
L 14.109375 8.109375 
L 29.984375 8.109375 
Q 38.921875 8.109375 43.75 12.203125 
Q 48.578125 16.3125 48.578125 23.78125 
Q 48.578125 29.546875 45.375 32.171875 
Q 42.1875 34.8125 35.109375 34.8125 
z
M 25.09375 64.796875 
L 20.796875 42.828125 
L 35.5 42.828125 
Q 43.359375 42.828125 47.78125 46.234375 
Q 52.203125 49.65625 52.203125 55.71875 
Q 52.203125 60.453125 49.21875 62.625 
Q 46.234375 64.796875 39.703125 64.796875 
z
" id="DejaVuSans-Oblique-66"/>
       <path d="M 30.078125 31.34375 
L 16.3125 -13.1875 
L 8.015625 -13.1875 
L 21.78125 31.34375 
L 8.015625 75.875 
L 16.3125 75.875 
z
" id="DejaVuSans-10217"/>
       <path d="M 10.59375 45.40625 
L 73.1875 45.40625 
L 73.1875 37.203125 
L 10.59375 37.203125 
z
M 10.59375 25.484375 
L 73.1875 25.484375 
L 73.1875 17.1875 
L 10.59375 17.1875 
z
" id="DejaVuSans-61"/>
       <path d="M 37.796875 64.3125 
L 12.890625 25.390625 
L 37.796875 25.390625 
z
M 35.203125 72.90625 
L 47.609375 72.90625 
L 47.609375 25.390625 
L 58.015625 25.390625 
L 58.015625 17.1875 
L 47.609375 17.1875 
L 47.609375 0 
L 37.796875 0 
L 37.796875 17.1875 
L 4.890625 17.1875 
L 4.890625 26.703125 
z
" id="DejaVuSans-52"/>
       <path d="M 12.40625 8.296875 
L 28.515625 8.296875 
L 28.515625 63.921875 
L 10.984375 60.40625 
L 10.984375 69.390625 
L 28.421875 72.90625 
L 38.28125 72.90625 
L 38.28125 8.296875 
L 54.390625 8.296875 
L 54.390625 0 
L 12.40625 0 
z
" id="DejaVuSans-49"/>
       <path d="M 8.890625 0 
L 8.890625 10.015625 
L 18.890625 10.015625 
L 18.890625 0 
Q 18.890625 -5.515625 16.9375 -8.90625 
Q 14.984375 -12.3125 10.75 -14.15625 
L 8.296875 -10.40625 
Q 11.078125 -9.1875 12.390625 -6.8125 
Q 13.71875 -4.4375 13.875 0 
z
" id="ArialMT-44"/>
       <path d="M 15.484375 72.90625 
L 25.390625 72.90625 
L 16.796875 28.609375 
Q 16.265625 25.640625 16.046875 23.703125 
Q 15.828125 21.78125 15.828125 20.3125 
Q 15.828125 13.578125 19.578125 10.078125 
Q 23.34375 6.59375 30.609375 6.59375 
Q 40.046875 6.59375 45.28125 11.765625 
Q 50.53125 16.9375 52.78125 28.609375 
L 61.375 72.90625 
L 71.296875 72.90625 
L 62.5 27.390625 
Q 59.625 12.640625 51.5625 5.609375 
Q 43.5 -1.421875 29.5 -1.421875 
Q 18.5625 -1.421875 12.1875 4.078125 
Q 5.8125 9.578125 5.8125 19 
Q 5.8125 20.703125 6.046875 22.828125 
Q 6.296875 24.953125 6.78125 27.390625 
z
" id="DejaVuSans-Oblique-85"/>
       <path d="M 25.390625 72.90625 
L 33.6875 72.90625 
L 8.296875 -9.28125 
L 0 -9.28125 
z
" id="DejaVuSans-47"/>
       <path d="M 36.8125 72.90625 
L 48 72.90625 
L 61.53125 0 
L 51.21875 0 
L 48.1875 18.703125 
L 15.375 18.703125 
L 5.078125 0 
L -5.328125 0 
z
M 40.375 63.1875 
L 19.921875 26.90625 
L 46.6875 26.90625 
z
" id="DejaVuSans-Oblique-65"/>
       <path d="M 50 53.078125 
L 48.296875 44.578125 
Q 44.734375 46.53125 40.765625 47.5 
Q 36.8125 48.484375 32.625 48.484375 
Q 25.53125 48.484375 21.453125 46.0625 
Q 17.390625 43.65625 17.390625 39.5 
Q 17.390625 34.671875 26.859375 32.078125 
Q 27.59375 31.890625 27.9375 31.78125 
L 30.8125 30.90625 
Q 39.796875 28.421875 42.796875 25.6875 
Q 45.796875 22.953125 45.796875 18.21875 
Q 45.796875 9.515625 38.890625 4.046875 
Q 31.984375 -1.421875 20.796875 -1.421875 
Q 16.453125 -1.421875 11.671875 -0.578125 
Q 6.890625 0.25 1.125 2 
L 2.875 11.28125 
Q 7.8125 8.734375 12.59375 7.421875 
Q 17.390625 6.109375 21.78125 6.109375 
Q 28.375 6.109375 32.5 8.9375 
Q 36.625 11.765625 36.625 16.109375 
Q 36.625 20.796875 25.78125 23.6875 
L 24.859375 23.921875 
L 21.78125 24.703125 
Q 14.9375 26.515625 11.765625 29.46875 
Q 8.59375 32.421875 8.59375 37.015625 
Q 8.59375 45.75 15.15625 50.875 
Q 21.734375 56 33.015625 56 
Q 37.453125 56 41.671875 55.265625 
Q 45.90625 54.546875 50 53.078125 
z
" id="DejaVuSans-Oblique-115"/>
       <path d="M 49.609375 33.6875 
Q 49.609375 40.875 46.484375 44.671875 
Q 43.359375 48.484375 37.5 48.484375 
Q 33.5 48.484375 29.859375 46.4375 
Q 26.21875 44.390625 23.390625 40.484375 
Q 20.609375 36.625 18.9375 31.15625 
Q 17.28125 25.6875 17.28125 20.3125 
Q 17.28125 13.484375 20.40625 9.796875 
Q 23.53125 6.109375 29.296875 6.109375 
Q 33.546875 6.109375 37.1875 8.109375 
Q 40.828125 10.109375 43.40625 13.921875 
Q 46.1875 17.921875 47.890625 23.34375 
Q 49.609375 28.765625 49.609375 33.6875 
z
M 21.78125 46.390625 
Q 25.390625 51.125 30.296875 53.5625 
Q 35.203125 56 41.21875 56 
Q 49.609375 56 54.25 50.5 
Q 58.890625 45.015625 58.890625 35.109375 
Q 58.890625 27 56 19.65625 
Q 53.125 12.3125 47.703125 6.5 
Q 44.09375 2.640625 39.546875 0.609375 
Q 35.015625 -1.421875 29.984375 -1.421875 
Q 24.171875 -1.421875 20.21875 1 
Q 16.265625 3.421875 14.3125 8.203125 
L 8.6875 -20.796875 
L -0.296875 -20.796875 
L 14.40625 54.6875 
L 23.390625 54.6875 
z
" id="DejaVuSans-Oblique-112"/>
       <path d="M 18.3125 75.984375 
L 27.296875 75.984375 
L 25.09375 64.59375 
L 16.109375 64.59375 
z
M 14.203125 54.6875 
L 23.1875 54.6875 
L 12.5 0 
L 3.515625 0 
z
" id="DejaVuSans-Oblique-105"/>
       <path d="M 55.71875 33.015625 
L 49.3125 0 
L 40.28125 0 
L 46.6875 32.671875 
Q 47.125 34.96875 47.359375 36.71875 
Q 47.609375 38.484375 47.609375 39.5 
Q 47.609375 43.609375 45.015625 45.890625 
Q 42.4375 48.1875 37.796875 48.1875 
Q 30.5625 48.1875 25.34375 43.375 
Q 20.125 38.578125 18.5 30.328125 
L 12.5 0 
L 3.515625 0 
L 14.109375 54.6875 
L 23.09375 54.6875 
L 21.296875 46.09375 
Q 25.046875 50.828125 30.3125 53.40625 
Q 35.59375 56 41.40625 56 
Q 48.640625 56 52.609375 52.09375 
Q 56.59375 48.1875 56.59375 41.109375 
Q 56.59375 39.359375 56.375 37.359375 
Q 56.15625 35.359375 55.71875 33.015625 
z
" id="DejaVuSans-Oblique-110"/>
       <path d="M 48.09375 32.234375 
Q 48.25 33.015625 48.3125 33.84375 
Q 48.390625 34.671875 48.390625 35.5 
Q 48.390625 41.453125 44.890625 44.921875 
Q 41.40625 48.390625 35.40625 48.390625 
Q 28.71875 48.390625 23.578125 44.15625 
Q 18.453125 39.9375 15.828125 32.171875 
z
M 55.90625 25.203125 
L 14.109375 25.203125 
Q 13.8125 23.34375 13.71875 22.265625 
Q 13.625 21.1875 13.625 20.40625 
Q 13.625 13.625 17.796875 9.90625 
Q 21.96875 6.203125 29.59375 6.203125 
Q 35.453125 6.203125 40.671875 7.515625 
Q 45.90625 8.84375 50.390625 11.375 
L 48.6875 2.484375 
Q 43.84375 0.53125 38.6875 -0.4375 
Q 33.546875 -1.421875 28.21875 -1.421875 
Q 16.84375 -1.421875 10.71875 4.015625 
Q 4.59375 9.46875 4.59375 19.484375 
Q 4.59375 28.03125 7.640625 35.375 
Q 10.6875 42.71875 16.609375 48.484375 
Q 20.40625 52.09375 25.65625 54.046875 
Q 30.90625 56 36.8125 56 
Q 46.09375 56 51.578125 50.4375 
Q 57.078125 44.875 57.078125 35.5 
Q 57.078125 33.25 56.78125 30.6875 
Q 56.5 28.125 55.90625 25.203125 
z
" id="DejaVuSans-Oblique-101"/>
       <path d="M 9.078125 0 
L 9.078125 10.015625 
L 19.09375 10.015625 
L 19.09375 0 
z
" id="ArialMT-46"/>
       <path d="M 51.125 44 
L 36.921875 44 
L 32.8125 27.6875 
L 47.125 27.6875 
z
M 43.796875 71.78125 
L 38.71875 51.515625 
L 52.984375 51.515625 
L 58.109375 71.78125 
L 65.921875 71.78125 
L 60.890625 51.515625 
L 76.125 51.515625 
L 76.125 44 
L 58.984375 44 
L 54.984375 27.6875 
L 70.515625 27.6875 
L 70.515625 20.21875 
L 53.078125 20.21875 
L 48 0 
L 40.1875 0 
L 45.21875 20.21875 
L 30.90625 20.21875 
L 25.875 0 
L 18.015625 0 
L 23.09375 20.21875 
L 7.71875 20.21875 
L 7.71875 27.6875 
L 24.90625 27.6875 
L 29 44 
L 13.28125 44 
L 13.28125 51.515625 
L 30.90625 51.515625 
L 35.890625 71.78125 
z
" id="DejaVuSans-35"/>
       <path d="M -1.3125 -20.796875 
L 13.375 54.6875 
L 22.40625 54.6875 
L 15.765625 20.65625 
Q 15.578125 19.625 15.421875 18.359375 
Q 15.28125 17.09375 15.28125 15.828125 
Q 15.28125 11.28125 18.140625 8.828125 
Q 21 6.390625 26.3125 6.390625 
Q 33.546875 6.390625 37.984375 10.484375 
Q 42.4375 14.59375 44 22.796875 
L 50.203125 54.6875 
L 59.1875 54.6875 
L 51.03125 12.640625 
Q 50.828125 11.71875 50.75 11.03125 
Q 50.6875 10.359375 50.6875 9.8125 
Q 50.6875 8.296875 51.296875 7.59375 
Q 51.90625 6.890625 53.21875 6.890625 
Q 53.71875 6.890625 54.5625 7.125 
Q 55.421875 7.375 56.984375 8.015625 
L 55.609375 0.78125 
Q 53.46875 -0.296875 51.515625 -0.859375 
Q 49.5625 -1.421875 47.703125 -1.421875 
Q 44.484375 -1.421875 42.65625 0.625 
Q 40.828125 2.6875 40.828125 6.296875 
Q 38.09375 2.390625 34.296875 0.484375 
Q 30.515625 -1.421875 25.390625 -1.421875 
Q 20.84375 -1.421875 17.453125 0.671875 
Q 14.0625 2.78125 12.984375 6.203125 
L 7.71875 -20.796875 
z
" id="DejaVuSans-Oblique-956"/>
       <path d="M 89.796875 33.015625 
L 83.40625 0 
L 74.421875 0 
L 80.71875 32.71875 
Q 81.109375 34.8125 81.296875 36.328125 
Q 81.5 37.84375 81.5 38.921875 
Q 81.5 43.3125 79.046875 45.75 
Q 76.609375 48.1875 72.21875 48.1875 
Q 65.671875 48.1875 60.546875 43.28125 
Q 55.421875 38.375 53.90625 30.515625 
L 47.90625 0 
L 38.921875 0 
L 45.3125 32.71875 
Q 45.703125 34.515625 45.890625 36.046875 
Q 46.09375 37.59375 46.09375 38.8125 
Q 46.09375 43.265625 43.65625 45.71875 
Q 41.21875 48.1875 36.921875 48.1875 
Q 30.28125 48.1875 25.140625 43.28125 
Q 20.015625 38.375 18.5 30.515625 
L 12.5 0 
L 3.515625 0 
L 14.203125 54.6875 
L 23.1875 54.6875 
L 21.484375 46.1875 
Q 25.140625 50.984375 30.046875 53.484375 
Q 34.96875 56 40.578125 56 
Q 46.53125 56 50.359375 52.875 
Q 54.203125 49.75 54.984375 44.1875 
Q 59.078125 49.953125 64.46875 52.96875 
Q 69.875 56 75.875 56 
Q 82.90625 56 86.734375 51.953125 
Q 90.578125 47.90625 90.578125 40.484375 
Q 90.578125 38.875 90.375 36.9375 
Q 90.1875 35.015625 89.796875 33.015625 
z
" id="DejaVuSans-Oblique-109"/>
       <path d="M 19.1875 8.296875 
L 53.609375 8.296875 
L 53.609375 0 
L 7.328125 0 
L 7.328125 8.296875 
Q 12.9375 14.109375 22.625 23.890625 
Q 32.328125 33.6875 34.8125 36.53125 
Q 39.546875 41.84375 41.421875 45.53125 
Q 43.3125 49.21875 43.3125 52.78125 
Q 43.3125 58.59375 39.234375 62.25 
Q 35.15625 65.921875 28.609375 65.921875 
Q 23.96875 65.921875 18.8125 64.3125 
Q 13.671875 62.703125 7.8125 59.421875 
L 7.8125 69.390625 
Q 13.765625 71.78125 18.9375 73 
Q 24.125 74.21875 28.421875 74.21875 
Q 39.75 74.21875 46.484375 68.546875 
Q 53.21875 62.890625 53.21875 53.421875 
Q 53.21875 48.921875 51.53125 44.890625 
Q 49.859375 40.875 45.40625 35.40625 
Q 44.1875 33.984375 37.640625 27.21875 
Q 31.109375 20.453125 19.1875 8.296875 
z
" id="DejaVuSans-50"/>
      </defs>
      <use transform="translate(0 0.765625)" xlink:href="#DejaVuSans-10216"/>
      <use transform="translate(39.013672 0.765625)" xlink:href="#DejaVuSans-Oblique-66"/>
      <use transform="translate(107.617188 0.765625)" xlink:href="#DejaVuSans-10217"/>
      <use transform="translate(166.113281 0.765625)" xlink:href="#DejaVuSans-61"/>
      <use transform="translate(269.384766 0.765625)" xlink:href="#DejaVuSans-52"/>
      <use transform="translate(333.007812 0.765625)" xlink:href="#DejaVuSans-49"/>
      <use transform="translate(396.630859 0.765625)" xlink:href="#ArialMT-44"/>
      <use transform="translate(424.414062 0.765625)" xlink:href="#ArialMT-32"/>
      <use transform="translate(452.197266 0.765625)" xlink:href="#DejaVuSans-10216"/>
      <use transform="translate(491.210938 0.765625)" xlink:href="#DejaVuSans-Oblique-85"/>
      <use transform="translate(564.404297 0.765625)" xlink:href="#DejaVuSans-47"/>
      <use transform="translate(598.095703 0.765625)" xlink:href="#DejaVuSans-Oblique-65"/>
      <use transform="translate(666.503906 -15.640625)scale(0.7)" xlink:href="#DejaVuSans-Oblique-115"/>
      <use transform="translate(702.973633 -15.640625)scale(0.7)" xlink:href="#DejaVuSans-Oblique-112"/>
      <use transform="translate(747.407227 -15.640625)scale(0.7)" xlink:href="#DejaVuSans-Oblique-105"/>
      <use transform="translate(766.855469 -15.640625)scale(0.7)" xlink:href="#DejaVuSans-Oblique-110"/>
      <use transform="translate(811.220703 -15.640625)scale(0.7)" xlink:href="#DejaVuSans-Oblique-101"/>
      <use transform="translate(857.021484 0.765625)" xlink:href="#DejaVuSans-10217"/>
      <use transform="translate(896.035156 0.765625)" xlink:href="#ArialMT-61"/>
      <use transform="translate(954.433594 0.765625)" xlink:href="#ArialMT-49"/>
      <use transform="translate(1010.048828 0.765625)" xlink:href="#ArialMT-49"/>
      <use transform="translate(1065.664062 0.765625)" xlink:href="#ArialMT-46"/>
      <use transform="translate(1093.447266 0.765625)" xlink:href="#ArialMT-49"/>
      <use transform="translate(1149.0625 0.765625)" xlink:href="#ArialMT-32"/>
      <use transform="translate(1176.845703 0.765625)" xlink:href="#DejaVuSans-35"/>
      <use transform="translate(1260.634766 0.765625)" xlink:href="#DejaVuSans-47"/>
      <use transform="translate(1294.326172 0.765625)" xlink:href="#DejaVuSans-Oblique-956"/>
      <use transform="translate(1357.949219 0.765625)" xlink:href="#DejaVuSans-Oblique-109"/>
      <use transform="translate(1460.011224 39.046875)scale(0.7)" xlink:href="#DejaVuSans-50"/>
     </g>
    </g>
    <g id="line2d_14">
     <path d="M 81.411038 74.7036 
L 98.071038 74.7036 
" style="fill:none;stroke:#cc78bc;stroke-linecap:round;stroke-width:2;"/>
    </g>
    <g id="line2d_15"/>
    <g id="text_12">
     <!-- $=79$, $=$33.3 $\#/ \mu m^2$ -->
     <g style="fill:#262626;" transform="translate(104.735038 77.6191)scale(0.0833 -0.0833)">
      <defs>
       <path d="M 8.203125 72.90625 
L 55.078125 72.90625 
L 55.078125 68.703125 
L 28.609375 0 
L 18.3125 0 
L 43.21875 64.59375 
L 8.203125 64.59375 
z
" id="DejaVuSans-55"/>
       <path d="M 10.984375 1.515625 
L 10.984375 10.5 
Q 14.703125 8.734375 18.5 7.8125 
Q 22.3125 6.890625 25.984375 6.890625 
Q 35.75 6.890625 40.890625 13.453125 
Q 46.046875 20.015625 46.78125 33.40625 
Q 43.953125 29.203125 39.59375 26.953125 
Q 35.25 24.703125 29.984375 24.703125 
Q 19.046875 24.703125 12.671875 31.3125 
Q 6.296875 37.9375 6.296875 49.421875 
Q 6.296875 60.640625 12.9375 67.421875 
Q 19.578125 74.21875 30.609375 74.21875 
Q 43.265625 74.21875 49.921875 64.515625 
Q 56.59375 54.828125 56.59375 36.375 
Q 56.59375 19.140625 48.40625 8.859375 
Q 40.234375 -1.421875 26.421875 -1.421875 
Q 22.703125 -1.421875 18.890625 -0.6875 
Q 15.09375 0.046875 10.984375 1.515625 
z
M 30.609375 32.421875 
Q 37.25 32.421875 41.125 36.953125 
Q 45.015625 41.5 45.015625 49.421875 
Q 45.015625 57.28125 41.125 61.84375 
Q 37.25 66.40625 30.609375 66.40625 
Q 23.96875 66.40625 20.09375 61.84375 
Q 16.21875 57.28125 16.21875 49.421875 
Q 16.21875 41.5 20.09375 36.953125 
Q 23.96875 32.421875 30.609375 32.421875 
z
" id="DejaVuSans-57"/>
      </defs>
      <use transform="translate(19.482422 0.765625)" xlink:href="#DejaVuSans-61"/>
      <use transform="translate(122.753906 0.765625)" xlink:href="#DejaVuSans-55"/>
      <use transform="translate(186.376953 0.765625)" xlink:href="#DejaVuSans-57"/>
      <use transform="translate(250 0.765625)" xlink:href="#ArialMT-44"/>
      <use transform="translate(277.783203 0.765625)" xlink:href="#ArialMT-32"/>
      <use transform="translate(325.048828 0.765625)" xlink:href="#DejaVuSans-61"/>
      <use transform="translate(428.320312 0.765625)" xlink:href="#ArialMT-51"/>
      <use transform="translate(483.935547 0.765625)" xlink:href="#ArialMT-51"/>
      <use transform="translate(539.550781 0.765625)" xlink:href="#ArialMT-46"/>
      <use transform="translate(567.333984 0.765625)" xlink:href="#ArialMT-51"/>
      <use transform="translate(622.949219 0.765625)" xlink:href="#ArialMT-32"/>
      <use transform="translate(650.732422 0.765625)" xlink:href="#DejaVuSans-35"/>
      <use transform="translate(734.521484 0.765625)" xlink:href="#DejaVuSans-47"/>
      <use transform="translate(768.212891 0.765625)" xlink:href="#DejaVuSans-Oblique-956"/>
      <use transform="translate(831.835938 0.765625)" xlink:href="#DejaVuSans-Oblique-109"/>
      <use transform="translate(933.897943 39.046875)scale(0.7)" xlink:href="#DejaVuSans-50"/>
     </g>
    </g>
    <g id="line2d_16">
     <path d="M 81.411038 88.1982 
L 98.071038 88.1982 
" style="fill:none;stroke:#ca9161;stroke-linecap:round;stroke-width:2;"/>
    </g>
    <g id="line2d_17"/>
    <g id="text_13">
     <!-- $=102$, $=$66.7 $\#/ \mu m^2$ -->
     <g style="fill:#262626;" transform="translate(104.735038 91.1137)scale(0.0833 -0.0833)">
      <defs>
       <path d="M 31.78125 66.40625 
Q 24.171875 66.40625 20.328125 58.90625 
Q 16.5 51.421875 16.5 36.375 
Q 16.5 21.390625 20.328125 13.890625 
Q 24.171875 6.390625 31.78125 6.390625 
Q 39.453125 6.390625 43.28125 13.890625 
Q 47.125 21.390625 47.125 36.375 
Q 47.125 51.421875 43.28125 58.90625 
Q 39.453125 66.40625 31.78125 66.40625 
z
M 31.78125 74.21875 
Q 44.046875 74.21875 50.515625 64.515625 
Q 56.984375 54.828125 56.984375 36.375 
Q 56.984375 17.96875 50.515625 8.265625 
Q 44.046875 -1.421875 31.78125 -1.421875 
Q 19.53125 -1.421875 13.0625 8.265625 
Q 6.59375 17.96875 6.59375 36.375 
Q 6.59375 54.828125 13.0625 64.515625 
Q 19.53125 74.21875 31.78125 74.21875 
z
" id="DejaVuSans-48"/>
       <path d="M 49.75 54.046875 
L 41.015625 53.375 
Q 39.84375 58.546875 37.703125 60.890625 
Q 34.125 64.65625 28.90625 64.65625 
Q 24.703125 64.65625 21.53125 62.3125 
Q 17.390625 59.28125 14.984375 53.46875 
Q 12.59375 47.65625 12.5 36.921875 
Q 15.671875 41.75 20.265625 44.09375 
Q 24.859375 46.4375 29.890625 46.4375 
Q 38.671875 46.4375 44.84375 39.96875 
Q 51.03125 33.5 51.03125 23.25 
Q 51.03125 16.5 48.125 10.71875 
Q 45.21875 4.9375 40.140625 1.859375 
Q 35.0625 -1.21875 28.609375 -1.21875 
Q 17.625 -1.21875 10.6875 6.859375 
Q 3.765625 14.9375 3.765625 33.5 
Q 3.765625 54.25 11.421875 63.671875 
Q 18.109375 71.875 29.4375 71.875 
Q 37.890625 71.875 43.28125 67.140625 
Q 48.6875 62.40625 49.75 54.046875 
z
M 13.875 23.1875 
Q 13.875 18.65625 15.796875 14.5 
Q 17.71875 10.359375 21.1875 8.171875 
Q 24.65625 6 28.46875 6 
Q 34.03125 6 38.03125 10.484375 
Q 42.046875 14.984375 42.046875 22.703125 
Q 42.046875 30.125 38.078125 34.390625 
Q 34.125 38.671875 28.125 38.671875 
Q 22.171875 38.671875 18.015625 34.390625 
Q 13.875 30.125 13.875 23.1875 
z
" id="ArialMT-54"/>
       <path d="M 4.734375 62.203125 
L 4.734375 70.65625 
L 51.078125 70.65625 
L 51.078125 63.8125 
Q 44.234375 56.546875 37.515625 44.484375 
Q 30.8125 32.421875 27.15625 19.671875 
Q 24.515625 10.6875 23.78125 0 
L 14.75 0 
Q 14.890625 8.453125 18.0625 20.40625 
Q 21.234375 32.375 27.171875 43.484375 
Q 33.109375 54.59375 39.796875 62.203125 
z
" id="ArialMT-55"/>
      </defs>
      <use transform="translate(19.482422 0.765625)" xlink:href="#DejaVuSans-61"/>
      <use transform="translate(122.753906 0.765625)" xlink:href="#DejaVuSans-49"/>
      <use transform="translate(186.376953 0.765625)" xlink:href="#DejaVuSans-48"/>
      <use transform="translate(250 0.765625)" xlink:href="#DejaVuSans-50"/>
      <use transform="translate(313.623047 0.765625)" xlink:href="#ArialMT-44"/>
      <use transform="translate(341.40625 0.765625)" xlink:href="#ArialMT-32"/>
      <use transform="translate(388.671875 0.765625)" xlink:href="#DejaVuSans-61"/>
      <use transform="translate(491.943359 0.765625)" xlink:href="#ArialMT-54"/>
      <use transform="translate(547.558594 0.765625)" xlink:href="#ArialMT-54"/>
      <use transform="translate(603.173828 0.765625)" xlink:href="#ArialMT-46"/>
      <use transform="translate(630.957031 0.765625)" xlink:href="#ArialMT-55"/>
      <use transform="translate(686.572266 0.765625)" xlink:href="#ArialMT-32"/>
      <use transform="translate(714.355469 0.765625)" xlink:href="#DejaVuSans-35"/>
      <use transform="translate(798.144531 0.765625)" xlink:href="#DejaVuSans-47"/>
      <use transform="translate(831.835938 0.765625)" xlink:href="#DejaVuSans-Oblique-956"/>
      <use transform="translate(895.458984 0.765625)" xlink:href="#DejaVuSans-Oblique-109"/>
      <use transform="translate(997.52099 39.046875)scale(0.7)" xlink:href="#DejaVuSans-50"/>
     </g>
    </g>
   </g>
  </g>
 </g>
 <defs>
  <clipPath id="pf3d51220ab">
   <rect height="93.16" width="182.98" x="54.868438" y="7.2"/>
  </clipPath>
 </defs>
</svg>
