<?xml version="1.0" encoding="utf-8" standalone="no"?>
<!DOCTYPE svg PUBLIC "-//W3C//DTD SVG 1.1//EN"
  "http://www.w3.org/Graphics/SVG/1.1/DTD/svg11.dtd">
<!-- Created with matplotlib (https://matplotlib.org/) -->
<svg height="137.089688pt" version="1.1" viewBox="0 0 245.048438 137.089688" width="245.048438pt" xmlns="http://www.w3.org/2000/svg" xmlns:xlink="http://www.w3.org/1999/xlink">
 <metadata>
  <rdf:RDF xmlns:cc="http://creativecommons.org/ns#" xmlns:dc="http://purl.org/dc/elements/1.1/" xmlns:rdf="http://www.w3.org/1999/02/22-rdf-syntax-ns#">
   <cc:Work>
    <dc:type rdf:resource="http://purl.org/dc/dcmitype/StillImage"/>
    <dc:date>2020-11-05T18:26:19.679149</dc:date>
    <dc:format>image/svg+xml</dc:format>
    <dc:creator>
     <cc:Agent>
      <dc:title>Matplotlib v3.3.0, https://matplotlib.org/</dc:title>
     </cc:Agent>
    </dc:creator>
   </cc:Work>
  </rdf:RDF>
 </metadata>
 <defs>
  <style type="text/css">*{stroke-linecap:butt;stroke-linejoin:round;}</style>
 </defs>
 <g id="figure_1">
  <g id="patch_1">
   <path d="M 0 137.089688 
L 245.048438 137.089688 
L 245.048438 0 
L 0 0 
z
" style="fill:#ffffff;"/>
  </g>
  <g id="axes_1">
   <g id="patch_2">
    <path d="M 54.868438 100.36 
L 237.848438 100.36 
L 237.848438 7.2 
L 54.868438 7.2 
z
" style="fill:#ffffff;"/>
   </g>
   <g id="line2d_1">
    <path clip-path="url(#p560d16ceb8)" d="M 54.868438 22.726667 
L 237.848438 22.726667 
" style="fill:none;stroke:#000000;stroke-linecap:round;stroke-width:1.5;"/>
   </g>
   <g id="matplotlib.axis_1">
    <g id="xtick_1">
     <g id="line2d_2">
      <defs>
       <path d="M 0 0 
L 0 3.5 
" id="mc83d6911a7" style="stroke:#262626;stroke-width:0.8;"/>
      </defs>
      <g>
       <use style="fill:#262626;stroke:#262626;stroke-width:0.8;" x="54.868438" xlink:href="#mc83d6911a7" y="100.36"/>
      </g>
     </g>
     <g id="text_1">
      <!-- 0 -->
      <g style="fill:#262626;" transform="translate(52.087969 114.517813)scale(0.1 -0.1)">
       <defs>
        <path d="M 4.15625 35.296875 
Q 4.15625 48 6.765625 55.734375 
Q 9.375 63.484375 14.515625 67.671875 
Q 19.671875 71.875 27.484375 71.875 
Q 33.25 71.875 37.59375 69.546875 
Q 41.9375 67.234375 44.765625 62.859375 
Q 47.609375 58.5 49.21875 52.21875 
Q 50.828125 45.953125 50.828125 35.296875 
Q 50.828125 22.703125 48.234375 14.96875 
Q 45.65625 7.234375 40.5 3 
Q 35.359375 -1.21875 27.484375 -1.21875 
Q 17.140625 -1.21875 11.234375 6.203125 
Q 4.15625 15.140625 4.15625 35.296875 
z
M 13.1875 35.296875 
Q 13.1875 17.671875 17.3125 11.828125 
Q 21.4375 6 27.484375 6 
Q 33.546875 6 37.671875 11.859375 
Q 41.796875 17.71875 41.796875 35.296875 
Q 41.796875 52.984375 37.671875 58.78125 
Q 33.546875 64.59375 27.390625 64.59375 
Q 21.34375 64.59375 17.71875 59.46875 
Q 13.1875 52.9375 13.1875 35.296875 
z
" id="ArialMT-48"/>
       </defs>
       <use xlink:href="#ArialMT-48"/>
      </g>
     </g>
    </g>
    <g id="xtick_2">
     <g id="line2d_3">
      <g>
       <use style="fill:#262626;stroke:#262626;stroke-width:0.8;" x="107.148438" xlink:href="#mc83d6911a7" y="100.36"/>
      </g>
     </g>
     <g id="text_2">
      <!-- 10 -->
      <g style="fill:#262626;" transform="translate(101.5875 114.517813)scale(0.1 -0.1)">
       <defs>
        <path d="M 37.25 0 
L 28.46875 0 
L 28.46875 56 
Q 25.296875 52.984375 20.140625 49.953125 
Q 14.984375 46.921875 10.890625 45.40625 
L 10.890625 53.90625 
Q 18.265625 57.375 23.78125 62.296875 
Q 29.296875 67.234375 31.59375 71.875 
L 37.25 71.875 
z
" id="ArialMT-49"/>
       </defs>
       <use xlink:href="#ArialMT-49"/>
       <use x="55.615234" xlink:href="#ArialMT-48"/>
      </g>
     </g>
    </g>
    <g id="xtick_3">
     <g id="line2d_4">
      <g>
       <use style="fill:#262626;stroke:#262626;stroke-width:0.8;" x="159.428438" xlink:href="#mc83d6911a7" y="100.36"/>
      </g>
     </g>
     <g id="text_3">
      <!-- 20 -->
      <g style="fill:#262626;" transform="translate(153.8675 114.517813)scale(0.1 -0.1)">
       <defs>
        <path d="M 50.34375 8.453125 
L 50.34375 0 
L 3.03125 0 
Q 2.9375 3.171875 4.046875 6.109375 
Q 5.859375 10.9375 9.828125 15.625 
Q 13.8125 20.3125 21.34375 26.46875 
Q 33.015625 36.03125 37.109375 41.625 
Q 41.21875 47.21875 41.21875 52.203125 
Q 41.21875 57.421875 37.46875 61 
Q 33.734375 64.59375 27.734375 64.59375 
Q 21.390625 64.59375 17.578125 60.78125 
Q 13.765625 56.984375 13.71875 50.25 
L 4.6875 51.171875 
Q 5.609375 61.28125 11.65625 66.578125 
Q 17.71875 71.875 27.9375 71.875 
Q 38.234375 71.875 44.234375 66.15625 
Q 50.25 60.453125 50.25 52 
Q 50.25 47.703125 48.484375 43.546875 
Q 46.734375 39.40625 42.65625 34.8125 
Q 38.578125 30.21875 29.109375 22.21875 
Q 21.1875 15.578125 18.9375 13.203125 
Q 16.703125 10.84375 15.234375 8.453125 
z
" id="ArialMT-50"/>
       </defs>
       <use xlink:href="#ArialMT-50"/>
       <use x="55.615234" xlink:href="#ArialMT-48"/>
      </g>
     </g>
    </g>
    <g id="xtick_4">
     <g id="line2d_5">
      <g>
       <use style="fill:#262626;stroke:#262626;stroke-width:0.8;" x="211.708438" xlink:href="#mc83d6911a7" y="100.36"/>
      </g>
     </g>
     <g id="text_4">
      <!-- 30 -->
      <g style="fill:#262626;" transform="translate(206.1475 114.517813)scale(0.1 -0.1)">
       <defs>
        <path d="M 4.203125 18.890625 
L 12.984375 20.0625 
Q 14.5 12.59375 18.140625 9.296875 
Q 21.78125 6 27 6 
Q 33.203125 6 37.46875 10.296875 
Q 41.75 14.59375 41.75 20.953125 
Q 41.75 27 37.796875 30.921875 
Q 33.84375 34.859375 27.734375 34.859375 
Q 25.25 34.859375 21.53125 33.890625 
L 22.515625 41.609375 
Q 23.390625 41.5 23.921875 41.5 
Q 29.546875 41.5 34.03125 44.421875 
Q 38.53125 47.359375 38.53125 53.46875 
Q 38.53125 58.296875 35.25 61.46875 
Q 31.984375 64.65625 26.8125 64.65625 
Q 21.6875 64.65625 18.265625 61.421875 
Q 14.84375 58.203125 13.875 51.765625 
L 5.078125 53.328125 
Q 6.6875 62.15625 12.390625 67.015625 
Q 18.109375 71.875 26.609375 71.875 
Q 32.46875 71.875 37.390625 69.359375 
Q 42.328125 66.84375 44.9375 62.5 
Q 47.5625 58.15625 47.5625 53.265625 
Q 47.5625 48.640625 45.0625 44.828125 
Q 42.578125 41.015625 37.703125 38.765625 
Q 44.046875 37.3125 47.5625 32.6875 
Q 51.078125 28.078125 51.078125 21.140625 
Q 51.078125 11.765625 44.234375 5.25 
Q 37.40625 -1.265625 26.953125 -1.265625 
Q 17.53125 -1.265625 11.296875 4.34375 
Q 5.078125 9.96875 4.203125 18.890625 
z
" id="ArialMT-51"/>
       </defs>
       <use xlink:href="#ArialMT-51"/>
       <use x="55.615234" xlink:href="#ArialMT-48"/>
      </g>
     </g>
    </g>
    <g id="text_5">
     <!-- Time (min) -->
     <g style="fill:#262626;" transform="translate(122.660781 127.785)scale(0.1 -0.1)">
      <defs>
       <path d="M 25.921875 0 
L 25.921875 63.140625 
L 2.34375 63.140625 
L 2.34375 71.578125 
L 59.078125 71.578125 
L 59.078125 63.140625 
L 35.40625 63.140625 
L 35.40625 0 
z
" id="ArialMT-84"/>
       <path d="M 6.640625 61.46875 
L 6.640625 71.578125 
L 15.4375 71.578125 
L 15.4375 61.46875 
z
M 6.640625 0 
L 6.640625 51.859375 
L 15.4375 51.859375 
L 15.4375 0 
z
" id="ArialMT-105"/>
       <path d="M 6.59375 0 
L 6.59375 51.859375 
L 14.453125 51.859375 
L 14.453125 44.578125 
Q 16.890625 48.390625 20.9375 50.703125 
Q 25 53.03125 30.171875 53.03125 
Q 35.9375 53.03125 39.625 50.640625 
Q 43.3125 48.25 44.828125 43.953125 
Q 50.984375 53.03125 60.84375 53.03125 
Q 68.5625 53.03125 72.703125 48.75 
Q 76.859375 44.484375 76.859375 35.59375 
L 76.859375 0 
L 68.109375 0 
L 68.109375 32.671875 
Q 68.109375 37.9375 67.25 40.25 
Q 66.40625 42.578125 64.15625 43.984375 
Q 61.921875 45.40625 58.890625 45.40625 
Q 53.421875 45.40625 49.796875 41.765625 
Q 46.1875 38.140625 46.1875 30.125 
L 46.1875 0 
L 37.40625 0 
L 37.40625 33.6875 
Q 37.40625 39.546875 35.25 42.46875 
Q 33.109375 45.40625 28.21875 45.40625 
Q 24.515625 45.40625 21.359375 43.453125 
Q 18.21875 41.5 16.796875 37.734375 
Q 15.375 33.984375 15.375 26.90625 
L 15.375 0 
z
" id="ArialMT-109"/>
       <path d="M 42.09375 16.703125 
L 51.171875 15.578125 
Q 49.03125 7.625 43.21875 3.21875 
Q 37.40625 -1.171875 28.375 -1.171875 
Q 17 -1.171875 10.328125 5.828125 
Q 3.65625 12.84375 3.65625 25.484375 
Q 3.65625 38.578125 10.390625 45.796875 
Q 17.140625 53.03125 27.875 53.03125 
Q 38.28125 53.03125 44.875 45.953125 
Q 51.46875 38.875 51.46875 26.03125 
Q 51.46875 25.25 51.421875 23.6875 
L 12.75 23.6875 
Q 13.234375 15.140625 17.578125 10.59375 
Q 21.921875 6.0625 28.421875 6.0625 
Q 33.25 6.0625 36.671875 8.59375 
Q 40.09375 11.140625 42.09375 16.703125 
z
M 13.234375 30.90625 
L 42.1875 30.90625 
Q 41.609375 37.453125 38.875 40.71875 
Q 34.671875 45.796875 27.984375 45.796875 
Q 21.921875 45.796875 17.796875 41.75 
Q 13.671875 37.703125 13.234375 30.90625 
z
" id="ArialMT-101"/>
       <path id="ArialMT-32"/>
       <path d="M 23.390625 -21.046875 
Q 16.109375 -11.859375 11.078125 0.4375 
Q 6.0625 12.75 6.0625 25.921875 
Q 6.0625 37.546875 9.8125 48.1875 
Q 14.203125 60.546875 23.390625 72.796875 
L 29.6875 72.796875 
Q 23.78125 62.640625 21.875 58.296875 
Q 18.890625 51.5625 17.1875 44.234375 
Q 15.09375 35.109375 15.09375 25.875 
Q 15.09375 2.390625 29.6875 -21.046875 
z
" id="ArialMT-40"/>
       <path d="M 6.59375 0 
L 6.59375 51.859375 
L 14.5 51.859375 
L 14.5 44.484375 
Q 20.21875 53.03125 31 53.03125 
Q 35.6875 53.03125 39.625 51.34375 
Q 43.5625 49.65625 45.515625 46.921875 
Q 47.46875 44.1875 48.25 40.4375 
Q 48.734375 37.984375 48.734375 31.890625 
L 48.734375 0 
L 39.9375 0 
L 39.9375 31.546875 
Q 39.9375 36.921875 38.90625 39.578125 
Q 37.890625 42.234375 35.28125 43.8125 
Q 32.671875 45.40625 29.15625 45.40625 
Q 23.53125 45.40625 19.453125 41.84375 
Q 15.375 38.28125 15.375 28.328125 
L 15.375 0 
z
" id="ArialMT-110"/>
       <path d="M 12.359375 -21.046875 
L 6.0625 -21.046875 
Q 20.65625 2.390625 20.65625 25.875 
Q 20.65625 35.0625 18.5625 44.09375 
Q 16.890625 51.421875 13.921875 58.15625 
Q 12.015625 62.546875 6.0625 72.796875 
L 12.359375 72.796875 
Q 21.53125 60.546875 25.921875 48.1875 
Q 29.6875 37.546875 29.6875 25.921875 
Q 29.6875 12.75 24.625 0.4375 
Q 19.578125 -11.859375 12.359375 -21.046875 
z
" id="ArialMT-41"/>
      </defs>
      <use xlink:href="#ArialMT-84"/>
      <use x="57.333984" xlink:href="#ArialMT-105"/>
      <use x="79.550781" xlink:href="#ArialMT-109"/>
      <use x="162.851562" xlink:href="#ArialMT-101"/>
      <use x="218.466797" xlink:href="#ArialMT-32"/>
      <use x="246.25" xlink:href="#ArialMT-40"/>
      <use x="279.550781" xlink:href="#ArialMT-109"/>
      <use x="362.851562" xlink:href="#ArialMT-105"/>
      <use x="385.068359" xlink:href="#ArialMT-110"/>
      <use x="440.683594" xlink:href="#ArialMT-41"/>
     </g>
    </g>
   </g>
   <g id="matplotlib.axis_2">
    <g id="ytick_1">
     <g id="line2d_6">
      <defs>
       <path d="M 0 0 
L -3.5 0 
" id="m8e78b70c2f" style="stroke:#262626;stroke-width:0.8;"/>
      </defs>
      <g>
       <use style="fill:#262626;stroke:#262626;stroke-width:0.8;" x="54.868438" xlink:href="#m8e78b70c2f" y="100.36"/>
      </g>
     </g>
     <g id="text_6">
      <!-- 0 -->
      <g style="fill:#262626;" transform="translate(42.3075 103.938906)scale(0.1 -0.1)">
       <use xlink:href="#ArialMT-48"/>
      </g>
     </g>
    </g>
    <g id="ytick_2">
     <g id="line2d_7">
      <g>
       <use style="fill:#262626;stroke:#262626;stroke-width:0.8;" x="54.868438" xlink:href="#m8e78b70c2f" y="61.543333"/>
      </g>
     </g>
     <g id="text_7">
      <!-- 50 -->
      <g style="fill:#262626;" transform="translate(36.746563 65.12224)scale(0.1 -0.1)">
       <defs>
        <path d="M 4.15625 18.75 
L 13.375 19.53125 
Q 14.40625 12.796875 18.140625 9.390625 
Q 21.875 6 27.15625 6 
Q 33.5 6 37.890625 10.78125 
Q 42.28125 15.578125 42.28125 23.484375 
Q 42.28125 31 38.0625 35.34375 
Q 33.84375 39.703125 27 39.703125 
Q 22.75 39.703125 19.328125 37.765625 
Q 15.921875 35.84375 13.96875 32.765625 
L 5.71875 33.84375 
L 12.640625 70.609375 
L 48.25 70.609375 
L 48.25 62.203125 
L 19.671875 62.203125 
L 15.828125 42.96875 
Q 22.265625 47.46875 29.34375 47.46875 
Q 38.71875 47.46875 45.15625 40.96875 
Q 51.609375 34.46875 51.609375 24.265625 
Q 51.609375 14.546875 45.953125 7.46875 
Q 39.0625 -1.21875 27.15625 -1.21875 
Q 17.390625 -1.21875 11.203125 4.25 
Q 5.03125 9.71875 4.15625 18.75 
z
" id="ArialMT-53"/>
       </defs>
       <use xlink:href="#ArialMT-53"/>
       <use x="55.615234" xlink:href="#ArialMT-48"/>
      </g>
     </g>
    </g>
    <g id="ytick_3">
     <g id="line2d_8">
      <g>
       <use style="fill:#262626;stroke:#262626;stroke-width:0.8;" x="54.868438" xlink:href="#m8e78b70c2f" y="22.726667"/>
      </g>
     </g>
     <g id="text_8">
      <!-- 100 -->
      <g style="fill:#262626;" transform="translate(31.185625 26.305573)scale(0.1 -0.1)">
       <use xlink:href="#ArialMT-49"/>
       <use x="55.615234" xlink:href="#ArialMT-48"/>
       <use x="111.230469" xlink:href="#ArialMT-48"/>
      </g>
     </g>
    </g>
    <g id="text_9">
     <!-- AMPAR  -->
     <g style="fill:#262626;" transform="translate(14.357813 72.581563)rotate(-90)scale(0.1 -0.1)">
      <defs>
       <path d="M -0.140625 0 
L 27.34375 71.578125 
L 37.546875 71.578125 
L 66.84375 0 
L 56.0625 0 
L 47.703125 21.6875 
L 17.78125 21.6875 
L 9.90625 0 
z
M 20.515625 29.390625 
L 44.78125 29.390625 
L 37.3125 49.21875 
Q 33.890625 58.25 32.234375 64.0625 
Q 30.859375 57.171875 28.375 50.390625 
z
" id="ArialMT-65"/>
       <path d="M 7.421875 0 
L 7.421875 71.578125 
L 21.6875 71.578125 
L 38.625 20.90625 
Q 40.96875 13.8125 42.046875 10.296875 
Q 43.265625 14.203125 45.84375 21.78125 
L 62.984375 71.578125 
L 75.734375 71.578125 
L 75.734375 0 
L 66.609375 0 
L 66.609375 59.90625 
L 45.796875 0 
L 37.25 0 
L 16.546875 60.9375 
L 16.546875 0 
z
" id="ArialMT-77"/>
       <path d="M 7.71875 0 
L 7.71875 71.578125 
L 34.71875 71.578125 
Q 41.84375 71.578125 45.609375 70.90625 
Q 50.875 70.015625 54.4375 67.546875 
Q 58.015625 65.09375 60.1875 60.640625 
Q 62.359375 56.203125 62.359375 50.875 
Q 62.359375 41.75 56.546875 35.421875 
Q 50.734375 29.109375 35.546875 29.109375 
L 17.1875 29.109375 
L 17.1875 0 
z
M 17.1875 37.546875 
L 35.6875 37.546875 
Q 44.875 37.546875 48.734375 40.96875 
Q 52.59375 44.390625 52.59375 50.59375 
Q 52.59375 55.078125 50.3125 58.265625 
Q 48.046875 61.46875 44.34375 62.5 
Q 41.9375 63.140625 35.5 63.140625 
L 17.1875 63.140625 
z
" id="ArialMT-80"/>
       <path d="M 7.859375 0 
L 7.859375 71.578125 
L 39.59375 71.578125 
Q 49.171875 71.578125 54.140625 69.640625 
Q 59.125 67.71875 62.109375 62.828125 
Q 65.09375 57.953125 65.09375 52.046875 
Q 65.09375 44.4375 60.15625 39.203125 
Q 55.21875 33.984375 44.921875 32.5625 
Q 48.6875 30.765625 50.640625 29 
Q 54.78125 25.203125 58.5 19.484375 
L 70.953125 0 
L 59.03125 0 
L 49.5625 14.890625 
Q 45.40625 21.34375 42.71875 24.75 
Q 40.046875 28.171875 37.921875 29.53125 
Q 35.796875 30.90625 33.59375 31.453125 
Q 31.984375 31.78125 28.328125 31.78125 
L 17.328125 31.78125 
L 17.328125 0 
z
M 17.328125 39.984375 
L 37.703125 39.984375 
Q 44.1875 39.984375 47.84375 41.328125 
Q 51.515625 42.671875 53.421875 45.625 
Q 55.328125 48.578125 55.328125 52.046875 
Q 55.328125 57.125 51.640625 60.390625 
Q 47.953125 63.671875 39.984375 63.671875 
L 17.328125 63.671875 
z
" id="ArialMT-82"/>
      </defs>
      <use xlink:href="#ArialMT-65"/>
      <use x="66.699219" xlink:href="#ArialMT-77"/>
      <use x="150" xlink:href="#ArialMT-80"/>
      <use x="209.324219" xlink:href="#ArialMT-65"/>
      <use x="276.023438" xlink:href="#ArialMT-82"/>
      <use x="348.240234" xlink:href="#ArialMT-32"/>
     </g>
     <!--  Recovery (%) -->
     <g style="fill:#262626;" transform="translate(25.080938 85.451094)rotate(-90)scale(0.1 -0.1)">
      <defs>
       <path d="M 40.4375 19 
L 49.078125 17.875 
Q 47.65625 8.9375 41.8125 3.875 
Q 35.984375 -1.171875 27.484375 -1.171875 
Q 16.84375 -1.171875 10.375 5.78125 
Q 3.90625 12.75 3.90625 25.734375 
Q 3.90625 34.125 6.6875 40.421875 
Q 9.46875 46.734375 15.15625 49.875 
Q 20.84375 53.03125 27.546875 53.03125 
Q 35.984375 53.03125 41.359375 48.75 
Q 46.734375 44.484375 48.25 36.625 
L 39.703125 35.296875 
Q 38.484375 40.53125 35.375 43.15625 
Q 32.28125 45.796875 27.875 45.796875 
Q 21.234375 45.796875 17.078125 41.03125 
Q 12.9375 36.28125 12.9375 25.984375 
Q 12.9375 15.53125 16.9375 10.796875 
Q 20.953125 6.0625 27.390625 6.0625 
Q 32.5625 6.0625 36.03125 9.234375 
Q 39.5 12.40625 40.4375 19 
z
" id="ArialMT-99"/>
       <path d="M 3.328125 25.921875 
Q 3.328125 40.328125 11.328125 47.265625 
Q 18.015625 53.03125 27.640625 53.03125 
Q 38.328125 53.03125 45.109375 46.015625 
Q 51.90625 39.015625 51.90625 26.65625 
Q 51.90625 16.65625 48.90625 10.90625 
Q 45.90625 5.171875 40.15625 2 
Q 34.421875 -1.171875 27.640625 -1.171875 
Q 16.75 -1.171875 10.03125 5.8125 
Q 3.328125 12.796875 3.328125 25.921875 
z
M 12.359375 25.921875 
Q 12.359375 15.96875 16.703125 11.015625 
Q 21.046875 6.0625 27.640625 6.0625 
Q 34.1875 6.0625 38.53125 11.03125 
Q 42.875 16.015625 42.875 26.21875 
Q 42.875 35.84375 38.5 40.796875 
Q 34.125 45.75 27.640625 45.75 
Q 21.046875 45.75 16.703125 40.8125 
Q 12.359375 35.890625 12.359375 25.921875 
z
" id="ArialMT-111"/>
       <path d="M 21 0 
L 1.265625 51.859375 
L 10.546875 51.859375 
L 21.6875 20.796875 
Q 23.484375 15.765625 25 10.359375 
Q 26.171875 14.453125 28.265625 20.21875 
L 39.796875 51.859375 
L 48.828125 51.859375 
L 29.203125 0 
z
" id="ArialMT-118"/>
       <path d="M 6.5 0 
L 6.5 51.859375 
L 14.40625 51.859375 
L 14.40625 44 
Q 17.4375 49.515625 20 51.265625 
Q 22.5625 53.03125 25.640625 53.03125 
Q 30.078125 53.03125 34.671875 50.203125 
L 31.640625 42.046875 
Q 28.421875 43.953125 25.203125 43.953125 
Q 22.3125 43.953125 20.015625 42.21875 
Q 17.71875 40.484375 16.75 37.40625 
Q 15.28125 32.71875 15.28125 27.15625 
L 15.28125 0 
z
" id="ArialMT-114"/>
       <path d="M 6.203125 -19.96875 
L 5.21875 -11.71875 
Q 8.109375 -12.5 10.25 -12.5 
Q 13.1875 -12.5 14.9375 -11.515625 
Q 16.703125 -10.546875 17.828125 -8.796875 
Q 18.65625 -7.46875 20.515625 -2.25 
Q 20.75 -1.515625 21.296875 -0.09375 
L 1.609375 51.859375 
L 11.078125 51.859375 
L 21.875 21.828125 
Q 23.96875 16.109375 25.640625 9.8125 
Q 27.15625 15.875 29.25 21.625 
L 40.328125 51.859375 
L 49.125 51.859375 
L 29.390625 -0.875 
Q 26.21875 -9.421875 24.46875 -12.640625 
Q 22.125 -17 19.09375 -19.015625 
Q 16.0625 -21.046875 11.859375 -21.046875 
Q 9.328125 -21.046875 6.203125 -19.96875 
z
" id="ArialMT-121"/>
       <path d="M 5.8125 54.390625 
Q 5.8125 62.0625 9.671875 67.421875 
Q 13.53125 72.796875 20.84375 72.796875 
Q 27.59375 72.796875 32 67.984375 
Q 36.421875 63.1875 36.421875 53.859375 
Q 36.421875 44.78125 31.953125 39.875 
Q 27.484375 34.96875 20.953125 34.96875 
Q 14.453125 34.96875 10.125 39.796875 
Q 5.8125 44.625 5.8125 54.390625 
z
M 21.09375 66.75 
Q 17.828125 66.75 15.65625 63.90625 
Q 13.484375 61.078125 13.484375 53.515625 
Q 13.484375 46.625 15.671875 43.8125 
Q 17.875 41.015625 21.09375 41.015625 
Q 24.421875 41.015625 26.59375 43.84375 
Q 28.765625 46.6875 28.765625 54.203125 
Q 28.765625 61.140625 26.5625 63.9375 
Q 24.359375 66.75 21.09375 66.75 
z
M 21.140625 -2.640625 
L 60.296875 72.796875 
L 67.4375 72.796875 
L 28.421875 -2.640625 
z
M 52.09375 16.796875 
Q 52.09375 24.515625 55.953125 29.859375 
Q 59.8125 35.203125 67.1875 35.203125 
Q 73.921875 35.203125 78.34375 30.390625 
Q 82.765625 25.59375 82.765625 16.265625 
Q 82.765625 7.171875 78.296875 2.265625 
Q 73.828125 -2.640625 67.234375 -2.640625 
Q 60.75 -2.640625 56.421875 2.21875 
Q 52.09375 7.078125 52.09375 16.796875 
z
M 67.4375 29.15625 
Q 64.109375 29.15625 61.9375 26.3125 
Q 59.765625 23.484375 59.765625 15.921875 
Q 59.765625 9.078125 61.953125 6.25 
Q 64.15625 3.421875 67.390625 3.421875 
Q 70.75 3.421875 72.921875 6.25 
Q 75.09375 9.078125 75.09375 16.609375 
Q 75.09375 23.53125 72.890625 26.34375 
Q 70.703125 29.15625 67.4375 29.15625 
z
" id="ArialMT-37"/>
      </defs>
      <use xlink:href="#ArialMT-32"/>
      <use x="27.783203" xlink:href="#ArialMT-82"/>
      <use x="100" xlink:href="#ArialMT-101"/>
      <use x="155.615234" xlink:href="#ArialMT-99"/>
      <use x="205.615234" xlink:href="#ArialMT-111"/>
      <use x="261.230469" xlink:href="#ArialMT-118"/>
      <use x="311.230469" xlink:href="#ArialMT-101"/>
      <use x="366.845703" xlink:href="#ArialMT-114"/>
      <use x="400.146484" xlink:href="#ArialMT-121"/>
      <use x="450.146484" xlink:href="#ArialMT-32"/>
      <use x="477.929688" xlink:href="#ArialMT-40"/>
      <use x="511.230469" xlink:href="#ArialMT-37"/>
      <use x="600.146484" xlink:href="#ArialMT-41"/>
     </g>
    </g>
   </g>
   <g id="line2d_9">
    <path clip-path="url(#p560d16ceb8)" d="M 54.824871 100.36 
L 54.912004 100.278284 
L 56.175438 97.208097 
L 56.741804 95.912315 
L 57.438871 94.336364 
L 57.569571 94.126237 
L 58.397337 92.223421 
L 58.571604 91.896557 
L 59.137971 90.682491 
L 59.399371 89.958721 
L 59.791471 88.873066 
L 61.359871 84.950698 
L 61.577704 84.390359 
L 62.318337 82.849429 
L 62.405471 82.685997 
L 62.710438 82.219049 
L 62.971837 81.728753 
L 63.668904 80.444644 
L 63.843171 80.187822 
L 64.365971 79.160536 
L 64.845204 78.285007 
L 65.019471 77.958143 
L 65.411571 77.152657 
L 65.890804 76.055328 
L 66.979971 74.245902 
L 67.415638 73.3587 
L 67.633471 72.915099 
L 67.720604 72.85673 
L 68.112704 72.308066 
L 68.199838 72.214676 
L 68.417671 71.806096 
L 68.679071 71.292452 
L 69.245438 70.358555 
L 70.029638 69.249553 
L 70.116771 69.156163 
L 70.334604 68.805951 
L 70.378171 68.829299 
L 70.421737 68.747583 
L 70.552438 68.619172 
L 71.510904 67.054894 
L 71.685171 66.763051 
L 71.903004 66.50623 
L 71.990138 66.459535 
L 72.164404 66.144345 
L 72.382237 65.840828 
L 72.992171 65.1871 
L 73.166438 65.000321 
L 73.558537 64.46333 
L 73.689237 64.218182 
L 73.994204 63.73956 
L 75.126938 62.058545 
L 75.475471 61.393143 
L 75.519037 61.404817 
L 75.780438 60.937868 
L 75.954704 60.961216 
L 76.346804 60.505941 
L 76.390371 60.540962 
L 76.433938 60.482593 
L 76.651771 60.295814 
L 76.738904 60.225772 
L 77.043871 59.863887 
L 77.305271 59.431959 
L 77.479537 59.513675 
L 78.350871 58.451367 
L 78.742971 57.92605 
L 78.830104 57.92605 
L 79.178638 57.435754 
L 79.222204 57.470775 
L 79.440037 57.143911 
L 79.614304 57.027174 
L 80.224237 55.988214 
L 80.267804 56.011561 
L 80.659904 55.556286 
L 80.834171 55.462896 
L 80.877737 55.497918 
L 80.921304 55.392854 
L 81.008438 55.38118 
L 81.269838 55.101011 
L 81.487671 54.995948 
L 81.618371 54.914232 
L 81.705504 54.820842 
L 81.923338 54.552347 
L 82.271871 54.190462 
L 82.446138 54.120419 
L 82.707537 53.758534 
L 83.186771 53.198196 
L 83.361037 53.139827 
L 83.535304 52.941374 
L 83.622438 52.953048 
L 83.666004 52.999743 
L 83.709571 52.918027 
L 84.014537 52.684553 
L 84.101671 52.637858 
L 84.493771 52.229278 
L 84.711604 51.89074 
L 84.755171 51.925761 
L 84.798737 51.855719 
L 85.060138 51.57555 
L 85.234404 51.587223 
L 85.670071 51.248686 
L 86.759237 49.929556 
L 87.107771 49.567671 
L 87.151338 49.602692 
L 87.194904 49.497629 
L 87.674138 48.995659 
L 88.240504 48.271889 
L 88.414771 48.248541 
L 88.632604 47.968372 
L 88.676171 47.99172 
L 88.719737 47.89833 
L 88.981138 47.594813 
L 89.242537 47.419708 
L 89.329671 47.314644 
L 89.896037 46.730959 
L 90.113871 46.427442 
L 90.462404 46.100578 
L 90.549537 45.983841 
L 91.333737 45.295092 
L 91.508004 45.295092 
L 91.725838 45.143333 
L 91.856537 45.014923 
L 92.074371 44.781448 
L 92.379338 44.571321 
L 92.466471 44.606343 
L 93.076404 44.046004 
L 93.163537 44.046004 
L 93.424938 43.835877 
L 93.599204 43.929267 
L 93.642771 43.835877 
L 93.817037 43.695793 
L 94.165571 43.40395 
L 94.993338 42.668506 
L 95.036904 42.750222 
L 95.080471 42.656832 
L 95.472571 42.4934 
L 95.777537 42.049799 
L 95.951804 42.073147 
L 96.038938 41.979757 
L 96.082504 42.026452 
L 96.213204 42.061473 
L 96.387471 41.86302 
L 96.431037 41.921388 
L 96.605304 41.641219 
L 96.736004 41.606198 
L 96.866704 41.54783 
L 97.128104 41.279334 
L 97.258804 41.26766 
L 97.650904 40.987491 
L 97.694471 41.022512 
L 97.738037 40.95247 
L 97.868737 40.777364 
L 97.999438 40.602259 
L 98.217271 40.287068 
L 98.260838 40.333763 
L 98.478671 40.333763 
L 98.652938 40.240374 
L 98.914338 40.146984 
L 99.132171 39.901836 
L 99.219304 39.82012 
L 99.393571 39.668362 
L 99.567838 39.738404 
L 99.785671 39.376519 
L 100.221338 39.399866 
L 100.264904 39.493256 
L 100.308471 39.41154 
L 100.831271 39.084676 
L 100.961971 39.037981 
L 101.223371 39.061328 
L 101.354071 39.189739 
L 101.397638 39.061328 
L 101.789737 38.769486 
L 101.964004 38.886223 
L 102.138271 38.792833 
L 102.312537 38.816181 
L 102.356104 38.851202 
L 102.399671 38.792833 
L 102.791771 38.59438 
L 102.878904 38.524338 
L 102.966037 38.384253 
L 103.009604 38.419274 
L 103.271004 38.384253 
L 103.663104 37.905631 
L 104.185904 37.812241 
L 104.882971 37.555419 
L 105.013671 37.46203 
L 105.318638 37.27525 
L 105.536471 37.298598 
L 105.580037 37.36864 
L 105.623604 37.310271 
L 105.797871 37.111818 
L 105.841438 37.170187 
L 105.885004 37.05345 
L 106.059271 36.995081 
L 106.102838 37.041776 
L 106.146404 36.995081 
L 106.364238 36.913365 
L 106.407804 36.878344 
L 106.451371 36.948386 
L 106.582071 36.936713 
L 106.799904 36.726586 
L 107.192004 36.55148 
L 107.409838 36.843323 
L 107.540537 36.738259 
L 108.237604 36.411395 
L 108.324737 36.539806 
L 108.368304 36.481438 
L 108.542571 36.294658 
L 108.673271 36.306332 
L 109.065371 36.166247 
L 109.239638 36.014489 
L 109.326771 35.967794 
L 109.544604 36.166247 
L 109.675304 36.096205 
L 109.806004 36.1429 
L 110.459504 35.745994 
L 110.503071 35.804362 
L 110.546638 35.73432 
L 110.677338 35.605909 
L 110.938738 35.430803 
L 111.243704 35.302393 
L 111.330838 35.407456 
L 111.374404 35.384109 
L 111.679371 35.477498 
L 111.853638 35.617583 
L 112.332871 35.570888 
L 112.463571 35.41913 
L 112.507138 35.477498 
L 114.424071 34.543601 
L 114.554771 34.648665 
L 114.598338 34.60197 
L 114.772604 34.660338 
L 114.946871 34.345148 
L 115.121138 34.298453 
L 115.208271 34.216737 
L 115.469671 34.00661 
L 115.861771 33.69142 
L 116.079604 33.656399 
L 116.384571 33.551336 
L 116.994504 33.481293 
L 117.081638 33.422925 
L 117.168771 33.492967 
L 117.517304 32.955976 
L 117.735138 33.037692 
L 117.822271 33.072713 
L 118.040104 32.815892 
L 118.083671 32.897608 
L 118.214371 32.885934 
L 118.824304 32.65246 
L 118.911438 32.570744 
L 119.042138 32.582417 
L 119.085704 32.617438 
L 119.129271 32.512375 
L 119.303537 32.313922 
L 119.434237 32.302248 
L 119.564938 32.173837 
L 119.695638 32.045426 
L 119.739204 32.127142 
L 119.913471 32.197185 
L 120.262004 31.905342 
L 120.392704 31.870321 
L 120.436271 31.753584 
L 120.523404 31.823626 
L 120.610537 31.74191 
L 120.654104 31.823626 
L 120.828371 31.800278 
L 120.959071 31.671868 
L 121.089771 31.636846 
L 121.176904 31.625173 
L 121.351171 31.706889 
L 121.438304 31.730236 
L 121.612571 31.578478 
L 121.786838 31.706889 
L 122.091804 31.590152 
L 122.222504 31.520109 
L 122.309638 31.391698 
L 122.353204 31.438393 
L 122.527471 31.508436 
L 122.571037 31.42672 
L 122.614604 31.473414 
L 122.876004 31.55513 
L 123.006704 31.485088 
L 123.093838 31.543457 
L 123.137404 31.485088 
L 123.311671 31.450067 
L 123.790904 30.948097 
L 124.139438 30.959771 
L 124.270138 30.92475 
L 124.357271 30.83136 
L 124.487971 30.761318 
L 124.792938 30.878055 
L 125.054338 30.784665 
L 125.359304 30.656255 
L 125.577138 30.667928 
L 125.751404 30.574539 
L 126.143504 30.481149 
L 126.230638 30.446128 
L 126.274204 30.527844 
L 126.535604 30.866381 
L 126.666304 30.691276 
L 126.709871 30.749644 
L 126.971271 30.737971 
L 127.232671 30.586212 
L 127.406938 30.667928 
L 127.450504 30.691276 
L 127.494071 30.597886 
L 127.581204 30.51617 
L 127.624771 30.597886 
L 127.711904 30.644581 
L 127.842604 30.702949 
L 128.016871 30.492823 
L 128.191138 30.446128 
L 128.365404 30.562865 
L 128.408971 30.457801 
L 128.452537 30.481149 
L 128.496104 30.551191 
L 128.583237 30.492823 
L 128.626804 30.527844 
L 128.670371 30.411107 
L 128.757504 30.492823 
L 128.888204 30.539517 
L 129.018904 30.656255 
L 129.541704 30.446128 
L 129.715971 30.574539 
L 129.890238 30.667928 
L 130.500171 30.562865 
L 130.674438 30.562865 
L 130.718004 30.632907 
L 130.761571 30.539517 
L 130.979404 30.42278 
L 131.066537 30.504496 
L 131.240804 30.212653 
L 131.284371 30.236001 
L 131.545771 30.049221 
L 131.850738 30.130937 
L 132.025004 29.955832 
L 132.809204 29.60562 
L 133.027037 29.675663 
L 133.941938 29.442188 
L 134.029071 29.593947 
L 134.072638 29.477209 
L 134.246904 29.442188 
L 134.508304 29.348799 
L 134.726138 29.360472 
L 134.943971 29.29043 
L 135.074671 29.29043 
L 135.336071 28.905197 
L 135.379638 28.998587 
L 135.553904 29.010261 
L 135.684604 28.905197 
L 135.946004 28.998587 
L 136.381671 29.126998 
L 136.599504 28.870176 
L 136.686638 28.905197 
L 136.730204 28.951892 
L 136.773771 28.846829 
L 136.948037 28.940219 
L 137.078737 29.021935 
L 137.122304 29.068629 
L 137.165871 28.97524 
L 137.601537 28.660049 
L 137.775804 28.47327 
L 137.819371 28.47327 
L 137.862938 28.590007 
L 137.906504 28.449923 
L 138.124338 28.625028 
L 138.211471 28.543312 
L 138.255037 28.578333 
L 138.298604 28.648376 
L 138.385738 28.590007 
L 138.516438 28.601681 
L 138.647138 28.601681 
L 138.864971 28.578333 
L 138.952104 28.56666 
L 139.039238 28.47327 
L 139.082804 28.519965 
L 139.213504 28.508291 
L 139.474904 28.309838 
L 139.562037 28.274817 
L 139.692737 28.181427 
L 139.910571 28.344859 
L 140.084838 28.181427 
L 140.215537 28.193101 
L 140.825471 28.263143 
L 140.869037 28.321512 
L 140.912604 28.263143 
L 141.086871 28.298164 
L 141.174004 28.368207 
L 141.217571 28.286491 
L 141.391838 28.111385 
L 141.783938 28.309838 
L 142.001771 28.274817 
L 142.045338 28.368207 
L 142.088904 28.309838 
L 142.263171 28.193101 
L 142.306737 28.286491 
L 142.350304 28.216448 
L 142.829537 27.9713 
L 143.308771 27.9713 
L 143.352338 27.854563 
L 143.439471 27.924605 
L 143.570171 28.017995 
L 143.788004 27.842889 
L 143.918704 27.947953 
L 144.092971 27.761173 
L 144.136537 27.796195 
L 144.267237 27.7495 
L 144.397938 27.854563 
L 144.659338 27.597741 
L 144.833604 27.597741 
L 144.964304 27.375941 
L 145.007871 27.410962 
L 145.225704 27.586068 
L 145.617804 27.305899 
L 145.966338 27.597741 
L 146.445571 27.56272 
L 146.532704 27.527699 
L 146.706971 27.434309 
L 147.621871 27.621089 
L 147.926838 27.434309 
L 147.970404 27.516025 
L 148.013971 27.457657 
L 148.188238 27.387615 
L 148.318938 27.375941 
L 148.406071 27.329246 
L 148.449638 27.375941 
L 148.885304 27.399288 
L 149.146704 27.224183 
L 149.408104 27.24753 
L 149.495238 27.200835 
L 149.538804 27.294225 
L 149.582371 27.270877 
L 149.713071 27.177488 
L 149.800204 27.259204 
L 149.843771 27.235856 
L 149.930904 27.095772 
L 149.974471 27.130793 
L 150.018037 27.15414 
L 150.061604 27.072424 
L 150.192304 26.93234 
L 150.323004 26.897319 
L 150.410138 26.698866 
L 150.453704 26.768908 
L 150.540838 26.710539 
L 150.671537 26.850624 
L 151.063638 26.628823 
L 151.281471 26.792255 
L 151.760704 26.768908 
L 151.804271 26.885645 
L 151.891404 26.815603 
L 151.978537 26.815603 
L 152.196371 26.628823 
L 152.414204 26.675518 
L 152.501338 26.582128 
L 152.544904 26.640497 
L 152.675604 26.757234 
L 152.762738 26.722213 
L 152.980571 26.885645 
L 153.851904 26.792255 
L 153.939037 26.710539 
L 154.113304 26.920666 
L 154.287571 26.955687 
L 154.331138 26.908992 
L 154.374704 26.955687 
L 154.505404 27.002382 
L 154.636104 27.107445 
L 154.810371 27.212509 
L 155.028204 27.317572 
L 155.158904 27.189161 
L 155.202471 27.270877 
L 155.246037 27.329246 
L 155.289604 27.282551 
L 155.463871 27.177488 
L 155.638138 27.189161 
L 155.725271 27.24753 
L 155.768838 27.200835 
L 155.943104 27.259204 
L 155.986671 27.130793 
L 156.073804 27.165814 
L 156.204504 27.095772 
L 156.248071 27.002382 
L 156.335204 27.049077 
L 156.465904 27.060751 
L 156.683738 26.850624 
L 156.901571 26.83895 
L 156.945138 26.803929 
L 156.988704 26.862298 
L 157.119404 26.850624 
L 157.337238 26.722213 
L 157.424371 26.698866 
L 157.467938 26.582128 
L 157.555071 26.652171 
L 157.947171 26.547107 
L 158.077871 26.628823 
L 158.208571 26.512086 
L 158.426404 26.488739 
L 158.469971 26.465391 
L 158.557104 26.593802 
L 158.600671 26.52376 
L 159.210604 26.266938 
L 159.428438 26.348654 
L 159.776971 26.52376 
L 159.994804 26.325307 
L 160.169071 26.383675 
L 160.343338 26.442044 
L 160.561171 26.266938 
L 160.735438 26.407023 
L 160.996838 26.360328 
L 161.171104 26.605476 
L 161.432504 26.570455 
L 161.606771 26.512086 
L 161.868171 26.512086 
L 161.955304 26.372002 
L 161.998871 26.43037 
L 162.129571 26.582128 
L 162.173138 26.535434 
L 162.739504 26.278612 
L 162.913771 26.372002 
L 163.697971 26.266938 
L 163.872238 26.360328 
L 164.046504 26.243591 
L 164.395037 26.407023 
L 164.482171 26.395349 
L 164.525738 26.442044 
L 164.569304 26.33698 
L 164.874271 26.348654 
L 165.004971 26.20857 
L 165.048537 26.243591 
L 165.222804 26.231917 
L 165.440638 26.231917 
L 165.658471 26.325307 
L 165.876304 26.266938 
L 166.181271 26.243591 
L 166.355537 26.278612 
L 166.442671 26.360328 
L 166.486238 26.290286 
L 166.573371 26.220243 
L 166.616938 26.278612 
L 167.531838 26.20857 
L 167.706104 26.103506 
L 167.793238 26.080159 
L 168.054638 26.407023 
L 168.446738 26.325307 
L 168.533871 26.301959 
L 168.795271 26.512086 
L 169.100238 26.150201 
L 169.143804 26.243591 
L 169.187371 26.173548 
L 169.579471 26.080159 
L 169.666604 26.103506 
L 169.884438 25.893379 
L 170.102271 26.220243 
L 170.145838 26.161875 
L 170.407238 25.811663 
L 170.494371 25.729947 
L 170.581504 25.683252 
L 170.799338 25.835011 
L 172.498438 25.006177 
L 172.629138 25.11124 
L 172.759838 24.924461 
L 173.021238 24.88944 
L 173.195504 24.831071 
L 173.718304 24.772703 
L 173.979704 24.924461 
L 174.241104 24.807724 
L 174.371804 24.936135 
L 174.415371 24.912787 
L 174.458938 24.854419 
L 174.502504 24.912787 
L 174.720338 24.971156 
L 175.068871 24.924461 
L 175.112438 24.842745 
L 175.156004 24.947808 
L 175.286704 25.064546 
L 175.330271 24.994503 
L 175.460971 25.146262 
L 175.548104 25.286346 
L 175.591671 25.146262 
L 175.635238 25.192956 
L 175.678804 25.251325 
L 175.722371 25.192956 
L 176.114471 25.134588 
L 176.245171 25.216304 
L 176.332304 25.181283 
L 176.724404 24.98283 
L 177.072938 25.029524 
L 177.290771 24.749355 
L 177.334338 24.819398 
L 177.552171 24.819398 
L 177.726438 24.936135 
L 177.944271 24.761029 
L 178.074971 24.842745 
L 178.118537 24.761029 
L 178.292804 24.620944 
L 178.728471 24.866092 
L 178.772037 24.772703 
L 178.946304 24.690987 
L 179.338404 24.667639 
L 179.381971 24.690987 
L 179.425537 24.609271 
L 179.774071 24.457512 
L 180.601838 24.562576 
L 180.645404 24.644292 
L 180.732537 24.585923 
L 180.993938 24.831071 
L 181.037504 24.772703 
L 181.168204 24.749355 
L 181.298904 24.726008 
L 181.386037 24.644292 
L 181.429604 24.737682 
L 181.473171 24.737682 
L 181.647438 24.924461 
L 181.821704 24.936135 
L 182.213804 24.831071 
L 182.431638 24.912787 
L 182.562338 24.714334 
L 182.605904 24.761029 
L 183.172271 24.854419 
L 183.302971 24.854419 
L 183.956471 24.924461 
L 184.392138 24.609271 
L 184.653537 24.609271 
L 184.827804 24.550902 
L 184.871371 24.620944 
L 184.914938 24.550902 
L 185.176338 24.504207 
L 185.612004 24.562576 
L 186.047671 24.247386 
L 186.221938 24.492534 
L 186.265504 24.457512 
L 186.483338 24.504207 
L 186.657604 24.364123 
L 187.093271 24.620944 
L 187.267537 24.585923 
L 187.572504 24.70266 
L 187.659638 24.609271 
L 187.746771 24.492534 
L 187.790338 24.539228 
L 187.964604 24.690987 
L 188.051738 24.70266 
L 188.182438 24.597597 
L 188.313138 24.690987 
L 188.487404 24.609271 
L 188.530971 24.690987 
L 188.574537 24.667639 
L 188.835938 24.457512 
L 189.271604 24.270733 
L 189.315171 24.200691 
L 189.358738 24.270733 
L 189.620138 24.38747 
L 189.707271 24.189017 
L 189.750838 24.224038 
L 189.968671 24.270733 
L 190.186504 24.224038 
L 190.404338 24.329102 
L 190.578604 24.445839 
L 190.752871 24.317428 
L 190.927138 24.282407 
L 191.232104 24.07228 
L 191.275671 24.153996 
L 191.319238 24.118975 
L 191.493504 24.048932 
L 191.580638 24.013911 
L 191.624204 24.118975 
L 191.667771 24.025585 
L 191.972738 23.97889 
L 192.147004 24.153996 
L 192.321271 24.224038 
L 192.800504 24.16567 
L 192.887638 24.037259 
L 192.931204 24.130648 
L 193.061904 24.177343 
L 193.366871 23.943869 
L 193.541138 24.07228 
L 193.715404 24.048932 
L 193.976804 24.142322 
L 194.020371 24.118975 
L 194.063938 24.235712 
L 194.151071 24.177343 
L 194.456037 24.083954 
L 194.673871 23.908848 
L 194.717438 24.002238 
L 195.109537 24.410818 
L 195.153104 24.364123 
L 195.632338 24.118975 
L 195.763037 24.095627 
L 196.547238 23.768763 
L 196.590804 23.803784 
L 196.721504 23.698721 
L 196.765071 23.75709 
L 196.808638 23.6637 
L 197.113604 23.500268 
L 197.287871 23.383531 
L 197.897804 23.488594 
L 198.072071 23.406878 
L 198.377037 23.675374 
L 198.507738 23.6637 
L 199.379071 23.6637 
L 199.509771 23.535289 
L 200.337537 23.383531 
L 200.381104 23.453573 
L 200.424671 23.383531 
L 200.598938 23.383531 
L 200.773204 23.535289 
L 200.816771 23.453573 
L 200.860338 23.511942 
L 200.903904 23.581984 
L 200.947471 23.546963 
L 201.121738 23.453573 
L 201.339571 23.546963 
L 201.600971 23.47692 
L 201.688104 23.430226 
L 201.731671 23.465247 
L 202.210904 23.605331 
L 202.385171 23.500268 
L 202.559438 23.500268 
L 203.343638 23.628679 
L 203.605037 23.581984 
L 204.040704 23.75709 
L 204.214971 23.546963 
L 204.302104 23.617005 
L 204.519938 23.208425 
L 204.607071 23.266794 
L 204.650638 23.220099 
L 204.737771 23.115035 
L 204.781338 23.150056 
L 205.217004 22.963277 
L 205.347704 23.021646 
L 205.434838 22.869887 
L 205.478404 22.904909 
L 205.652671 23.056667 
L 205.914071 22.869887 
L 205.957638 22.951603 
L 206.088338 22.986625 
L 206.219037 22.928256 
L 206.698271 23.009972 
L 206.872537 23.080014 
L 207.221071 22.986625 
L 207.264638 22.916582 
L 207.308204 22.951603 
L 207.526037 23.173404 
L 208.223104 23.06834 
L 208.484504 23.16173 
L 208.571638 23.056667 
L 208.615204 23.138383 
L 209.007304 23.138383 
L 209.268704 23.371857 
L 210.140037 23.231772 
L 210.532138 23.231772 
L 210.619271 23.196751 
L 210.662838 23.25512 
L 210.706404 23.208425 
L 210.793537 23.091688 
L 210.837104 23.115035 
L 210.924238 23.138383 
L 211.011371 23.185078 
L 211.054938 23.103362 
L 211.185638 23.009972 
L 211.229204 23.056667 
L 211.403471 23.278467 
L 211.664871 23.196751 
L 211.882704 23.290141 
L 212.013404 23.266794 
L 212.187671 23.418552 
L 212.449071 23.325162 
L 212.492638 23.360183 
L 212.536204 23.266794 
L 213.189704 23.021646 
L 213.320404 22.951603 
L 213.625371 23.009972 
L 213.799638 23.231772 
L 214.017471 23.290141 
L 214.061037 23.243446 
L 214.104604 23.34851 
L 214.235304 23.34851 
L 215.063071 22.811519 
L 216.195804 22.718129 
L 216.413638 22.648087 
L 216.718604 22.75315 
L 216.892871 22.683108 
L 217.110704 22.636413 
L 217.241404 22.636413 
L 217.415671 22.823193 
L 217.589938 22.718129 
L 217.633504 22.823193 
L 217.720638 22.764824 
L 217.807771 22.811519 
L 217.851338 22.75315 
L 217.938471 22.729803 
L 218.069171 22.776498 
L 218.287004 22.75315 
L 218.461271 22.834866 
L 218.591971 22.729803 
L 218.635537 22.764824 
L 220.465338 22.694782 
L 220.639604 22.508002 
L 220.683171 22.53135 
L 220.726738 22.43796 
L 221.031704 22.449634 
L 221.075271 22.484655 
L 221.118838 22.414613 
L 221.728771 22.356244 
L 221.903037 22.309549 
L 222.077304 22.227833 
L 222.469404 22.356244 
L 222.556537 22.321223 
L 222.600104 22.367918 
L 222.774371 22.379591 
L 222.992204 22.216159 
L 223.515004 22.006033 
L 223.645704 22.006033 
L 223.776404 21.994359 
L 223.907104 21.807579 
L 223.950671 21.854274 
L 224.081371 21.877622 
L 224.168504 21.795906 
L 224.386338 21.900969 
L 224.517037 21.947664 
L 224.604171 22.017706 
L 224.691304 22.076075 
L 224.734871 22.02938 
L 224.909138 21.982685 
L 225.083404 22.146117 
L 225.475504 22.12277 
L 225.606204 22.12277 
L 225.649771 22.052727 
L 225.693338 22.111096 
L 225.867604 22.192812 
L 226.433971 22.006033 
L 226.608238 22.286202 
L 226.738938 22.332897 
L 226.826071 22.472981 
L 226.869638 22.449634 
L 227.087471 22.43796 
L 227.479571 22.881561 
L 227.523138 22.84654 
L 227.653838 22.741477 
L 228.002371 22.414613 
L 228.612304 22.916582 
L 228.743004 22.951603 
L 228.830138 22.928256 
L 228.873704 22.811519 
L 228.917271 22.928256 
L 229.135104 22.881561 
L 229.265804 23.009972 
L 229.309371 22.963277 
L 229.440071 22.93993 
L 229.832171 22.951603 
L 229.919304 23.009972 
L 230.006438 23.091688 
L 230.050004 23.021646 
L 230.224271 22.998298 
L 230.529238 23.138383 
L 230.834204 22.998298 
L 231.052037 23.033319 
L 231.182738 23.009972 
L 231.313438 23.044993 
L 231.357004 23.033319 
L 231.531271 23.25512 
L 231.618404 23.290141 
L 231.792671 23.371857 
L 231.966938 23.220099 
L 232.141204 23.325162 
L 232.446171 23.220099 
L 232.576871 23.06834 
L 232.794704 23.220099 
L 232.968971 23.150056 
L 233.143238 23.25512 
L 233.361071 23.044993 
L 233.535338 23.033319 
L 234.319537 22.974951 
L 234.363104 22.893235 
L 234.406671 22.951603 
L 234.537371 23.044993 
L 234.624504 23.021646 
L 234.842338 22.776498 
L 235.190871 22.904909 
L 235.234438 22.858214 
L 235.278004 22.916582 
L 235.670104 23.103362 
L 235.800804 23.06834 
L 235.975071 22.963277 
L 236.062204 22.881561 
L 236.105771 22.916582 
L 236.410738 22.986625 
L 236.541438 22.881561 
L 236.715704 22.811519 
L 236.933537 22.928256 
L 237.020671 22.916582 
L 237.107804 22.974951 
L 237.151371 22.93993 
L 237.325638 23.009972 
L 237.369204 23.126709 
L 237.456338 23.06834 
L 237.543471 23.080014 
L 237.717738 23.173404 
L 237.892004 23.220099 
L 237.892004 23.220099 
" style="fill:none;stroke:#d55e00;stroke-linecap:round;stroke-width:2;"/>
   </g>
   <g id="line2d_10">
    <path clip-path="url(#p560d16ceb8)" d="M 54.824871 100.36 
L 54.912004 100.279507 
L 56.044737 97.252969 
L 56.349704 96.532557 
L 60.270704 88.108962 
L 60.488538 87.722595 
L 60.880638 87.03438 
L 61.054904 86.684235 
L 61.708404 85.488914 
L 62.623304 84.140656 
L 62.971837 83.557081 
L 67.023538 77.399365 
L 67.720604 76.465646 
L 68.069138 76.035008 
L 68.330538 75.765357 
L 68.591938 75.471557 
L 68.984038 74.944328 
L 70.029638 73.471305 
L 70.247471 73.274098 
L 70.683138 72.577833 
L 71.598037 71.595818 
L 72.251537 70.899553 
L 72.382237 70.843208 
L 72.861471 70.271708 
L 73.776371 69.38226 
L 74.386304 68.726242 
L 74.473438 68.665872 
L 75.126938 67.87704 
L 77.566671 65.756049 
L 77.697371 65.719827 
L 78.089471 65.434077 
L 78.394438 65.120154 
L 78.481571 65.096006 
L 79.047938 64.621098 
L 79.178638 64.524506 
L 79.527171 64.226682 
L 80.049971 63.836291 
L 80.311371 63.542491 
L 80.877737 62.942818 
L 81.095571 62.753659 
L 81.400537 62.588649 
L 81.531237 62.51218 
L 82.228304 62.009099 
L 82.794671 61.542239 
L 83.535304 61.079404 
L 84.363071 60.536077 
L 84.580904 60.286548 
L 85.016571 60.125562 
L 85.321537 59.936404 
L 85.408671 59.851886 
L 85.757204 59.57821 
L 86.062171 59.385026 
L 86.410704 59.079153 
L 86.933504 58.70486 
L 87.848404 58.238001 
L 87.979104 58.209828 
L 88.196938 58.068965 
L 88.850438 57.654426 
L 89.068271 57.557835 
L 90.244571 56.833397 
L 90.505971 56.579844 
L 90.723804 56.398735 
L 90.985204 56.209577 
L 91.203037 56.000295 
L 94.339838 54.358237 
L 94.426971 54.32604 
L 94.819071 54.128832 
L 96.561737 53.215236 
L 96.910271 53.009979 
L 97.345938 52.997905 
L 97.738037 52.82082 
L 98.043004 52.744352 
L 98.304404 52.615563 
L 98.522237 52.426404 
L 98.696504 52.333837 
L 98.827204 52.281517 
L 98.957904 52.273468 
L 99.524271 52.027964 
L 99.654971 51.927348 
L 100.047071 51.710017 
L 101.179804 51.484636 
L 101.441204 51.589277 
L 101.615471 51.545006 
L 102.225404 51.283404 
L 102.573938 51.126442 
L 107.104871 49.552804 
L 107.279138 49.504508 
L 107.976204 49.339497 
L 108.194037 49.295226 
L 108.455438 49.242905 
L 108.673271 49.142289 
L 109.108938 49.077895 
L 109.413904 48.892761 
L 109.893138 48.784095 
L 110.154537 48.816292 
L 110.895171 48.450049 
L 111.025871 48.413827 
L 111.722938 47.950992 
L 111.853638 47.979165 
L 112.158604 47.878549 
L 112.420004 47.721587 
L 112.812104 47.588774 
L 113.029938 47.564626 
L 114.946871 46.783843 
L 115.251838 46.76372 
L 115.426104 46.767745 
L 115.643938 46.767745 
L 115.774638 46.679203 
L 116.602404 46.373329 
L 116.733104 46.361255 
L 117.648004 45.862198 
L 117.822271 45.910494 
L 117.996537 45.878297 
L 118.170804 45.89842 
L 119.347104 45.580473 
L 119.695638 45.423511 
L 120.000604 45.294723 
L 121.089771 45.077391 
L 121.307604 45.105564 
L 121.438304 45.021046 
L 121.743271 44.936529 
L 121.873971 44.940553 
L 122.004671 44.936529 
L 122.527471 44.815789 
L 122.832438 44.872134 
L 123.093838 44.731271 
L 123.224537 44.755419 
L 123.398804 44.779567 
L 123.660204 44.743345 
L 124.052304 44.719197 
L 124.575104 44.473694 
L 124.749371 44.530039 
L 124.923638 44.517965 
L 125.751404 44.171845 
L 125.969237 44.240264 
L 126.143504 44.183919 
L 129.193171 43.692911 
L 129.411004 43.765355 
L 130.500171 43.568147 
L 130.718004 43.479605 
L 132.722071 43.222027 
L 133.724104 43.113362 
L 133.898371 43.048967 
L 134.159771 42.944326 
L 134.290471 42.912129 
L 136.643071 42.561984 
L 136.773771 42.638453 
L 136.904471 42.61833 
L 137.209438 42.606256 
L 137.557971 42.392949 
L 138.429304 42.3849 
L 138.690704 42.364777 
L 138.908537 42.276234 
L 139.300638 42.26416 
L 140.171971 42.356727 
L 140.346238 42.280259 
L 140.738338 42.207815 
L 142.742404 42.135371 
L 142.960238 42.006583 
L 143.090938 42.066952 
L 143.265204 42.062928 
L 143.700871 42.075002 
L 144.092971 42.03073 
L 144.397938 41.833523 
L 144.572204 41.85767 
L 144.659338 41.75303 
L 144.702904 41.781202 
L 145.095004 41.845596 
L 145.399971 41.728882 
L 145.661371 41.765103 
L 146.053471 41.700709 
L 146.489138 41.696684 
L 146.968371 41.527649 
L 147.142638 41.5196 
L 148.449638 41.390811 
L 148.623904 41.282145 
L 148.928871 41.229825 
L 149.364537 41.209702 
L 149.538804 41.072863 
L 149.756638 41.072863 
L 149.887338 41.068839 
L 149.974471 41.076888 
L 150.105171 41.048716 
L 150.279438 40.960173 
L 150.453704 40.915902 
L 150.889371 40.811261 
L 151.107204 40.795163 
L 151.237904 40.686497 
L 151.630004 40.457092 
L 151.847838 40.477215 
L 152.196371 40.436969 
L 152.327071 40.404771 
L 152.544904 40.284032 
L 152.675604 40.336352 
L 152.937004 40.171342 
L 152.980571 40.255859 
L 154.418271 40.046577 
L 154.592537 39.982183 
L 155.289604 39.881567 
L 155.463871 39.84937 
L 155.768838 39.825222 
L 155.943104 39.84132 
L 156.335204 39.821197 
L 156.727304 39.897665 
L 156.858004 39.873517 
L 157.206537 39.857419 
L 158.165004 39.797049 
L 158.252138 39.724605 
L 158.295704 39.78095 
L 158.687804 39.817172 
L 159.079904 39.660211 
L 159.472004 39.724605 
L 159.733404 39.752778 
L 159.951238 39.793024 
L 161.345371 39.885591 
L 161.606771 39.90169 
L 161.824604 39.881567 
L 162.129571 39.945961 
L 162.347404 39.897665 
L 162.608804 39.913764 
L 162.913771 39.756803 
L 163.262304 39.595816 
L 164.002938 39.515323 
L 164.264338 39.386535 
L 164.525738 39.438855 
L 164.612871 39.446904 
L 164.787138 39.491176 
L 165.614904 39.338239 
L 165.789171 39.410683 
L 166.704071 39.342263 
L 166.921904 39.350313 
L 167.749671 39.410683 
L 167.880371 39.390559 
L 168.403171 39.394584 
L 168.882404 39.293968 
L 169.056671 39.181277 
L 169.230938 39.15713 
L 169.448771 39.016267 
L 169.623037 38.951872 
L 169.884438 38.899552 
L 170.450804 39.012242 
L 170.755771 38.879429 
L 172.759838 38.963946 
L 173.021238 38.98407 
L 173.674738 38.963946 
L 173.892571 38.919675 
L 173.979704 38.843207 
L 174.023271 38.883453 
L 174.284671 38.847231 
L 174.981738 38.754664 
L 175.373838 38.806985 
L 176.027338 38.565506 
L 177.421471 38.722467 
L 177.639304 38.714418 
L 177.857138 38.625876 
L 178.162104 38.505136 
L 178.684904 38.412569 
L 179.164138 38.267682 
L 179.294838 38.271706 
L 179.730504 38.211336 
L 179.948338 38.251583 
L 180.166171 38.183164 
L 181.386037 38.122794 
L 181.516738 38.090597 
L 182.998004 37.756551 
L 183.172271 37.857167 
L 183.477238 37.780699 
L 183.564371 37.845093 
L 183.607938 37.816921 
L 183.825771 37.816921 
L 183.956471 37.804847 
L 184.130738 37.853143 
L 184.261438 37.917537 
L 184.435704 38.034252 
L 185.176338 37.849118 
L 185.437737 37.881315 
L 185.699138 37.696181 
L 185.742704 37.748502 
L 186.526904 37.494949 
L 186.788304 37.458727 
L 187.877471 37.474825 
L 188.095304 37.422505 
L 188.269571 37.470801 
L 188.443838 37.434579 
L 188.748804 37.406406 
L 188.923071 37.390308 
L 189.097338 37.474825 
L 189.315171 37.337987 
L 189.881537 37.25347 
L 190.099371 37.281642 
L 190.535037 37.285667 
L 190.709304 37.293716 
L 190.796438 37.342012 
L 190.840004 37.293716 
L 191.188537 37.201149 
L 191.275671 37.156878 
L 191.406371 37.18505 
L 192.103438 37.152853 
L 192.931204 37.024064 
L 193.018338 36.991867 
L 193.192604 36.887226 
L 193.497571 36.826856 
L 193.671838 36.750388 
L 194.151071 36.730265 
L 194.238204 36.782585 
L 194.281771 36.738314 
L 194.630304 36.810758 
L 196.416537 37.052237 
L 196.590804 36.999916 
L 196.939338 36.90735 
L 197.157171 36.834906 
L 197.287871 36.730265 
L 197.679971 36.722216 
L 197.897804 36.649772 
L 198.072071 36.649772 
L 198.202771 36.621599 
L 198.333471 36.573303 
L 198.464171 36.557205 
L 198.638438 36.496835 
L 198.812704 36.50086 
L 198.943404 36.49281 
L 200.729638 36.428416 
L 200.947471 36.533057 
L 201.470271 36.480736 
L 202.254471 36.299627 
L 202.428738 36.359997 
L 202.646571 36.388169 
L 202.995104 36.364022 
L 203.517904 36.223159 
L 203.692171 36.251331 
L 203.866438 36.223159 
L 206.480438 36.138641 
L 206.698271 36.086321 
L 206.959671 36.158764 
L 207.482471 36.227183 
L 207.700304 36.114493 
L 208.310238 35.977655 
L 208.615204 35.98168 
L 208.745904 35.852891 
L 208.833037 35.816669 
L 208.876604 35.86094 
L 209.747938 35.848866 
L 209.965771 35.695929 
L 210.140037 35.619461 
L 212.536204 35.474574 
L 212.666904 35.486648 
L 212.797604 35.466524 
L 213.363971 35.526894 
L 213.843204 35.470549 
L 213.973904 35.530919 
L 214.540271 35.474574 
L 214.845238 35.474574 
L 214.975938 35.494697 
L 215.411604 35.526894 
L 215.629438 35.490672 
L 215.760138 35.494697 
L 215.977971 35.45445 
L 216.195804 35.530919 
L 216.587904 35.486648 
L 216.718604 35.470549 
L 216.936438 35.470549 
L 217.154271 35.466524 
L 217.328537 35.494697 
L 217.677071 35.450426 
L 217.894904 35.269316 
L 218.156304 35.309563 
L 218.330571 35.321637 
L 218.548404 35.321637 
L 218.984071 35.293464 
L 219.898971 35.152602 
L 220.378204 35.072109 
L 220.683171 34.951369 
L 220.857438 34.967468 
L 221.031704 34.923196 
L 221.162404 34.971492 
L 221.380238 34.987591 
L 222.208004 34.987591 
L 222.469404 34.931246 
L 222.817938 34.899049 
L 223.035771 35.043936 
L 223.253604 35.023813 
L 223.602138 35.031862 
L 224.168504 34.93527 
L 224.517037 34.991616 
L 224.996271 34.987591 
L 225.257671 35.104306 
L 225.431938 35.092232 
L 225.954738 35.180774 
L 226.085438 35.216996 
L 226.172571 35.22907 
L 226.346838 35.156626 
L 226.695371 35.148577 
L 226.956771 35.140528 
L 227.043904 35.200897 
L 227.087471 35.152602 
L 227.958804 35.104306 
L 228.481604 35.184799 
L 228.568738 35.225045 
L 228.612304 35.180774 
L 228.743004 35.225045 
L 229.440071 35.184799 
L 229.701471 35.164676 
L 230.006438 35.100281 
L 230.180704 35.128454 
L 230.311404 35.200897 
L 230.529238 35.100281 
L 230.703504 35.068084 
L 230.834204 35.10833 
L 231.052037 35.136503 
L 231.226304 35.180774 
L 231.444138 35.249193 
L 231.661971 35.200897 
L 231.879804 35.221021 
L 232.054071 35.148577 
L 232.271904 35.188823 
L 232.576871 35.261267 
L 232.794704 35.373957 
L 233.186804 35.176749 
L 234.711638 35.088207 
L 235.147304 34.967468 
L 235.626537 34.915147 
L 235.800804 34.915147 
L 236.062204 34.858802 
L 236.192904 34.854777 
L 237.543471 35.019788 
L 237.717738 34.991616 
L 237.848438 34.971492 
L 237.892004 34.907098 
L 237.892004 34.907098 
" style="fill:none;stroke:#cc78bc;stroke-linecap:round;stroke-width:2;"/>
   </g>
   <g id="line2d_11">
    <path clip-path="url(#p560d16ceb8)" d="M 54.824871 100.36 
L 54.868438 100.36 
L 55.783337 96.786204 
L 57.264604 91.753776 
L 58.484471 88.046297 
L 61.534138 80.03422 
L 64.235271 74.208605 
L 68.853337 66.538163 
L 69.724671 65.31719 
L 70.029638 64.853755 
L 70.203904 64.684423 
L 70.552438 64.218018 
L 71.205938 63.466421 
L 73.079304 61.279959 
L 73.340704 61.00071 
L 74.081338 60.222377 
L 74.342737 59.960952 
L 74.952671 59.417307 
L 79.919271 55.139446 
L 80.224237 54.970114 
L 80.442071 54.800782 
L 80.703471 54.732456 
L 80.834171 54.693836 
L 81.923338 53.986801 
L 82.315438 53.772908 
L 82.925371 53.585751 
L 84.058104 52.706413 
L 84.188804 52.658881 
L 84.363071 52.53114 
L 84.842304 52.237037 
L 85.103704 52.127119 
L 85.757204 51.803309 
L 86.105737 51.586445 
L 86.541404 51.286401 
L 87.194904 50.906147 
L 87.979104 50.442712 
L 88.371204 50.317941 
L 88.589037 50.199111 
L 88.850438 50.130784 
L 89.460371 49.845594 
L 89.808904 49.759442 
L 90.070304 49.673291 
L 90.288138 49.601993 
L 90.636671 49.349481 
L 90.941638 49.284124 
L 91.159471 49.168266 
L 92.074371 48.832573 
L 92.292204 48.758304 
L 92.597171 48.609767 
L 93.686338 48.140391 
L 93.904171 48.054239 
L 94.078438 48.009678 
L 94.209138 48.012649 
L 94.601237 47.870054 
L 94.862638 47.718546 
L 95.777537 47.575951 
L 96.213204 47.498712 
L 96.823138 47.124399 
L 97.171671 47.070926 
L 97.433071 46.978833 
L 97.607338 46.907535 
L 97.868737 46.860003 
L 98.435104 46.690671 
L 98.740071 46.711467 
L 98.914338 46.672847 
L 99.350004 46.580754 
L 101.571904 46.08167 
L 102.007571 45.953929 
L 102.399671 45.743006 
L 102.922471 45.781626 
L 103.183871 45.665767 
L 103.532404 45.609323 
L 103.706671 45.618235 
L 103.880938 45.558821 
L 104.098771 45.561791 
L 105.449338 45.380576 
L 105.710737 45.324132 
L 106.233537 45.23501 
L 106.494938 45.175596 
L 106.799904 45.053795 
L 106.974171 45.047854 
L 107.192004 45.068649 
L 107.540537 44.926054 
L 107.801938 44.9112 
L 108.106904 44.866639 
L 108.237604 44.872581 
L 108.629704 44.738897 
L 108.978237 44.697307 
L 109.893138 44.738897 
L 110.590204 44.471531 
L 111.113004 44.38835 
L 111.417971 44.290316 
L 111.853638 44.219018 
L 112.071471 44.115043 
L 113.727004 43.773408 
L 114.075537 43.746671 
L 114.249804 43.684286 
L 114.554771 43.565456 
L 114.859737 43.45851 
L 115.164704 43.440685 
L 115.295404 43.437715 
L 115.513238 43.443656 
L 115.948904 43.330768 
L 116.166737 43.345622 
L 118.214371 42.959426 
L 118.432204 42.85545 
L 119.303537 42.77227 
L 119.477804 42.801977 
L 119.695638 42.77227 
L 120.610537 42.736621 
L 120.915504 42.662352 
L 121.830404 42.632645 
L 121.961104 42.650469 
L 122.222504 42.546494 
L 123.137404 42.442518 
L 123.311671 42.397957 
L 123.573071 42.386074 
L 123.790904 42.454401 
L 124.052304 42.463313 
L 124.400838 42.415781 
L 125.141471 42.430635 
L 125.446438 42.397957 
L 126.448471 42.160298 
L 126.971271 42.020673 
L 127.276238 42.068205 
L 127.537638 42.04741 
L 127.799037 42.023644 
L 127.973304 42.026615 
L 129.541704 41.714687 
L 129.890238 41.628536 
L 130.064504 41.530502 
L 130.456604 41.459204 
L 130.848704 41.462175 
L 131.632904 41.462175 
L 132.112138 41.560209 
L 132.329971 41.557238 
L 132.722071 41.491882 
L 133.332004 41.515648 
L 134.900404 41.613682 
L 135.118237 41.607741 
L 135.336071 41.631507 
L 135.510338 41.619624 
L 135.684604 41.557238 
L 138.342171 41.275018 
L 138.777838 41.156189 
L 140.346238 40.942296 
L 140.825471 40.96012 
L 140.999738 40.930413 
L 141.609671 40.817525 
L 141.914638 40.772964 
L 142.437438 40.710578 
L 142.655271 40.719491 
L 143.047371 40.639281 
L 145.748504 40.535305 
L 145.922771 40.5561 
L 146.489138 40.401622 
L 147.534738 40.365973 
L 147.970404 40.27388 
L 148.013971 40.309529 
L 148.057537 40.235261 
L 148.580338 40.059987 
L 148.798171 40.101577 
L 149.538804 40.160992 
L 149.756638 40.1907 
L 149.930904 40.208524 
L 150.105171 40.166934 
L 150.453704 40.166934 
L 150.715104 40.131285 
L 150.932938 40.083753 
L 151.107204 40.128314 
L 151.325037 40.146138 
L 151.586438 40.095636 
L 152.022104 40.107519 
L 152.283504 40.024338 
L 152.937004 40.054046 
L 153.285537 40.006514 
L 154.723238 39.997602 
L 156.160938 39.786679 
L 156.378771 39.932245 
L 156.509471 39.926304 
L 156.727304 39.938187 
L 156.988704 39.956011 
L 157.555071 40.03325 
L 157.903604 40.059987 
L 158.165004 40.042163 
L 158.687804 40.009485 
L 159.167037 40.080782 
L 159.341304 40.07187 
L 159.733404 39.896597 
L 159.951238 40.024338 
L 160.169071 40.024338 
L 160.343338 40.092665 
L 160.909704 39.970865 
L 161.214671 40.015426 
L 161.432504 39.935216 
L 161.650338 39.920363 
L 161.911738 39.840153 
L 162.086004 39.822328 
L 163.131604 40.006514 
L 163.436571 39.95007 
L 164.090071 39.840153 
L 165.004971 39.620318 
L 165.222804 39.593581 
L 165.397071 39.486635 
L 165.614904 39.575757 
L 166.094138 39.652996 
L 166.486238 39.581699 
L 167.183304 39.679733 
L 167.575404 39.759943 
L 167.749671 39.768855 
L 167.880371 39.754001 
L 168.098204 39.771826 
L 168.751704 39.840153 
L 169.013104 39.724294 
L 169.230938 39.66785 
L 170.015138 39.590611 
L 170.232971 39.525255 
L 170.537938 39.537137 
L 170.799338 39.510401 
L 171.060738 39.575757 
L 171.496404 39.513372 
L 171.757804 39.513372 
L 172.367738 39.453957 
L 172.716271 39.358893 
L 173.064804 39.367805 
L 173.413338 39.38563 
L 173.674738 39.46584 
L 174.589638 39.26383 
L 175.156004 39.180649 
L 175.330271 39.177678 
L 175.983771 39.302449 
L 176.201604 39.216298 
L 176.375871 39.240064 
L 176.724404 39.171737 
L 177.072938 39.18362 
L 177.682871 39.127176 
L 179.033438 38.951902 
L 179.251271 38.889517 
L 180.079037 39.038054 
L 180.296871 39.038054 
L 182.736604 39.106381 
L 182.954438 39.201444 
L 183.651504 39.204415 
L 183.825771 39.231152 
L 184.087171 39.168766 
L 184.566404 39.159854 
L 184.740671 39.243035 
L 185.002071 39.10341 
L 185.350604 39.130147 
L 186.526904 39.136088 
L 186.701171 39.133117 
L 187.441804 39.192532 
L 187.921037 39.014288 
L 188.313138 39.014288 
L 188.487404 38.972698 
L 188.792371 38.969727 
L 189.228037 38.940019 
L 189.402304 38.889517 
L 189.750838 38.919224 
L 190.404338 38.791483 
L 190.535037 38.7796 
L 191.798471 38.937049 
L 192.844071 38.9014 
L 193.323304 38.868722 
L 193.715404 38.833073 
L 194.238204 38.934078 
L 194.586737 38.844956 
L 194.804571 38.7796 
L 195.022404 38.693448 
L 195.283804 38.693448 
L 196.198704 38.69939 
L 196.329404 38.708302 
L 196.460104 38.696419 
L 196.634371 38.776629 
L 196.939338 38.818219 
L 197.157171 38.841985 
L 197.287871 38.836044 
L 197.549271 38.868722 
L 198.769138 38.78257 
L 198.986971 38.812278 
L 199.335504 38.708302 
L 200.293971 38.714243 
L 200.424671 38.690478 
L 200.642504 38.755834 
L 203.082238 38.696419 
L 203.343638 38.746922 
L 203.605037 38.690478 
L 204.214971 38.628092 
L 204.955604 38.571648 
L 205.434838 38.583531 
L 205.696238 38.678595 
L 206.001204 38.761775 
L 206.349738 38.58056 
L 206.698271 38.634034 
L 206.916104 38.533028 
L 207.264638 38.535999 
L 207.438904 38.50035 
L 208.963738 38.506292 
L 209.138004 38.479555 
L 209.660804 38.485497 
L 209.922204 38.449848 
L 211.403471 38.357755 
L 211.664871 38.319135 
L 212.318371 38.313194 
L 212.797604 38.286457 
L 213.320404 38.283487 
L 213.843204 38.200306 
L 214.017471 38.197335 
L 214.322438 38.143862 
L 214.670971 38.230013 
L 214.845238 38.224072 
L 215.063071 38.25675 
L 215.237338 38.179511 
L 215.368037 38.188423 
L 215.934404 38.081477 
L 216.152238 38.090389 
L 216.326504 38.099301 
L 216.892871 38.126038 
L 217.241404 38.17654 
L 217.502804 38.173569 
L 218.417704 38.13495 
L 218.679104 38.117125 
L 218.940504 38.200306 
L 219.158338 38.105242 
L 219.463304 38.036915 
L 221.467371 37.873525 
L 223.384304 37.912145 
L 223.776404 37.722017 
L 223.907104 37.745783 
L 224.124938 37.766578 
L 224.342771 37.775491 
L 225.824038 37.65072 
L 225.954738 37.680427 
L 226.390404 37.632895 
L 228.830138 37.41009 
L 229.004404 37.433856 
L 229.962871 37.472475 
L 230.180704 37.484358 
L 231.836238 37.2467 
L 232.141204 37.323939 
L 232.402604 37.380383 
L 233.186804 37.484358 
L 234.275971 37.53189 
L 234.668071 37.508124 
L 236.367171 37.487329 
L 236.585004 37.567539 
L 236.846404 37.53189 
L 237.282071 37.629925 
L 237.456338 37.615071 
L 237.804871 37.567539 
L 237.892004 37.537832 
L 237.892004 37.537832 
" style="fill:none;stroke:#ca9161;stroke-linecap:round;stroke-width:2;"/>
   </g>
   <g id="line2d_12">
    <path clip-path="url(#p560d16ceb8)" d="M 55.78481 100.518297 
L 65.984434 76.54762 
L 75.518864 66.642756 
L 87.048874 60.129968 
L 108.556775 49.637143 
L 159.998355 38.284993 
L 246.048438 32.887167 
" style="fill:none;stroke:#000000;stroke-linecap:round;stroke-opacity:0.6;stroke-width:2;"/>
    <defs>
     <path d="M -3 3 
L 3 3 
L 3 -3 
L -3 -3 
z
" id="m07788b21ca" style="stroke:#ffffff;stroke-linejoin:miter;stroke-opacity:0.6;stroke-width:0.75;"/>
    </defs>
    <g clip-path="url(#p560d16ceb8)">
     <use style="fill-opacity:0.6;stroke:#ffffff;stroke-linejoin:miter;stroke-opacity:0.6;stroke-width:0.75;" x="55.78481" xlink:href="#m07788b21ca" y="100.518297"/>
     <use style="fill-opacity:0.6;stroke:#ffffff;stroke-linejoin:miter;stroke-opacity:0.6;stroke-width:0.75;" x="65.984434" xlink:href="#m07788b21ca" y="76.54762"/>
     <use style="fill-opacity:0.6;stroke:#ffffff;stroke-linejoin:miter;stroke-opacity:0.6;stroke-width:0.75;" x="75.518864" xlink:href="#m07788b21ca" y="66.642756"/>
     <use style="fill-opacity:0.6;stroke:#ffffff;stroke-linejoin:miter;stroke-opacity:0.6;stroke-width:0.75;" x="87.048874" xlink:href="#m07788b21ca" y="60.129968"/>
     <use style="fill-opacity:0.6;stroke:#ffffff;stroke-linejoin:miter;stroke-opacity:0.6;stroke-width:0.75;" x="108.556775" xlink:href="#m07788b21ca" y="49.637143"/>
     <use style="fill-opacity:0.6;stroke:#ffffff;stroke-linejoin:miter;stroke-opacity:0.6;stroke-width:0.75;" x="159.998355" xlink:href="#m07788b21ca" y="38.284993"/>
     <use style="fill-opacity:0.6;stroke:#ffffff;stroke-linejoin:miter;stroke-opacity:0.6;stroke-width:0.75;" x="265.985748" xlink:href="#m07788b21ca" y="31.636522"/>
     <use style="fill-opacity:0.6;stroke:#ffffff;stroke-linejoin:miter;stroke-opacity:0.6;stroke-width:0.75;" x="370.642756" xlink:href="#m07788b21ca" y="22.636211"/>
     <use style="fill-opacity:0.6;stroke:#ffffff;stroke-linejoin:miter;stroke-opacity:0.6;stroke-width:0.75;" x="474.63457" xlink:href="#m07788b21ca" y="22.817122"/>
    </g>
   </g>
   <g id="patch_3">
    <path d="M 54.868438 100.36 
L 54.868438 7.2 
" style="fill:none;stroke:#262626;stroke-linecap:square;stroke-linejoin:miter;stroke-width:0.8;"/>
   </g>
   <g id="patch_4">
    <path d="M 54.868438 100.36 
L 237.848438 100.36 
" style="fill:none;stroke:#262626;stroke-linecap:square;stroke-linejoin:miter;stroke-width:0.8;"/>
   </g>
   <g id="text_10">
    <!-- P=144 -->
    <g style="fill:#262626;" transform="translate(109.762438 49.122)scale(0.1 -0.1)">
     <defs>
      <path d="M 52.828125 42.09375 
L 5.5625 42.09375 
L 5.5625 50.296875 
L 52.828125 50.296875 
z
M 52.828125 20.359375 
L 5.5625 20.359375 
L 5.5625 28.5625 
L 52.828125 28.5625 
z
" id="ArialMT-61"/>
      <path d="M 32.328125 0 
L 32.328125 17.140625 
L 1.265625 17.140625 
L 1.265625 25.203125 
L 33.9375 71.578125 
L 41.109375 71.578125 
L 41.109375 25.203125 
L 50.78125 25.203125 
L 50.78125 17.140625 
L 41.109375 17.140625 
L 41.109375 0 
z
M 32.328125 25.203125 
L 32.328125 57.46875 
L 9.90625 25.203125 
z
" id="ArialMT-52"/>
     </defs>
     <use xlink:href="#ArialMT-80"/>
     <use x="66.699219" xlink:href="#ArialMT-61"/>
     <use x="125.097656" xlink:href="#ArialMT-49"/>
     <use x="180.712891" xlink:href="#ArialMT-52"/>
     <use x="236.328125" xlink:href="#ArialMT-52"/>
    </g>
   </g>
   <g id="legend_1">
    <g id="patch_5">
     <path d="M 79.745038 96.195 
L 232.017438 96.195 
Q 233.683438 96.195 233.683438 94.529 
L 233.683438 42.139808 
Q 233.683438 40.473808 232.017438 40.473808 
L 79.745038 40.473808 
Q 78.079038 40.473808 78.079038 42.139808 
L 78.079038 94.529 
Q 78.079038 96.195 79.745038 96.195 
z
" style="fill:#ffffff;opacity:0.8;stroke:#cccccc;stroke-linejoin:miter;"/>
    </g>
    <g id="line2d_13">
     <path d="M 81.411038 48.470608 
L 98.071038 48.470608 
" style="fill:none;stroke:#d55e00;stroke-linecap:round;stroke-width:2;"/>
    </g>
    <g id="line2d_14"/>
    <g id="text_11">
     <!-- $\langle B \rangle=46$, $\langle U/A_{spine} \rangle$=11.1 $\#/ \mu m^2$ -->
     <g style="fill:#262626;" transform="translate(104.735038 51.386108)scale(0.0833 -0.0833)">
      <defs>
       <path d="M 8.9375 31.34375 
L 22.703125 75.875 
L 31 75.875 
L 17.234375 31.34375 
L 31 -13.1875 
L 22.703125 -13.1875 
z
" id="DejaVuSans-10216"/>
       <path d="M 16.890625 72.90625 
L 42.09375 72.90625 
Q 52.34375 72.90625 57.421875 69.09375 
Q 62.5 65.28125 62.5 57.625 
Q 62.5 50.59375 58.125 45.484375 
Q 53.765625 40.375 46.6875 39.3125 
Q 52.734375 37.9375 55.765625 34.078125 
Q 58.796875 30.21875 58.796875 23.78125 
Q 58.796875 12.796875 50.65625 6.390625 
Q 42.53125 0 28.421875 0 
L 2.6875 0 
z
M 19.28125 34.8125 
L 14.109375 8.109375 
L 29.984375 8.109375 
Q 38.921875 8.109375 43.75 12.203125 
Q 48.578125 16.3125 48.578125 23.78125 
Q 48.578125 29.546875 45.375 32.171875 
Q 42.1875 34.8125 35.109375 34.8125 
z
M 25.09375 64.796875 
L 20.796875 42.828125 
L 35.5 42.828125 
Q 43.359375 42.828125 47.78125 46.234375 
Q 52.203125 49.65625 52.203125 55.71875 
Q 52.203125 60.453125 49.21875 62.625 
Q 46.234375 64.796875 39.703125 64.796875 
z
" id="DejaVuSans-Oblique-66"/>
       <path d="M 30.078125 31.34375 
L 16.3125 -13.1875 
L 8.015625 -13.1875 
L 21.78125 31.34375 
L 8.015625 75.875 
L 16.3125 75.875 
z
" id="DejaVuSans-10217"/>
       <path d="M 10.59375 45.40625 
L 73.1875 45.40625 
L 73.1875 37.203125 
L 10.59375 37.203125 
z
M 10.59375 25.484375 
L 73.1875 25.484375 
L 73.1875 17.1875 
L 10.59375 17.1875 
z
" id="DejaVuSans-61"/>
       <path d="M 37.796875 64.3125 
L 12.890625 25.390625 
L 37.796875 25.390625 
z
M 35.203125 72.90625 
L 47.609375 72.90625 
L 47.609375 25.390625 
L 58.015625 25.390625 
L 58.015625 17.1875 
L 47.609375 17.1875 
L 47.609375 0 
L 37.796875 0 
L 37.796875 17.1875 
L 4.890625 17.1875 
L 4.890625 26.703125 
z
" id="DejaVuSans-52"/>
       <path d="M 33.015625 40.375 
Q 26.375 40.375 22.484375 35.828125 
Q 18.609375 31.296875 18.609375 23.390625 
Q 18.609375 15.53125 22.484375 10.953125 
Q 26.375 6.390625 33.015625 6.390625 
Q 39.65625 6.390625 43.53125 10.953125 
Q 47.40625 15.53125 47.40625 23.390625 
Q 47.40625 31.296875 43.53125 35.828125 
Q 39.65625 40.375 33.015625 40.375 
z
M 52.59375 71.296875 
L 52.59375 62.3125 
Q 48.875 64.0625 45.09375 64.984375 
Q 41.3125 65.921875 37.59375 65.921875 
Q 27.828125 65.921875 22.671875 59.328125 
Q 17.53125 52.734375 16.796875 39.40625 
Q 19.671875 43.65625 24.015625 45.921875 
Q 28.375 48.1875 33.59375 48.1875 
Q 44.578125 48.1875 50.953125 41.515625 
Q 57.328125 34.859375 57.328125 23.390625 
Q 57.328125 12.15625 50.6875 5.359375 
Q 44.046875 -1.421875 33.015625 -1.421875 
Q 20.359375 -1.421875 13.671875 8.265625 
Q 6.984375 17.96875 6.984375 36.375 
Q 6.984375 53.65625 15.1875 63.9375 
Q 23.390625 74.21875 37.203125 74.21875 
Q 40.921875 74.21875 44.703125 73.484375 
Q 48.484375 72.75 52.59375 71.296875 
z
" id="DejaVuSans-54"/>
       <path d="M 8.890625 0 
L 8.890625 10.015625 
L 18.890625 10.015625 
L 18.890625 0 
Q 18.890625 -5.515625 16.9375 -8.90625 
Q 14.984375 -12.3125 10.75 -14.15625 
L 8.296875 -10.40625 
Q 11.078125 -9.1875 12.390625 -6.8125 
Q 13.71875 -4.4375 13.875 0 
z
" id="ArialMT-44"/>
       <path d="M 15.484375 72.90625 
L 25.390625 72.90625 
L 16.796875 28.609375 
Q 16.265625 25.640625 16.046875 23.703125 
Q 15.828125 21.78125 15.828125 20.3125 
Q 15.828125 13.578125 19.578125 10.078125 
Q 23.34375 6.59375 30.609375 6.59375 
Q 40.046875 6.59375 45.28125 11.765625 
Q 50.53125 16.9375 52.78125 28.609375 
L 61.375 72.90625 
L 71.296875 72.90625 
L 62.5 27.390625 
Q 59.625 12.640625 51.5625 5.609375 
Q 43.5 -1.421875 29.5 -1.421875 
Q 18.5625 -1.421875 12.1875 4.078125 
Q 5.8125 9.578125 5.8125 19 
Q 5.8125 20.703125 6.046875 22.828125 
Q 6.296875 24.953125 6.78125 27.390625 
z
" id="DejaVuSans-Oblique-85"/>
       <path d="M 25.390625 72.90625 
L 33.6875 72.90625 
L 8.296875 -9.28125 
L 0 -9.28125 
z
" id="DejaVuSans-47"/>
       <path d="M 36.8125 72.90625 
L 48 72.90625 
L 61.53125 0 
L 51.21875 0 
L 48.1875 18.703125 
L 15.375 18.703125 
L 5.078125 0 
L -5.328125 0 
z
M 40.375 63.1875 
L 19.921875 26.90625 
L 46.6875 26.90625 
z
" id="DejaVuSans-Oblique-65"/>
       <path d="M 50 53.078125 
L 48.296875 44.578125 
Q 44.734375 46.53125 40.765625 47.5 
Q 36.8125 48.484375 32.625 48.484375 
Q 25.53125 48.484375 21.453125 46.0625 
Q 17.390625 43.65625 17.390625 39.5 
Q 17.390625 34.671875 26.859375 32.078125 
Q 27.59375 31.890625 27.9375 31.78125 
L 30.8125 30.90625 
Q 39.796875 28.421875 42.796875 25.6875 
Q 45.796875 22.953125 45.796875 18.21875 
Q 45.796875 9.515625 38.890625 4.046875 
Q 31.984375 -1.421875 20.796875 -1.421875 
Q 16.453125 -1.421875 11.671875 -0.578125 
Q 6.890625 0.25 1.125 2 
L 2.875 11.28125 
Q 7.8125 8.734375 12.59375 7.421875 
Q 17.390625 6.109375 21.78125 6.109375 
Q 28.375 6.109375 32.5 8.9375 
Q 36.625 11.765625 36.625 16.109375 
Q 36.625 20.796875 25.78125 23.6875 
L 24.859375 23.921875 
L 21.78125 24.703125 
Q 14.9375 26.515625 11.765625 29.46875 
Q 8.59375 32.421875 8.59375 37.015625 
Q 8.59375 45.75 15.15625 50.875 
Q 21.734375 56 33.015625 56 
Q 37.453125 56 41.671875 55.265625 
Q 45.90625 54.546875 50 53.078125 
z
" id="DejaVuSans-Oblique-115"/>
       <path d="M 49.609375 33.6875 
Q 49.609375 40.875 46.484375 44.671875 
Q 43.359375 48.484375 37.5 48.484375 
Q 33.5 48.484375 29.859375 46.4375 
Q 26.21875 44.390625 23.390625 40.484375 
Q 20.609375 36.625 18.9375 31.15625 
Q 17.28125 25.6875 17.28125 20.3125 
Q 17.28125 13.484375 20.40625 9.796875 
Q 23.53125 6.109375 29.296875 6.109375 
Q 33.546875 6.109375 37.1875 8.109375 
Q 40.828125 10.109375 43.40625 13.921875 
Q 46.1875 17.921875 47.890625 23.34375 
Q 49.609375 28.765625 49.609375 33.6875 
z
M 21.78125 46.390625 
Q 25.390625 51.125 30.296875 53.5625 
Q 35.203125 56 41.21875 56 
Q 49.609375 56 54.25 50.5 
Q 58.890625 45.015625 58.890625 35.109375 
Q 58.890625 27 56 19.65625 
Q 53.125 12.3125 47.703125 6.5 
Q 44.09375 2.640625 39.546875 0.609375 
Q 35.015625 -1.421875 29.984375 -1.421875 
Q 24.171875 -1.421875 20.21875 1 
Q 16.265625 3.421875 14.3125 8.203125 
L 8.6875 -20.796875 
L -0.296875 -20.796875 
L 14.40625 54.6875 
L 23.390625 54.6875 
z
" id="DejaVuSans-Oblique-112"/>
       <path d="M 18.3125 75.984375 
L 27.296875 75.984375 
L 25.09375 64.59375 
L 16.109375 64.59375 
z
M 14.203125 54.6875 
L 23.1875 54.6875 
L 12.5 0 
L 3.515625 0 
z
" id="DejaVuSans-Oblique-105"/>
       <path d="M 55.71875 33.015625 
L 49.3125 0 
L 40.28125 0 
L 46.6875 32.671875 
Q 47.125 34.96875 47.359375 36.71875 
Q 47.609375 38.484375 47.609375 39.5 
Q 47.609375 43.609375 45.015625 45.890625 
Q 42.4375 48.1875 37.796875 48.1875 
Q 30.5625 48.1875 25.34375 43.375 
Q 20.125 38.578125 18.5 30.328125 
L 12.5 0 
L 3.515625 0 
L 14.109375 54.6875 
L 23.09375 54.6875 
L 21.296875 46.09375 
Q 25.046875 50.828125 30.3125 53.40625 
Q 35.59375 56 41.40625 56 
Q 48.640625 56 52.609375 52.09375 
Q 56.59375 48.1875 56.59375 41.109375 
Q 56.59375 39.359375 56.375 37.359375 
Q 56.15625 35.359375 55.71875 33.015625 
z
" id="DejaVuSans-Oblique-110"/>
       <path d="M 48.09375 32.234375 
Q 48.25 33.015625 48.3125 33.84375 
Q 48.390625 34.671875 48.390625 35.5 
Q 48.390625 41.453125 44.890625 44.921875 
Q 41.40625 48.390625 35.40625 48.390625 
Q 28.71875 48.390625 23.578125 44.15625 
Q 18.453125 39.9375 15.828125 32.171875 
z
M 55.90625 25.203125 
L 14.109375 25.203125 
Q 13.8125 23.34375 13.71875 22.265625 
Q 13.625 21.1875 13.625 20.40625 
Q 13.625 13.625 17.796875 9.90625 
Q 21.96875 6.203125 29.59375 6.203125 
Q 35.453125 6.203125 40.671875 7.515625 
Q 45.90625 8.84375 50.390625 11.375 
L 48.6875 2.484375 
Q 43.84375 0.53125 38.6875 -0.4375 
Q 33.546875 -1.421875 28.21875 -1.421875 
Q 16.84375 -1.421875 10.71875 4.015625 
Q 4.59375 9.46875 4.59375 19.484375 
Q 4.59375 28.03125 7.640625 35.375 
Q 10.6875 42.71875 16.609375 48.484375 
Q 20.40625 52.09375 25.65625 54.046875 
Q 30.90625 56 36.8125 56 
Q 46.09375 56 51.578125 50.4375 
Q 57.078125 44.875 57.078125 35.5 
Q 57.078125 33.25 56.78125 30.6875 
Q 56.5 28.125 55.90625 25.203125 
z
" id="DejaVuSans-Oblique-101"/>
       <path d="M 9.078125 0 
L 9.078125 10.015625 
L 19.09375 10.015625 
L 19.09375 0 
z
" id="ArialMT-46"/>
       <path d="M 51.125 44 
L 36.921875 44 
L 32.8125 27.6875 
L 47.125 27.6875 
z
M 43.796875 71.78125 
L 38.71875 51.515625 
L 52.984375 51.515625 
L 58.109375 71.78125 
L 65.921875 71.78125 
L 60.890625 51.515625 
L 76.125 51.515625 
L 76.125 44 
L 58.984375 44 
L 54.984375 27.6875 
L 70.515625 27.6875 
L 70.515625 20.21875 
L 53.078125 20.21875 
L 48 0 
L 40.1875 0 
L 45.21875 20.21875 
L 30.90625 20.21875 
L 25.875 0 
L 18.015625 0 
L 23.09375 20.21875 
L 7.71875 20.21875 
L 7.71875 27.6875 
L 24.90625 27.6875 
L 29 44 
L 13.28125 44 
L 13.28125 51.515625 
L 30.90625 51.515625 
L 35.890625 71.78125 
z
" id="DejaVuSans-35"/>
       <path d="M -1.3125 -20.796875 
L 13.375 54.6875 
L 22.40625 54.6875 
L 15.765625 20.65625 
Q 15.578125 19.625 15.421875 18.359375 
Q 15.28125 17.09375 15.28125 15.828125 
Q 15.28125 11.28125 18.140625 8.828125 
Q 21 6.390625 26.3125 6.390625 
Q 33.546875 6.390625 37.984375 10.484375 
Q 42.4375 14.59375 44 22.796875 
L 50.203125 54.6875 
L 59.1875 54.6875 
L 51.03125 12.640625 
Q 50.828125 11.71875 50.75 11.03125 
Q 50.6875 10.359375 50.6875 9.8125 
Q 50.6875 8.296875 51.296875 7.59375 
Q 51.90625 6.890625 53.21875 6.890625 
Q 53.71875 6.890625 54.5625 7.125 
Q 55.421875 7.375 56.984375 8.015625 
L 55.609375 0.78125 
Q 53.46875 -0.296875 51.515625 -0.859375 
Q 49.5625 -1.421875 47.703125 -1.421875 
Q 44.484375 -1.421875 42.65625 0.625 
Q 40.828125 2.6875 40.828125 6.296875 
Q 38.09375 2.390625 34.296875 0.484375 
Q 30.515625 -1.421875 25.390625 -1.421875 
Q 20.84375 -1.421875 17.453125 0.671875 
Q 14.0625 2.78125 12.984375 6.203125 
L 7.71875 -20.796875 
z
" id="DejaVuSans-Oblique-956"/>
       <path d="M 89.796875 33.015625 
L 83.40625 0 
L 74.421875 0 
L 80.71875 32.71875 
Q 81.109375 34.8125 81.296875 36.328125 
Q 81.5 37.84375 81.5 38.921875 
Q 81.5 43.3125 79.046875 45.75 
Q 76.609375 48.1875 72.21875 48.1875 
Q 65.671875 48.1875 60.546875 43.28125 
Q 55.421875 38.375 53.90625 30.515625 
L 47.90625 0 
L 38.921875 0 
L 45.3125 32.71875 
Q 45.703125 34.515625 45.890625 36.046875 
Q 46.09375 37.59375 46.09375 38.8125 
Q 46.09375 43.265625 43.65625 45.71875 
Q 41.21875 48.1875 36.921875 48.1875 
Q 30.28125 48.1875 25.140625 43.28125 
Q 20.015625 38.375 18.5 30.515625 
L 12.5 0 
L 3.515625 0 
L 14.203125 54.6875 
L 23.1875 54.6875 
L 21.484375 46.1875 
Q 25.140625 50.984375 30.046875 53.484375 
Q 34.96875 56 40.578125 56 
Q 46.53125 56 50.359375 52.875 
Q 54.203125 49.75 54.984375 44.1875 
Q 59.078125 49.953125 64.46875 52.96875 
Q 69.875 56 75.875 56 
Q 82.90625 56 86.734375 51.953125 
Q 90.578125 47.90625 90.578125 40.484375 
Q 90.578125 38.875 90.375 36.9375 
Q 90.1875 35.015625 89.796875 33.015625 
z
" id="DejaVuSans-Oblique-109"/>
       <path d="M 19.1875 8.296875 
L 53.609375 8.296875 
L 53.609375 0 
L 7.328125 0 
L 7.328125 8.296875 
Q 12.9375 14.109375 22.625 23.890625 
Q 32.328125 33.6875 34.8125 36.53125 
Q 39.546875 41.84375 41.421875 45.53125 
Q 43.3125 49.21875 43.3125 52.78125 
Q 43.3125 58.59375 39.234375 62.25 
Q 35.15625 65.921875 28.609375 65.921875 
Q 23.96875 65.921875 18.8125 64.3125 
Q 13.671875 62.703125 7.8125 59.421875 
L 7.8125 69.390625 
Q 13.765625 71.78125 18.9375 73 
Q 24.125 74.21875 28.421875 74.21875 
Q 39.75 74.21875 46.484375 68.546875 
Q 53.21875 62.890625 53.21875 53.421875 
Q 53.21875 48.921875 51.53125 44.890625 
Q 49.859375 40.875 45.40625 35.40625 
Q 44.1875 33.984375 37.640625 27.21875 
Q 31.109375 20.453125 19.1875 8.296875 
z
" id="DejaVuSans-50"/>
      </defs>
      <use transform="translate(0 0.765625)" xlink:href="#DejaVuSans-10216"/>
      <use transform="translate(39.013672 0.765625)" xlink:href="#DejaVuSans-Oblique-66"/>
      <use transform="translate(107.617188 0.765625)" xlink:href="#DejaVuSans-10217"/>
      <use transform="translate(166.113281 0.765625)" xlink:href="#DejaVuSans-61"/>
      <use transform="translate(269.384766 0.765625)" xlink:href="#DejaVuSans-52"/>
      <use transform="translate(333.007812 0.765625)" xlink:href="#DejaVuSans-54"/>
      <use transform="translate(396.630859 0.765625)" xlink:href="#ArialMT-44"/>
      <use transform="translate(424.414062 0.765625)" xlink:href="#ArialMT-32"/>
      <use transform="translate(452.197266 0.765625)" xlink:href="#DejaVuSans-10216"/>
      <use transform="translate(491.210938 0.765625)" xlink:href="#DejaVuSans-Oblique-85"/>
      <use transform="translate(564.404297 0.765625)" xlink:href="#DejaVuSans-47"/>
      <use transform="translate(598.095703 0.765625)" xlink:href="#DejaVuSans-Oblique-65"/>
      <use transform="translate(666.503906 -15.640625)scale(0.7)" xlink:href="#DejaVuSans-Oblique-115"/>
      <use transform="translate(702.973633 -15.640625)scale(0.7)" xlink:href="#DejaVuSans-Oblique-112"/>
      <use transform="translate(747.407227 -15.640625)scale(0.7)" xlink:href="#DejaVuSans-Oblique-105"/>
      <use transform="translate(766.855469 -15.640625)scale(0.7)" xlink:href="#DejaVuSans-Oblique-110"/>
      <use transform="translate(811.220703 -15.640625)scale(0.7)" xlink:href="#DejaVuSans-Oblique-101"/>
      <use transform="translate(857.021484 0.765625)" xlink:href="#DejaVuSans-10217"/>
      <use transform="translate(896.035156 0.765625)" xlink:href="#ArialMT-61"/>
      <use transform="translate(954.433594 0.765625)" xlink:href="#ArialMT-49"/>
      <use transform="translate(1010.048828 0.765625)" xlink:href="#ArialMT-49"/>
      <use transform="translate(1065.664062 0.765625)" xlink:href="#ArialMT-46"/>
      <use transform="translate(1093.447266 0.765625)" xlink:href="#ArialMT-49"/>
      <use transform="translate(1149.0625 0.765625)" xlink:href="#ArialMT-32"/>
      <use transform="translate(1176.845703 0.765625)" xlink:href="#DejaVuSans-35"/>
      <use transform="translate(1260.634766 0.765625)" xlink:href="#DejaVuSans-47"/>
      <use transform="translate(1294.326172 0.765625)" xlink:href="#DejaVuSans-Oblique-956"/>
      <use transform="translate(1357.949219 0.765625)" xlink:href="#DejaVuSans-Oblique-109"/>
      <use transform="translate(1460.011224 39.046875)scale(0.7)" xlink:href="#DejaVuSans-50"/>
     </g>
    </g>
    <g id="line2d_15">
     <path d="M 81.411038 62.798208 
L 98.071038 62.798208 
" style="fill:none;stroke:#cc78bc;stroke-linecap:round;stroke-width:2;"/>
    </g>
    <g id="line2d_16"/>
    <g id="text_12">
     <!-- $=131$, $=$33.4 $\#/ \mu m^2$ -->
     <g style="fill:#262626;" transform="translate(104.735038 65.713708)scale(0.0833 -0.0833)">
      <defs>
       <path d="M 12.40625 8.296875 
L 28.515625 8.296875 
L 28.515625 63.921875 
L 10.984375 60.40625 
L 10.984375 69.390625 
L 28.421875 72.90625 
L 38.28125 72.90625 
L 38.28125 8.296875 
L 54.390625 8.296875 
L 54.390625 0 
L 12.40625 0 
z
" id="DejaVuSans-49"/>
       <path d="M 40.578125 39.3125 
Q 47.65625 37.796875 51.625 33 
Q 55.609375 28.21875 55.609375 21.1875 
Q 55.609375 10.40625 48.1875 4.484375 
Q 40.765625 -1.421875 27.09375 -1.421875 
Q 22.515625 -1.421875 17.65625 -0.515625 
Q 12.796875 0.390625 7.625 2.203125 
L 7.625 11.71875 
Q 11.71875 9.328125 16.59375 8.109375 
Q 21.484375 6.890625 26.8125 6.890625 
Q 36.078125 6.890625 40.9375 10.546875 
Q 45.796875 14.203125 45.796875 21.1875 
Q 45.796875 27.640625 41.28125 31.265625 
Q 36.765625 34.90625 28.71875 34.90625 
L 20.21875 34.90625 
L 20.21875 43.015625 
L 29.109375 43.015625 
Q 36.375 43.015625 40.234375 45.921875 
Q 44.09375 48.828125 44.09375 54.296875 
Q 44.09375 59.90625 40.109375 62.90625 
Q 36.140625 65.921875 28.71875 65.921875 
Q 24.65625 65.921875 20.015625 65.03125 
Q 15.375 64.15625 9.8125 62.3125 
L 9.8125 71.09375 
Q 15.4375 72.65625 20.34375 73.4375 
Q 25.25 74.21875 29.59375 74.21875 
Q 40.828125 74.21875 47.359375 69.109375 
Q 53.90625 64.015625 53.90625 55.328125 
Q 53.90625 49.265625 50.4375 45.09375 
Q 46.96875 40.921875 40.578125 39.3125 
z
" id="DejaVuSans-51"/>
      </defs>
      <use transform="translate(19.482422 0.765625)" xlink:href="#DejaVuSans-61"/>
      <use transform="translate(122.753906 0.765625)" xlink:href="#DejaVuSans-49"/>
      <use transform="translate(186.376953 0.765625)" xlink:href="#DejaVuSans-51"/>
      <use transform="translate(250 0.765625)" xlink:href="#DejaVuSans-49"/>
      <use transform="translate(313.623047 0.765625)" xlink:href="#ArialMT-44"/>
      <use transform="translate(341.40625 0.765625)" xlink:href="#ArialMT-32"/>
      <use transform="translate(388.671875 0.765625)" xlink:href="#DejaVuSans-61"/>
      <use transform="translate(491.943359 0.765625)" xlink:href="#ArialMT-51"/>
      <use transform="translate(547.558594 0.765625)" xlink:href="#ArialMT-51"/>
      <use transform="translate(603.173828 0.765625)" xlink:href="#ArialMT-46"/>
      <use transform="translate(630.957031 0.765625)" xlink:href="#ArialMT-52"/>
      <use transform="translate(686.572266 0.765625)" xlink:href="#ArialMT-32"/>
      <use transform="translate(714.355469 0.765625)" xlink:href="#DejaVuSans-35"/>
      <use transform="translate(798.144531 0.765625)" xlink:href="#DejaVuSans-47"/>
      <use transform="translate(831.835938 0.765625)" xlink:href="#DejaVuSans-Oblique-956"/>
      <use transform="translate(895.458984 0.765625)" xlink:href="#DejaVuSans-Oblique-109"/>
      <use transform="translate(997.52099 39.046875)scale(0.7)" xlink:href="#DejaVuSans-50"/>
     </g>
    </g>
    <g id="line2d_17">
     <path d="M 81.411038 76.292808 
L 98.071038 76.292808 
" style="fill:none;stroke:#ca9161;stroke-linecap:round;stroke-width:2;"/>
    </g>
    <g id="line2d_18"/>
    <g id="text_13">
     <!-- $=138$, $=$66.6 $\#/ \mu m^2$ -->
     <g style="fill:#262626;" transform="translate(104.735038 79.208308)scale(0.0833 -0.0833)">
      <defs>
       <path d="M 31.78125 34.625 
Q 24.75 34.625 20.71875 30.859375 
Q 16.703125 27.09375 16.703125 20.515625 
Q 16.703125 13.921875 20.71875 10.15625 
Q 24.75 6.390625 31.78125 6.390625 
Q 38.8125 6.390625 42.859375 10.171875 
Q 46.921875 13.96875 46.921875 20.515625 
Q 46.921875 27.09375 42.890625 30.859375 
Q 38.875 34.625 31.78125 34.625 
z
M 21.921875 38.8125 
Q 15.578125 40.375 12.03125 44.71875 
Q 8.5 49.078125 8.5 55.328125 
Q 8.5 64.0625 14.71875 69.140625 
Q 20.953125 74.21875 31.78125 74.21875 
Q 42.671875 74.21875 48.875 69.140625 
Q 55.078125 64.0625 55.078125 55.328125 
Q 55.078125 49.078125 51.53125 44.71875 
Q 48 40.375 41.703125 38.8125 
Q 48.828125 37.15625 52.796875 32.3125 
Q 56.78125 27.484375 56.78125 20.515625 
Q 56.78125 9.90625 50.3125 4.234375 
Q 43.84375 -1.421875 31.78125 -1.421875 
Q 19.734375 -1.421875 13.25 4.234375 
Q 6.78125 9.90625 6.78125 20.515625 
Q 6.78125 27.484375 10.78125 32.3125 
Q 14.796875 37.15625 21.921875 38.8125 
z
M 18.3125 54.390625 
Q 18.3125 48.734375 21.84375 45.5625 
Q 25.390625 42.390625 31.78125 42.390625 
Q 38.140625 42.390625 41.71875 45.5625 
Q 45.3125 48.734375 45.3125 54.390625 
Q 45.3125 60.0625 41.71875 63.234375 
Q 38.140625 66.40625 31.78125 66.40625 
Q 25.390625 66.40625 21.84375 63.234375 
Q 18.3125 60.0625 18.3125 54.390625 
z
" id="DejaVuSans-56"/>
       <path d="M 49.75 54.046875 
L 41.015625 53.375 
Q 39.84375 58.546875 37.703125 60.890625 
Q 34.125 64.65625 28.90625 64.65625 
Q 24.703125 64.65625 21.53125 62.3125 
Q 17.390625 59.28125 14.984375 53.46875 
Q 12.59375 47.65625 12.5 36.921875 
Q 15.671875 41.75 20.265625 44.09375 
Q 24.859375 46.4375 29.890625 46.4375 
Q 38.671875 46.4375 44.84375 39.96875 
Q 51.03125 33.5 51.03125 23.25 
Q 51.03125 16.5 48.125 10.71875 
Q 45.21875 4.9375 40.140625 1.859375 
Q 35.0625 -1.21875 28.609375 -1.21875 
Q 17.625 -1.21875 10.6875 6.859375 
Q 3.765625 14.9375 3.765625 33.5 
Q 3.765625 54.25 11.421875 63.671875 
Q 18.109375 71.875 29.4375 71.875 
Q 37.890625 71.875 43.28125 67.140625 
Q 48.6875 62.40625 49.75 54.046875 
z
M 13.875 23.1875 
Q 13.875 18.65625 15.796875 14.5 
Q 17.71875 10.359375 21.1875 8.171875 
Q 24.65625 6 28.46875 6 
Q 34.03125 6 38.03125 10.484375 
Q 42.046875 14.984375 42.046875 22.703125 
Q 42.046875 30.125 38.078125 34.390625 
Q 34.125 38.671875 28.125 38.671875 
Q 22.171875 38.671875 18.015625 34.390625 
Q 13.875 30.125 13.875 23.1875 
z
" id="ArialMT-54"/>
      </defs>
      <use transform="translate(19.482422 0.765625)" xlink:href="#DejaVuSans-61"/>
      <use transform="translate(122.753906 0.765625)" xlink:href="#DejaVuSans-49"/>
      <use transform="translate(186.376953 0.765625)" xlink:href="#DejaVuSans-51"/>
      <use transform="translate(250 0.765625)" xlink:href="#DejaVuSans-56"/>
      <use transform="translate(313.623047 0.765625)" xlink:href="#ArialMT-44"/>
      <use transform="translate(341.40625 0.765625)" xlink:href="#ArialMT-32"/>
      <use transform="translate(388.671875 0.765625)" xlink:href="#DejaVuSans-61"/>
      <use transform="translate(491.943359 0.765625)" xlink:href="#ArialMT-54"/>
      <use transform="translate(547.558594 0.765625)" xlink:href="#ArialMT-54"/>
      <use transform="translate(603.173828 0.765625)" xlink:href="#ArialMT-46"/>
      <use transform="translate(630.957031 0.765625)" xlink:href="#ArialMT-54"/>
      <use transform="translate(686.572266 0.765625)" xlink:href="#ArialMT-32"/>
      <use transform="translate(714.355469 0.765625)" xlink:href="#DejaVuSans-35"/>
      <use transform="translate(798.144531 0.765625)" xlink:href="#DejaVuSans-47"/>
      <use transform="translate(831.835938 0.765625)" xlink:href="#DejaVuSans-Oblique-956"/>
      <use transform="translate(895.458984 0.765625)" xlink:href="#DejaVuSans-Oblique-109"/>
      <use transform="translate(997.52099 39.046875)scale(0.7)" xlink:href="#DejaVuSans-50"/>
     </g>
    </g>
    <g id="line2d_19">
     <path d="M 81.411038 88.194295 
L 98.071038 88.194295 
" style="fill:none;stroke:#000000;stroke-linecap:round;stroke-opacity:0.6;stroke-width:2;"/>
    </g>
    <g id="line2d_20">
     <g>
      <use style="fill-opacity:0.6;stroke:#ffffff;stroke-linejoin:miter;stroke-opacity:0.6;stroke-width:0.75;" x="89.741038" xlink:href="#m07788b21ca" y="88.194295"/>
     </g>
    </g>
    <g id="text_14">
     <!-- Tatavarty 2013 -->
     <g style="fill:#262626;" transform="translate(104.735038 91.109795)scale(0.0833 -0.0833)">
      <defs>
       <path d="M 40.4375 6.390625 
Q 35.546875 2.25 31.03125 0.53125 
Q 26.515625 -1.171875 21.34375 -1.171875 
Q 12.796875 -1.171875 8.203125 3 
Q 3.609375 7.171875 3.609375 13.671875 
Q 3.609375 17.484375 5.34375 20.625 
Q 7.078125 23.78125 9.890625 25.6875 
Q 12.703125 27.59375 16.21875 28.5625 
Q 18.796875 29.25 24.03125 29.890625 
Q 34.671875 31.15625 39.703125 32.90625 
Q 39.75 34.71875 39.75 35.203125 
Q 39.75 40.578125 37.25 42.78125 
Q 33.890625 45.75 27.25 45.75 
Q 21.046875 45.75 18.09375 43.578125 
Q 15.140625 41.40625 13.71875 35.890625 
L 5.125 37.0625 
Q 6.296875 42.578125 8.984375 45.96875 
Q 11.671875 49.359375 16.75 51.1875 
Q 21.828125 53.03125 28.515625 53.03125 
Q 35.15625 53.03125 39.296875 51.46875 
Q 43.453125 49.90625 45.40625 47.53125 
Q 47.359375 45.171875 48.140625 41.546875 
Q 48.578125 39.3125 48.578125 33.453125 
L 48.578125 21.734375 
Q 48.578125 9.46875 49.140625 6.21875 
Q 49.703125 2.984375 51.375 0 
L 42.1875 0 
Q 40.828125 2.734375 40.4375 6.390625 
z
M 39.703125 26.03125 
Q 34.90625 24.078125 25.34375 22.703125 
Q 19.921875 21.921875 17.671875 20.9375 
Q 15.4375 19.96875 14.203125 18.09375 
Q 12.984375 16.21875 12.984375 13.921875 
Q 12.984375 10.40625 15.640625 8.0625 
Q 18.3125 5.71875 23.4375 5.71875 
Q 28.515625 5.71875 32.46875 7.9375 
Q 36.421875 10.15625 38.28125 14.015625 
Q 39.703125 17 39.703125 22.796875 
z
" id="ArialMT-97"/>
       <path d="M 25.78125 7.859375 
L 27.046875 0.09375 
Q 23.34375 -0.6875 20.40625 -0.6875 
Q 15.625 -0.6875 12.984375 0.828125 
Q 10.359375 2.34375 9.28125 4.8125 
Q 8.203125 7.28125 8.203125 15.1875 
L 8.203125 45.015625 
L 1.765625 45.015625 
L 1.765625 51.859375 
L 8.203125 51.859375 
L 8.203125 64.703125 
L 16.9375 69.96875 
L 16.9375 51.859375 
L 25.78125 51.859375 
L 25.78125 45.015625 
L 16.9375 45.015625 
L 16.9375 14.703125 
Q 16.9375 10.9375 17.40625 9.859375 
Q 17.875 8.796875 18.921875 8.15625 
Q 19.96875 7.515625 21.921875 7.515625 
Q 23.390625 7.515625 25.78125 7.859375 
z
" id="ArialMT-116"/>
      </defs>
      <use xlink:href="#ArialMT-84"/>
      <use x="49.958984" xlink:href="#ArialMT-97"/>
      <use x="105.574219" xlink:href="#ArialMT-116"/>
      <use x="133.357422" xlink:href="#ArialMT-97"/>
      <use x="188.972656" xlink:href="#ArialMT-118"/>
      <use x="238.972656" xlink:href="#ArialMT-97"/>
      <use x="294.587891" xlink:href="#ArialMT-114"/>
      <use x="327.888672" xlink:href="#ArialMT-116"/>
      <use x="355.671875" xlink:href="#ArialMT-121"/>
      <use x="405.671875" xlink:href="#ArialMT-32"/>
      <use x="433.455078" xlink:href="#ArialMT-50"/>
      <use x="489.070312" xlink:href="#ArialMT-48"/>
      <use x="544.685547" xlink:href="#ArialMT-49"/>
      <use x="600.300781" xlink:href="#ArialMT-51"/>
     </g>
    </g>
   </g>
  </g>
 </g>
 <defs>
  <clipPath id="p560d16ceb8">
   <rect height="93.16" width="182.98" x="54.868438" y="7.2"/>
  </clipPath>
 </defs>
</svg>
